<svg xmlns="http://www.w3.org/2000/svg" xmlns:xlink="http://www.w3.org/1999/xlink" width="108" height="108" viewBox="0 0 108 108">
  <defs>
    <filter id="Fondo" x="0" y="0" width="108" height="108" filterUnits="userSpaceOnUse">
      <feOffset dy="3" input="SourceAlpha"/>
      <feGaussianBlur stdDeviation="3" result="blur"/>
      <feFlood flood-opacity="0.161"/>
      <feComposite operator="in" in2="blur"/>
      <feComposite in="SourceGraphic"/>
    </filter>
  </defs>
  <g id="Group_1144627" data-name="Group 1144627" transform="translate(-4591.499 -3239)">
    <g id="Group_1144509" data-name="Group 1144509">
      <g transform="matrix(1, 0, 0, 1, 4591.5, 3239)" filter="url(#Fondo)">
        <g id="Fondo-2" data-name="Fondo" transform="translate(9 6)" fill="#fffbe8">
          <path d="M 45 88.5 C 39.12687683105469 88.5 33.43022537231445 87.35007476806641 28.06830024719238 85.08217620849609 C 22.88852500915527 82.89131164550781 18.23629951477051 79.75458526611328 14.2408504486084 75.75914764404297 C 10.24541282653809 71.76370239257812 7.108687400817871 67.11147308349609 4.917825222015381 61.93170166015625 C 2.649924993515015 56.56977462768555 1.5 50.87312316894531 1.5 45 C 1.5 39.12687683105469 2.649924993515015 33.43022537231445 4.917825222015381 28.06830024719238 C 7.108687400817871 22.88852500915527 10.24541282653809 18.23629951477051 14.2408504486084 14.2408504486084 C 18.23629951477051 10.24541282653809 22.88852500915527 7.108687400817871 28.06830024719238 4.917825222015381 C 33.43022537231445 2.649924993515015 39.12687683105469 1.5 45 1.5 C 50.87312316894531 1.5 56.56977462768555 2.649924993515015 61.93170166015625 4.917825222015381 C 67.11147308349609 7.108687400817871 71.76370239257812 10.24541282653809 75.75914764404297 14.2408504486084 C 79.75458526611328 18.23629951477051 82.89131164550781 22.88852500915527 85.08217620849609 28.06830024719238 C 87.35007476806641 33.43022537231445 88.5 39.12687683105469 88.5 45 C 88.5 50.87312316894531 87.35007476806641 56.56977462768555 85.08217620849609 61.93170166015625 C 82.89131164550781 67.11147308349609 79.75458526611328 71.76370239257812 75.75914764404297 75.75914764404297 C 71.76370239257812 79.75458526611328 67.11147308349609 82.89131164550781 61.93170166015625 85.08217620849609 C 56.56977462768555 87.35007476806641 50.87312316894531 88.5 45 88.5 Z" stroke="none"/>
          <path d="M 45 3 C 39.32871246337891 3 33.82865524291992 4.110054016113281 28.65262985229492 6.299339294433594 C 23.65165710449219 8.414573669433594 19.15968322753906 11.44334411621094 15.301513671875 15.301513671875 C 11.44334411621094 19.15968322753906 8.414573669433594 23.65165710449219 6.299339294433594 28.65262985229492 C 4.110054016113281 33.82865524291992 3 39.32871246337891 3 45 C 3 50.67128753662109 4.110054016113281 56.17134475708008 6.299339294433594 61.34737396240234 C 8.414573669433594 66.34834289550781 11.44334411621094 70.84031677246094 15.301513671875 74.698486328125 C 19.15968322753906 78.55665588378906 23.65165710449219 81.58542633056641 28.65262985229492 83.70066070556641 C 33.82865524291992 85.88994598388672 39.32871246337891 87 45 87 C 50.67128753662109 87 56.17134475708008 85.88994598388672 61.34737396240234 83.70066070556641 C 66.34834289550781 81.58542633056641 70.84031677246094 78.55665588378906 74.698486328125 74.698486328125 C 78.55665588378906 70.84031677246094 81.58542633056641 66.34834289550781 83.70066070556641 61.34737396240234 C 85.88994598388672 56.17134475708008 87 50.67128753662109 87 45 C 87 39.32871246337891 85.88994598388672 33.82865524291992 83.70066070556641 28.65262985229492 C 81.58542633056641 23.65165710449219 78.55665588378906 19.15968322753906 74.698486328125 15.301513671875 C 70.84031677246094 11.44334411621094 66.34834289550781 8.414573669433594 61.34737396240234 6.299339294433594 C 56.17134475708008 4.110054016113281 50.67128753662109 3 45 3 M 45 0 C 69.85281372070312 0 90 20.14718627929688 90 45 C 90 69.85281372070312 69.85281372070312 90 45 90 C 20.14718627929688 90 0 69.85281372070312 0 45 C 0 20.14718627929688 20.14718627929688 0 45 0 Z" stroke="none" fill="#bca724"/>
        </g>
      </g>
      <g id="Group_1144508" data-name="Group 1144508" transform="translate(4617.564 3262.433)">
        <g id="Group_1144506" data-name="Group 1144506" transform="translate(0.816 0.876)">
          <g id="Group_1144496" data-name="Group 1144496" transform="translate(0 5.49)">
            <g id="Group_1144476" data-name="Group 1144476" transform="translate(2.08 16.452)">
              <path id="Path_979650" data-name="Path 979650" d="M39.547,220.391H26.935v-5.468a3.058,3.058,0,0,1,3.058-3.058h6.5a3.058,3.058,0,0,1,3.058,3.058v5.468Z" transform="translate(-26.935 -211.865)" fill="#fff6e0"/>
              <path id="Path_979651" data-name="Path 979651" d="M380.4,220.391H367.79v-5.468a3.057,3.057,0,0,1,3.058-3.058h6.5a3.058,3.058,0,0,1,3.058,3.058v5.468Z" transform="translate(-331.18 -211.865)" fill="#fff6e0"/>
            </g>
            <g id="Group_1144484" data-name="Group 1144484" transform="translate(5.644)">
              <g id="Group_1144479" data-name="Group 1144479" transform="translate(0 1.143)">
                <g id="Group_1144478" data-name="Group 1144478">
                  <g id="Group_1144477" data-name="Group 1144477">
                    <path id="Path_979652" data-name="Path 979652" d="M73.452,172.824H60.125v-5.031a5.081,5.081,0,0,1,5.081-5.081h3.165a5.081,5.081,0,0,1,5.081,5.081Z" transform="translate(-60.125 -152.682)" fill="#8affb3"/>
                    <path id="Path_979653" data-name="Path 979653" d="M87.953,81.052h-.009a4.113,4.113,0,0,1-4.113-4.113v-3.5a4.113,4.113,0,0,1,4.113-4.113h.009a4.113,4.113,0,0,1,4.113,4.113v3.5A4.113,4.113,0,0,1,87.953,81.052Z" transform="translate(-81.285 -69.329)" fill="#ffcab9"/>
                    <path id="Path_979654" data-name="Path 979654" d="M104.318,69.329h-.009a4.093,4.093,0,0,0-2.144.6,4.11,4.11,0,0,1,1.969,3.51v3.5a4.11,4.11,0,0,1-1.969,3.51,4.093,4.093,0,0,0,2.144.6h.009a4.113,4.113,0,0,0,4.113-4.113v-3.5A4.113,4.113,0,0,0,104.318,69.329Z" transform="translate(-97.65 -69.329)" fill="#fabba7"/>
                  </g>
                </g>
                <path id="Path_979655" data-name="Path 979655" d="M83.831,75.191V73.45a4.117,4.117,0,1,1,8.234,0Z" transform="translate(-81.285 -69.329)" fill="#828cb3"/>
                <path id="Path_979656" data-name="Path 979656" d="M104.134,73.45v.908l4.3-.908a4.117,4.117,0,0,0-6.265-3.516A4.12,4.12,0,0,1,104.134,73.45Z" transform="translate(-97.65 -69.329)" fill="#717eb3"/>
              </g>
              <g id="Group_1144483" data-name="Group 1144483" transform="translate(28.765)">
                <path id="Path_979657" data-name="Path 979657" d="M412.813,72.8a2.519,2.519,0,0,1-2.519-2.519V61.205a2.519,2.519,0,0,1,5.039,0v9.074A2.519,2.519,0,0,1,412.813,72.8Z" transform="translate(-401.449 -58.686)" fill="#828cb3"/>
                <g id="Group_1144482" data-name="Group 1144482" transform="translate(0 1.143)">
                  <g id="Group_1144481" data-name="Group 1144481" transform="translate(0 4.113)">
                    <g id="Group_1144480" data-name="Group 1144480">
                      <path id="Path_979658" data-name="Path 979658" d="M341.268,172.824H327.941v-5.031a5.081,5.081,0,0,1,5.081-5.081h3.165a5.081,5.081,0,0,1,5.081,5.081v5.031Z" transform="translate(-327.941 -156.795)" fill="#ffea00"/>
                      <path id="Path_979659" data-name="Path 979659" d="M359.883,107.621v3.5a4.113,4.113,0,0,1-4.113,4.113h-.009a4.113,4.113,0,0,1-4.113-4.113v-3.5Z" transform="translate(-349.102 -107.621)" fill="#ffcab9"/>
                      <path id="Path_979660" data-name="Path 979660" d="M371.951,107.62v3.5a4.11,4.11,0,0,1-1.969,3.51,4.093,4.093,0,0,0,2.144.6h.009a4.113,4.113,0,0,0,4.113-4.113v-3.5h-4.3Z" transform="translate(-365.467 -107.62)" fill="#fabba7"/>
                    </g>
                  </g>
                  <path id="Path_979661" data-name="Path 979661" d="M351.648,75.191V73.45a4.117,4.117,0,1,1,8.234,0Z" transform="translate(-349.102 -69.329)" fill="#828cb3"/>
                  <path id="Path_979662" data-name="Path 979662" d="M371.951,73.45v.908l4.3-.908a4.117,4.117,0,0,0-6.265-3.516A4.12,4.12,0,0,1,371.951,73.45Z" transform="translate(-365.467 -69.329)" fill="#717eb3"/>
                </g>
              </g>
            </g>
            <ellipse id="Ellipse_11625" data-name="Ellipse 11625" cx="26.69" cy="11.55" rx="26.69" ry="11.55" transform="translate(0 16.95)" fill="#cc8b66"/>
            <g id="Group_1144495" data-name="Group 1144495" transform="translate(2.08 23.251)">
              <g id="Group_1144491" data-name="Group 1144491" transform="translate(3.565 0)">
                <g id="Group_1144487" data-name="Group 1144487">
                  <g id="Group_1144486" data-name="Group 1144486">
                    <g id="Group_1144485" data-name="Group 1144485">
                      <path id="Path_979663" data-name="Path 979663" d="M73.452,378.23l-13.327,4.928V373.63a5.081,5.081,0,0,1,5.081-5.081h3.165a5.081,5.081,0,0,1,5.081,5.081Z" transform="translate(-60.125 -358.519)" fill="#ff59ac"/>
                      <path id="Path_979664" data-name="Path 979664" d="M87.953,291.916h-.009a4.113,4.113,0,0,1-4.113-4.113v-8.524a4.113,4.113,0,0,1,4.113-4.113h.009a4.113,4.113,0,0,1,4.113,4.113V287.8A4.113,4.113,0,0,1,87.953,291.916Z" transform="translate(-81.285 -275.166)" fill="#828cb3"/>
                      <path id="Path_979665" data-name="Path 979665" d="M104.318,275.167h-.009a4.093,4.093,0,0,0-2.144.6,4.11,4.11,0,0,1,1.969,3.51V287.8a4.11,4.11,0,0,1-1.969,3.51,4.093,4.093,0,0,0,2.144.6h.009a4.113,4.113,0,0,0,4.113-4.113V279.28A4.113,4.113,0,0,0,104.318,275.167Z" transform="translate(-97.65 -275.167)" fill="#717eb3"/>
                    </g>
                  </g>
                </g>
                <g id="Group_1144490" data-name="Group 1144490" transform="translate(28.765)">
                  <g id="Group_1144489" data-name="Group 1144489">
                    <g id="Group_1144488" data-name="Group 1144488">
                      <path id="Path_979666" data-name="Path 979666" d="M341.269,373.631a5.081,5.081,0,0,0-5.081-5.081h-3.165a5.081,5.081,0,0,0-5.081,5.081v6.362h13.327Z" transform="translate(-327.942 -358.52)" fill="#87dbff"/>
                      <path id="Path_979667" data-name="Path 979667" d="M355.77,286.889h-.009a4.113,4.113,0,0,1-4.113-4.113v-3.5a4.113,4.113,0,0,1,4.113-4.113h.009a4.113,4.113,0,0,1,4.113,4.113v3.5A4.113,4.113,0,0,1,355.77,286.889Z" transform="translate(-349.102 -275.166)" fill="#828cb3"/>
                      <path id="Path_979668" data-name="Path 979668" d="M372.135,275.167h-.009a4.093,4.093,0,0,0-2.144.6,4.11,4.11,0,0,1,1.969,3.51v3.5a4.11,4.11,0,0,1-1.969,3.51,4.093,4.093,0,0,0,2.144.6h.009a4.113,4.113,0,0,0,4.113-4.113v-3.5A4.113,4.113,0,0,0,372.135,275.167Z" transform="translate(-365.467 -275.167)" fill="#717eb3"/>
                    </g>
                  </g>
                </g>
              </g>
              <g id="Group_1144494" data-name="Group 1144494" transform="translate(0 15.309)">
                <path id="Path_979669" data-name="Path 979669" d="M39.547,427.033h-10.6a2.011,2.011,0,0,1-2.011-2.011V420.76a3.058,3.058,0,0,1,3.058-3.058h6.5a3.058,3.058,0,0,1,3.058,3.058v6.273Z" transform="translate(-26.935 -417.703)" fill="#fff6e0"/>
                <path id="Path_979670" data-name="Path 979670" d="M80.185,417.7h-4.3a3.058,3.058,0,0,1,3.058,3.058v6.273h4.3v-6.273A3.058,3.058,0,0,0,80.185,417.7Z" transform="translate(-70.631 -417.703)" fill="#fff0cc"/>
                <g id="Group_1144492" data-name="Group 1144492" transform="translate(12.58 2.614)">
                  <path id="Path_979671" data-name="Path 979671" d="M144.058,444.987l4.312-2.691a1.576,1.576,0,1,1,1.725,2.637l-6.037,3.82Z" transform="translate(-144.058 -442.036)" fill="#fff6e0"/>
                </g>
                <g id="Group_1144493" data-name="Group 1144493" transform="translate(29.86 2.614)">
                  <path id="Path_979672" data-name="Path 979672" d="M311.691,444.987l-4.312-2.691a1.576,1.576,0,0,0-1.725,2.637l6.037,3.82Z" transform="translate(-304.941 -442.036)" fill="#fff6e0"/>
                </g>
                <path id="Path_979673" data-name="Path 979673" d="M378.391,427.033h-10.6V420.76a3.058,3.058,0,0,1,3.058-3.058h6.5a3.058,3.058,0,0,1,3.058,3.058v4.262a2.011,2.011,0,0,1-2.011,2.011Z" transform="translate(-331.18 -417.703)" fill="#fff6e0"/>
                <path id="Path_979674" data-name="Path 979674" d="M421.04,417.7h-4.3a3.058,3.058,0,0,1,3.058,3.058v4.262a2.011,2.011,0,0,1-2.011,2.011h4.3a2.011,2.011,0,0,0,2.011-2.011v-4.262A3.058,3.058,0,0,0,421.04,417.7Z" transform="translate(-374.876 -417.703)" fill="#fff0cc"/>
              </g>
            </g>
          </g>
          <g id="Group_1144499" data-name="Group 1144499" transform="translate(24.102 27.896)">
            <g id="Group_1144498" data-name="Group 1144498">
              <g id="Group_1144497" data-name="Group 1144497">
                <path id="Path_979675" data-name="Path 979675" d="M242.082,272.353a5.053,5.053,0,1,0-4.055,4.956l2.335,1.368v-2.527A5.043,5.043,0,0,0,242.082,272.353Z" transform="translate(-231.97 -267.297)" fill="#fff6e0"/>
              </g>
            </g>
          </g>
          <g id="Group_1144505" data-name="Group 1144505" transform="translate(18.998)">
            <g id="Group_1144502" data-name="Group 1144502" transform="translate(0 6.702)">
              <g id="Group_1144501" data-name="Group 1144501">
                <g id="Group_1144500" data-name="Group 1144500">
                  <path id="Path_979676" data-name="Path 979676" d="M184.457,75.026a5.053,5.053,0,1,1,4.055,4.956l-2.335,1.368V78.824A5.043,5.043,0,0,1,184.457,75.026Z" transform="translate(-184.457 -69.97)" fill="#fff6e0"/>
                </g>
              </g>
            </g>
            <g id="Group_1144504" data-name="Group 1144504" transform="translate(6.776)">
              <g id="Group_1144503" data-name="Group 1144503">
                <path id="Path_979677" data-name="Path 979677" d="M257.654,12.628a5.053,5.053,0,1,0-4.055,4.956l2.335,1.368V16.426A5.042,5.042,0,0,0,257.654,12.628Z" transform="translate(-247.542 -7.572)" fill="#ff59ac"/>
              </g>
            </g>
          </g>
        </g>
        <g id="Group_1144507" data-name="Group 1144507" transform="translate(0.002 0.071)">
          <path id="Path_979678" data-name="Path 979678" d="M49.326,89.819a5.875,5.875,0,0,0-.347-1.479c5.785-3.231,8.038-7.959,3.944-12.572v-4.2a3.867,3.867,0,0,0-3.6-3.853,5.87,5.87,0,0,0-.427-1.674,3.34,3.34,0,0,0,1.015-2.39V54.573a3.33,3.33,0,0,0-6.122-1.8,4.939,4.939,0,0,0-6.827,4.535v3.5a4.887,4.887,0,0,0,.575,2.3,6.04,6.04,0,0,0-3.121,5.473q-1.459-.167-2.963-.263a.806.806,0,0,0-.1,1.608c5.418.343,11.026,1.329,15.923,3.76,7.582,3.687,8.284,9.193.932,13.235a5.88,5.88,0,0,0-1.972-1.706,4.888,4.888,0,0,0,.574-2.3v-3.5a4.923,4.923,0,0,0-9.846,0v3.5a4.887,4.887,0,0,0,.574,2.3,6.093,6.093,0,0,0-3.12,5.68,60.31,60.31,0,0,1-13.827,0,6.044,6.044,0,0,0-2.546-5.327V79.418a4.923,4.923,0,0,0-9.846,0v6.154a5.9,5.9,0,0,0-1.4,1.352C-.775,82.746.275,77.115,8.189,73.47a45.13,45.13,0,0,1,16.92-3.615.806.806,0,0,0-.063-1.61c-1.511.059-3,.173-4.447.338a6.077,6.077,0,0,0-3.127-5.473,4.887,4.887,0,0,0,.575-2.3v-3.5a4.923,4.923,0,0,0-9.846.009v3.489a4.886,4.886,0,0,0,.574,2.3,5.894,5.894,0,0,0-3.089,4.6,3.867,3.867,0,0,0-3.6,3.853v4.2C-2,80.374.246,85.109,6.033,88.339a5.873,5.873,0,0,0-.345,1.48,3.867,3.867,0,0,0-3.6,3.853v4.262a2.819,2.819,0,0,0,2.816,2.816H15.474a.679.679,0,0,0,.592-.226l5.877-3.719a2.4,2.4,0,0,0-.331-4.177,62.458,62.458,0,0,0,11.746,0,2.4,2.4,0,0,0-.321,4.172l6.037,3.82a.815.815,0,0,0,.431.125h10.6A2.817,2.817,0,0,0,52.915,98.1a.806.806,0,0,0-1.608-.1,1.2,1.2,0,0,1-1.2,1.132h-9.8c0-1.361,0-4.117,0-5.467a2.255,2.255,0,0,1,2.252-2.252q3.248,0,6.5,0a2.307,2.307,0,0,1,2.252,2.36.806.806,0,0,0,1.611,0,3.906,3.906,0,0,0-3.6-3.96Zm1.985-18.256v2.729a17.9,17.9,0,0,0-1.954-1.311V69.334A2.254,2.254,0,0,1,51.311,71.564Zm-4.722-18.7A1.716,1.716,0,0,1,48.3,54.573v9.074a1.7,1.7,0,0,1-.277.936,5.882,5.882,0,0,0-1.79-1.472,4.887,4.887,0,0,0,.575-2.3v-3.5a4.9,4.9,0,0,0-1.656-3.675A1.712,1.712,0,0,1,46.59,52.859Zm-8.013,7.948v-1.1l6.623-1.4v2.5a3.311,3.311,0,0,1-3.307,3.307h-.009a3.311,3.311,0,0,1-3.307-3.307ZM40.8,54.187A3.316,3.316,0,0,1,41.891,54a3.361,3.361,0,0,1,3.247,2.676l-6.562,1.387v-.747A3.321,3.321,0,0,1,40.8,54.187ZM36.031,68.793a4.431,4.431,0,0,1,2.512-4.381,4.943,4.943,0,0,0,6.692,0,4.286,4.286,0,0,1,2.512,3.9v3.819A40.754,40.754,0,0,0,36.031,68.793ZM9.812,60.807v-1.1l6.623-1.4v2.5a3.311,3.311,0,0,1-3.307,3.307h-.009a3.311,3.311,0,0,1-3.307-3.307Zm2.225-6.621A3.316,3.316,0,0,1,13.126,54a3.361,3.361,0,0,1,3.247,2.676L9.812,58.065c-.076-1.66.514-3.281,2.225-3.878ZM9.778,64.412a4.943,4.943,0,0,0,6.692,0,4.538,4.538,0,0,1,2.523,4.378A39.973,39.973,0,0,0,7.265,72.127V68.308a4.28,4.28,0,0,1,2.512-3.9ZM5.654,69.334v3.648A17.942,17.942,0,0,0,3.7,74.292V71.564A2.254,2.254,0,0,1,5.654,69.334ZM18.981,90.416v2.625l-2.669,1.666a5.687,5.687,0,0,0-.388-2.72,4.947,4.947,0,0,0,2.121-4.044C18.441,88.075,18.981,89.5,18.981,90.416Zm-9.17-11a3.312,3.312,0,0,1,6.623,0v8.524a3.327,3.327,0,0,1-1.5,2.772,3.845,3.845,0,0,0-2.481-.905h-2.06a3.266,3.266,0,0,1-.578-1.867ZM8.57,89.809H7.31A4.25,4.25,0,0,1,8.2,87.747,5.368,5.368,0,0,0,8.57,89.809ZM3.7,97.934V93.672A2.255,2.255,0,0,1,5.953,91.42h6.5A2.255,2.255,0,0,1,14.7,93.672v5.467h-9.8A1.206,1.206,0,0,1,3.7,97.934Zm17.375-2.486-4.763,3.014V96.606l3.9-2.434C21,93.674,21.992,94.84,21.075,95.448Zm17.5-16.03a3.312,3.312,0,0,1,6.623,0v3.5a3.311,3.311,0,0,1-3.307,3.307h-.009a3.311,3.311,0,0,1-3.307-3.307ZM33.56,94.806a.784.784,0,0,1,1.206-.635L38.7,96.625v1.856l-4.8-3.034a.768.768,0,0,1-.344-.642ZM38.7,93.672v1.055l-2.669-1.666V90.416a4.273,4.273,0,0,1,2.512-3.9,4.943,4.943,0,0,0,6.691,0A4.278,4.278,0,0,1,47.7,89.809h-5.14A3.867,3.867,0,0,0,38.7,93.672Z" transform="translate(-0.002 -45.758)"/>
          <path id="Path_979679" data-name="Path 979679" d="M224.469,265.659a5.88,5.88,0,0,0,6.709,5.8l2.081,1.22a.816.816,0,0,0,1.213-.7v-2.178a5.861,5.861,0,1,0-10-4.146Zm5.861-4.25a4.259,4.259,0,0,1,2.8,7.443.806.806,0,0,0-.274.605v1.121l-1.122-.657c-.394-.231-1.039-.011-1.408-.011A4.25,4.25,0,0,1,230.331,261.409Z" transform="translate(-200.36 -231.902)"/>
          <path id="Path_979680" data-name="Path 979680" d="M250.206,309.183a.806.806,0,0,0,0-1.611A.806.806,0,0,0,250.206,309.183Z" transform="translate(-222.638 -274.544)"/>
          <path id="Path_979681" data-name="Path 979681" d="M272.577,309.183a.806.806,0,0,0,0-1.611A.806.806,0,0,0,272.577,309.183Z" transform="translate(-242.606 -274.544)"/>
          <path id="Path_979682" data-name="Path 979682" d="M294.947,309.183a.806.806,0,0,0,0-1.611A.806.806,0,0,0,294.947,309.183Z" transform="translate(-262.573 -274.544)"/>
          <path id="Path_979683" data-name="Path 979683" d="M178.666,18.959a.816.816,0,0,0,1.213.7l2.081-1.219a5.889,5.889,0,0,0,6.635-6.726,5.834,5.834,0,0,0,1.835.024l2.081,1.22a.816.816,0,0,0,1.213-.7V10.079A5.861,5.861,0,1,0,183.8,6.857a5.87,5.87,0,0,0-5.129,9.924v2.178ZM189.583,1.682a4.259,4.259,0,0,1,2.8,7.443.806.806,0,0,0-.274.605v1.121l-1.122-.657a2.691,2.691,0,0,0-1.408-.011,4.25,4.25,0,0,1,0-8.5ZM178.557,12.634A4.27,4.27,0,0,1,184.418,8.7a5.9,5.9,0,0,0,2.34,2.365,4.269,4.269,0,0,1-3.95,5.819,2.691,2.691,0,0,0-1.408.011l-1.122.657V16.432a.806.806,0,0,0-.274-.605A4.252,4.252,0,0,1,178.557,12.634Z" transform="translate(-157.94 -0.071)"/>
          <path id="Path_979684" data-name="Path 979684" d="M202.693,111.856a.806.806,0,0,0,0-1.611A.806.806,0,0,0,202.693,111.856Z" transform="translate(-180.228 -98.412)"/>
          <path id="Path_979685" data-name="Path 979685" d="M225.063,111.856a.806.806,0,0,0,0-1.611A.806.806,0,0,0,225.063,111.856Z" transform="translate(-200.196 -98.412)"/>
          <path id="Path_979686" data-name="Path 979686" d="M247.433,111.856a.806.806,0,0,0,0-1.611A.806.806,0,0,0,247.433,111.856Z" transform="translate(-220.163 -98.412)"/>
          <path id="Path_979687" data-name="Path 979687" d="M275.073,39.139a.805.805,0,0,0,1.139,0l.747-.747.747.747A.806.806,0,0,0,278.845,38l-.747-.747.747-.747a.806.806,0,0,0-1.139-1.139l-.747.747-.747-.747a.806.806,0,0,0-1.139,1.139l.747.747-.747.747A.805.805,0,0,0,275.073,39.139Z" transform="translate(-245.316 -31.363)"/>
        </g>
      </g>
    </g>
  </g>
</svg>
