<svg xmlns="http://www.w3.org/2000/svg" xmlns:xlink="http://www.w3.org/1999/xlink" width="108" height="108" viewBox="0 0 108 108">
  <defs>
    <filter id="Fondo" x="0" y="0" width="108" height="108" filterUnits="userSpaceOnUse">
      <feOffset dy="3" input="SourceAlpha"/>
      <feGaussianBlur stdDeviation="3" result="blur"/>
      <feFlood flood-opacity="0.161"/>
      <feComposite operator="in" in2="blur"/>
      <feComposite in="SourceGraphic"/>
    </filter>
  </defs>
  <g id="Group_1144638" data-name="Group 1144638" transform="translate(-588.5 -6663)">
    <g id="Group_1144595" data-name="Group 1144595">
      <g transform="matrix(1, 0, 0, 1, 588.5, 6663)" filter="url(#Fondo)">
        <g id="Fondo-2" data-name="Fondo" transform="translate(9 6)" fill="#fffbe8">
          <path d="M 45 88.5 C 39.12687683105469 88.5 33.43022537231445 87.35007476806641 28.06830024719238 85.08217620849609 C 22.88852500915527 82.89131164550781 18.23629951477051 79.75458526611328 14.2408504486084 75.75914764404297 C 10.24541282653809 71.76370239257812 7.108687400817871 67.11147308349609 4.917825222015381 61.93170166015625 C 2.649924993515015 56.56977462768555 1.5 50.87312316894531 1.5 45 C 1.5 39.12687683105469 2.649924993515015 33.43022537231445 4.917825222015381 28.06830024719238 C 7.108687400817871 22.88852500915527 10.24541282653809 18.23629951477051 14.2408504486084 14.2408504486084 C 18.23629951477051 10.24541282653809 22.88852500915527 7.108687400817871 28.06830024719238 4.917825222015381 C 33.43022537231445 2.649924993515015 39.12687683105469 1.5 45 1.5 C 50.87312316894531 1.5 56.56977462768555 2.649924993515015 61.93170166015625 4.917825222015381 C 67.11147308349609 7.108687400817871 71.76370239257812 10.24541282653809 75.75914764404297 14.2408504486084 C 79.75458526611328 18.23629951477051 82.89131164550781 22.88852500915527 85.08217620849609 28.06830024719238 C 87.35007476806641 33.43022537231445 88.5 39.12687683105469 88.5 45 C 88.5 50.87312316894531 87.35007476806641 56.56977462768555 85.08217620849609 61.93170166015625 C 82.89131164550781 67.11147308349609 79.75458526611328 71.76370239257812 75.75914764404297 75.75914764404297 C 71.76370239257812 79.75458526611328 67.11147308349609 82.89131164550781 61.93170166015625 85.08217620849609 C 56.56977462768555 87.35007476806641 50.87312316894531 88.5 45 88.5 Z" stroke="none"/>
          <path d="M 45 3 C 39.32871246337891 3 33.82865524291992 4.110054016113281 28.65262985229492 6.299339294433594 C 23.65165710449219 8.414573669433594 19.15968322753906 11.44334411621094 15.301513671875 15.301513671875 C 11.44334411621094 19.15968322753906 8.414573669433594 23.65165710449219 6.299339294433594 28.65262985229492 C 4.110054016113281 33.82865524291992 3 39.32871246337891 3 45 C 3 50.67128753662109 4.110054016113281 56.17134475708008 6.299339294433594 61.34737396240234 C 8.414573669433594 66.34834289550781 11.44334411621094 70.84031677246094 15.301513671875 74.698486328125 C 19.15968322753906 78.55665588378906 23.65165710449219 81.58542633056641 28.65262985229492 83.70066070556641 C 33.82865524291992 85.88994598388672 39.32871246337891 87 45 87 C 50.67128753662109 87 56.17134475708008 85.88994598388672 61.34737396240234 83.70066070556641 C 66.34834289550781 81.58542633056641 70.84031677246094 78.55665588378906 74.698486328125 74.698486328125 C 78.55665588378906 70.84031677246094 81.58542633056641 66.34834289550781 83.70066070556641 61.34737396240234 C 85.88994598388672 56.17134475708008 87 50.67128753662109 87 45 C 87 39.32871246337891 85.88994598388672 33.82865524291992 83.70066070556641 28.65262985229492 C 81.58542633056641 23.65165710449219 78.55665588378906 19.15968322753906 74.698486328125 15.301513671875 C 70.84031677246094 11.44334411621094 66.34834289550781 8.414573669433594 61.34737396240234 6.299339294433594 C 56.17134475708008 4.110054016113281 50.67128753662109 3 45 3 M 45 0 C 69.85281372070312 0 90 20.14718627929688 90 45 C 90 69.85281372070312 69.85281372070312 90 45 90 C 20.14718627929688 90 0 69.85281372070312 0 45 C 0 20.14718627929688 20.14718627929688 0 45 0 Z" stroke="none" fill="#bca724"/>
        </g>
      </g>
      <g id="Group_1144594" data-name="Group 1144594" transform="translate(610.683 6683.666)">
        <path id="Path_979877" data-name="Path 979877" d="M44.375,19.82A19.232,19.232,0,1,0,9.447,35.6s0,0,0,0A19.226,19.226,0,0,0,38.7,40.869a18.77,18.77,0,0,0,2.191-2.189v0A19.221,19.221,0,0,0,44.375,19.82Z" transform="translate(-1.967 -1.938)" fill="#fc5d3d"/>
        <path id="Path_979878" data-name="Path 979878" d="M181.36,181.347a3.112,3.112,0,0,1-4.4,0L163.5,167.89a.664.664,0,0,1,0-.939l.637-.637,2.191-2.191.635-.635a.664.664,0,0,1,.939,0l13.461,13.455A3.12,3.12,0,0,1,181.36,181.347Z" transform="translate(-123.674 -123.653)" fill="#fc5d3d"/>
        <path id="Path_979879" data-name="Path 979879" d="M44.26,30.117A14.114,14.114,0,1,1,30.149,44.235,14.114,14.114,0,0,1,44.26,30.117Z" transform="translate(-19.985 -19.946)" fill="#efefef"/>
        <path id="Path_979880" data-name="Path 979880" d="M44.26,30.117A14.114,14.114,0,1,1,30.149,44.235,14.114,14.114,0,0,1,44.26,30.117Z" transform="translate(-19.985 -19.946)" fill="#fff"/>
        <path id="Path_979881" data-name="Path 979881" d="M73.975,60.656A7.916,7.916,0,1,0,65.016,68.5l1.042,2.455L67.1,68.5A7.916,7.916,0,0,0,73.975,60.656Z" transform="translate(-41.785 -37.563)" fill="#f0c020"/>
        <path id="Path_979882" data-name="Path 979882" d="M80.719,68.71a.553.553,0,0,1,0-.782c.121-.121.237-.249.346-.379a.553.553,0,1,1,.851.707c-.13.156-.269.309-.415.454A.553.553,0,0,1,80.719,68.71Zm1.67-2.2a.553.553,0,0,1-.345-.7,5.543,5.543,0,0,0-9.163-5.715.553.553,0,1,1-.782-.782,6.65,6.65,0,0,1,10.992,6.855A.553.553,0,0,1,82.389,66.508Z" transform="translate(-52.526 -41.161)" fill="#f9e5af"/>
        <path id="Path_979883" data-name="Path 979883" d="M33.833,68.171c-9.111,0-16.809-7.9-16.809-17.25a16.378,16.378,0,0,1,5.032-11.745.553.553,0,0,1,.782.782A15.3,15.3,0,0,0,18.13,50.921c0,8.75,7.191,16.143,15.7,16.143a15.627,15.627,0,0,0,1.922-.12.553.553,0,1,1,.137,1.1A16.665,16.665,0,0,1,33.833,68.171Zm3.626-.956a.553.553,0,0,1,.4-.674c.512-.133,1.03-.293,1.54-.475a.553.553,0,0,1,.373,1.042c-.541.193-1.092.363-1.636.5A.553.553,0,0,1,37.459,67.215Z" transform="translate(-9.765 -26.874)" fill="#ffcbc3"/>
        <path id="Path_979884" data-name="Path 979884" d="M186.57,191.961l-.949-.949a.553.553,0,1,1,.782-.782l.949.949a.553.553,0,1,1-.782.782Zm-2.514-2.514L174.51,179.9a.553.553,0,0,1,.782-.782l9.545,9.545a.553.553,0,0,1-.782.782Z" transform="translate(-132.275 -135.849)" fill="#ffcbc3"/>
        <path id="Path_979885" data-name="Path 979885" d="M156.124,153.924l-2.191,2.191-3.731-3.731a18.77,18.77,0,0,0,2.191-2.189Z" transform="translate(-113.472 -113.452)" fill="#7d7b79"/>
        <path id="Path_979886" data-name="Path 979886" d="M57.9,97.519a.555.555,0,0,0,.37-.69,0,0,0,0,1,0,0,.558.558,0,0,0-.69-.365.553.553,0,0,0,.323,1.058Z" transform="translate(-41.038 -71.591)"/>
        <path id="Path_979887" data-name="Path 979887" d="M82.885,70.311a.553.553,0,0,0,.553-.553v0a1.457,1.457,0,1,1,2.149,1.286A2.35,2.35,0,0,0,84.341,73.1a.553.553,0,1,0,1.106,0,1.243,1.243,0,0,1,.666-1.089,2.564,2.564,0,1,0-3.782-2.257A.553.553,0,0,0,82.885,70.311Z" transform="translate(-60.621 -48.819)"/>
        <path id="Path_979888" data-name="Path 979888" d="M91.965,98.695a.553.553,0,0,0-.553.553v.42a.553.553,0,1,0,1.106,0v-.42A.553.553,0,0,0,91.965,98.695Z" transform="translate(-67.692 -73.348)"/>
        <path id="Path_979889" data-name="Path 979889" d="M217.323,197.426a.554.554,0,1,0,.783,0A.57.57,0,0,0,217.323,197.426Z" transform="translate(-165.614 -150.11)"/>
        <path id="Path_979890" data-name="Path 979890" d="M54.057,48.881a.567.567,0,0,0-.781,0,.553.553,0,0,0,0,.783v0l4.019,4.016a2.56,2.56,0,0,1-3.62,3.62L40.215,43.848a.112.112,0,0,1,0-.157l3.465-3.463a.109.109,0,0,1,.155,0l6.311,6.309a.57.57,0,0,0,.783,0,.554.554,0,0,0,0-.781l-6.311-6.309a1.218,1.218,0,0,0-1.722,0l-.244.244L39.663,36.7a19.757,19.757,0,0,0,.168-24.639l4.4-3.414h2.319a.553.553,0,1,0,0-1.106H44.046a.553.553,0,0,0-.339.116l-4.585,3.553A19.782,19.782,0,1,0,14.359,41.4L10.3,49.437a.553.553,0,0,0,.494.8h4.094a.553.553,0,1,0,0-1.106H11.7l3.636-7.207a19.753,19.753,0,0,0,8.941,2.142A19.533,19.533,0,0,0,36.7,39.688l2.974,2.974-.246.246a1.219,1.219,0,0,0,0,1.722L52.891,58.084A3.666,3.666,0,0,0,58.078,52.9ZM7.967,33.39a18.675,18.675,0,0,1,30.277-21.5l-3.179,2.464a14.664,14.664,0,1,0-18.4,22.467l-1.808,3.584A18.691,18.691,0,0,1,7.967,33.39ZM24.274,14.623A8.465,8.465,0,0,0,15.8,23.094c0,.044,0,.091,0,.135a.553.553,0,0,0,1.106-.018c0-.04,0-.08,0-.117a7.362,7.362,0,1,1,8.334,7.3.558.558,0,0,0-.438.332l-.533,1.257-.533-1.257a.555.555,0,0,0-.436-.332A7.351,7.351,0,0,1,18.1,27.1a.567.567,0,0,0-.766-.164.554.554,0,0,0-.162.766,8.48,8.48,0,0,0,2.76,2.659l-2.762,5.475A13.567,13.567,0,1,1,34.2,15.024l-3.421,2.652a8.429,8.429,0,0,0-6.51-3.054ZM15.83,40.938l1.8-3.578a14.5,14.5,0,0,0,6.639,1.593A14.674,14.674,0,0,0,38.768,26.526a.548.548,0,0,0-.1-.412.541.541,0,0,0-.361-.219.559.559,0,0,0-.631.462,13.64,13.64,0,0,1-13.4,11.489,13.481,13.481,0,0,1-6.142-1.471l2.782-5.514a8.378,8.378,0,0,0,1.931.576l.921,2.171a.554.554,0,0,0,1.018,0l.923-2.171a8.469,8.469,0,0,0,5.73-12.868l3.49-2.705a13.54,13.54,0,0,1,2.734,6.257.553.553,0,0,0,1,.237.545.545,0,0,0,.1-.412,14.652,14.652,0,0,0-2.97-6.746l3.173-2.459a18.672,18.672,0,0,1-23.126,28.2Zm21.713-1.976c.48-.439,1.043-1.007,1.407-1.408l2.919,2.917L40.461,41.88Z" transform="translate(0 0)"/>
        <path id="Path_979891" data-name="Path 979891" d="M216.089,18.245H208.4a.553.553,0,0,0,0,1.106h7.69a.553.553,0,0,0,0-1.106Z" transform="translate(-158.36 -10.701)"/>
        <path id="Path_979892" data-name="Path 979892" d="M216.089,30.37H208.4a.553.553,0,0,0,0,1.106h7.69a.553.553,0,0,0,0-1.106Z" transform="translate(-158.36 -20.143)"/>
        <path id="Path_979893" data-name="Path 979893" d="M216.642,43.048a.553.553,0,0,0-.553-.553H208.4a.553.553,0,0,0,0,1.106h7.69A.553.553,0,0,0,216.642,43.048Z" transform="translate(-158.36 -29.585)"/>
        <path id="Path_979894" data-name="Path 979894" d="M65.566,207.289h9.571a.553.553,0,1,0,0-1.106H65.566a.553.553,0,0,0,0,1.106Z" transform="translate(-47.134 -157.05)"/>
        <path id="Path_979895" data-name="Path 979895" d="M65.566,221.6h9.571a.553.553,0,0,0,0-1.106H65.566a.553.553,0,0,0,0,1.106Z" transform="translate(-47.134 -168.195)"/>
        <path id="Path_979896" data-name="Path 979896" d="M65.566,235.911h9.571a.553.553,0,0,0,0-1.106H65.566a.553.553,0,0,0,0,1.106Z" transform="translate(-47.134 -179.339)"/>
        <path id="Path_979897" data-name="Path 979897" d="M156.288,91.736a.553.553,0,1,0-.553.555h0a.543.543,0,0,0,.389-.164A.553.553,0,0,0,156.288,91.736Z" transform="translate(-117.35 -67.5)"/>
      </g>
    </g>
  </g>
</svg>
