<svg xmlns="http://www.w3.org/2000/svg" xmlns:xlink="http://www.w3.org/1999/xlink" width="108" height="108" viewBox="0 0 108 108">
  <defs>
    <filter id="Path_904820" x="0" y="0" width="108" height="108" filterUnits="userSpaceOnUse">
      <feOffset dy="3" input="SourceAlpha"/>
      <feGaussianBlur stdDeviation="3" result="blur"/>
      <feFlood flood-opacity="0.161"/>
      <feComposite operator="in" in2="blur"/>
      <feComposite in="SourceGraphic"/>
    </filter>
  </defs>
  <g id="Group_1144103" data-name="Group 1144103" transform="translate(-201 -487)">
    <g transform="matrix(1, 0, 0, 1, 201, 487)" filter="url(#Path_904820)">
      <g id="Path_904820-2" data-name="Path 904820" transform="translate(9 6)" fill="#ecf4fa">
        <path d="M 45 88.5 C 39.12687683105469 88.5 33.43022537231445 87.35007476806641 28.06830024719238 85.08217620849609 C 22.88852500915527 82.89131164550781 18.23629951477051 79.75458526611328 14.2408504486084 75.75914764404297 C 10.24541282653809 71.76370239257812 7.108687400817871 67.11147308349609 4.917825222015381 61.93170166015625 C 2.649924993515015 56.56977462768555 1.5 50.87312316894531 1.5 45 C 1.5 39.12687683105469 2.649924993515015 33.43022537231445 4.917825222015381 28.06830024719238 C 7.108687400817871 22.88852500915527 10.24541282653809 18.23629951477051 14.2408504486084 14.2408504486084 C 18.23629951477051 10.24541282653809 22.88852500915527 7.108687400817871 28.06830024719238 4.917825222015381 C 33.43022537231445 2.649924993515015 39.12687683105469 1.5 45 1.5 C 50.87312316894531 1.5 56.56977462768555 2.649924993515015 61.93170166015625 4.917825222015381 C 67.11147308349609 7.108687400817871 71.76370239257812 10.24541282653809 75.75914764404297 14.2408504486084 C 79.75458526611328 18.23629951477051 82.89131164550781 22.88852500915527 85.08217620849609 28.06830024719238 C 87.35007476806641 33.43022537231445 88.5 39.12687683105469 88.5 45 C 88.5 50.87312316894531 87.35007476806641 56.56977462768555 85.08217620849609 61.93170166015625 C 82.89131164550781 67.11147308349609 79.75458526611328 71.76370239257812 75.75914764404297 75.75914764404297 C 71.76370239257812 79.75458526611328 67.11147308349609 82.89131164550781 61.93170166015625 85.08217620849609 C 56.56977462768555 87.35007476806641 50.87312316894531 88.5 45 88.5 Z" stroke="none"/>
        <path d="M 45 3 C 39.32871246337891 3 33.82865524291992 4.110054016113281 28.65262985229492 6.299339294433594 C 23.65165710449219 8.414573669433594 19.15968322753906 11.44334411621094 15.301513671875 15.301513671875 C 11.44334411621094 19.15968322753906 8.414573669433594 23.65165710449219 6.299339294433594 28.65262985229492 C 4.110054016113281 33.82865524291992 3 39.32871246337891 3 45 C 3 50.67128753662109 4.110054016113281 56.17134475708008 6.299339294433594 61.34737396240234 C 8.414573669433594 66.34834289550781 11.44334411621094 70.84031677246094 15.301513671875 74.698486328125 C 19.15968322753906 78.55665588378906 23.65165710449219 81.58542633056641 28.65262985229492 83.70066070556641 C 33.82865524291992 85.88994598388672 39.32871246337891 87 45 87 C 50.67128753662109 87 56.17134475708008 85.88994598388672 61.34737396240234 83.70066070556641 C 66.34834289550781 81.58542633056641 70.84031677246094 78.55665588378906 74.698486328125 74.698486328125 C 78.55665588378906 70.84031677246094 81.58542633056641 66.34834289550781 83.70066070556641 61.34737396240234 C 85.88994598388672 56.17134475708008 87 50.67128753662109 87 45 C 87 39.32871246337891 85.88994598388672 33.82865524291992 83.70066070556641 28.65262985229492 C 81.58542633056641 23.65165710449219 78.55665588378906 19.15968322753906 74.698486328125 15.301513671875 C 70.84031677246094 11.44334411621094 66.34834289550781 8.414573669433594 61.34737396240234 6.299339294433594 C 56.17134475708008 4.110054016113281 50.67128753662109 3 45 3 M 45 0 C 69.85281372070312 0 90 20.14718627929688 90 45 C 90 69.85281372070312 69.85281372070312 90 45 90 C 20.14718627929688 90 0 69.85281372070312 0 45 C 0 20.14718627929688 20.14718627929688 0 45 0 Z" stroke="none" fill="#2a5673"/>
      </g>
    </g>
    <g id="Group_1144102" data-name="Group 1144102" transform="translate(194.551 505.378)">
      <g id="Group_1144101" data-name="Group 1144101" transform="translate(35.857 1.531)">
        <g id="Group_1144099" data-name="Group 1144099" transform="translate(0)">
          <path id="Path_978791" data-name="Path 978791" d="M86.483,50.8a2.452,2.452,0,0,1,2.447,2.447v49.129a2.452,2.452,0,0,1-2.447,2.447H45.365a2.452,2.452,0,0,1-2.447-2.447V53.248A2.452,2.452,0,0,1,45.365,50.8Z" transform="translate(-42.918 -45.507)" fill="#994f1f" fill-rule="evenodd"/>
          <path id="Path_978792" data-name="Path 978792" d="M74.635,82.518v46.049h32.181l5.857-5.857V82.518Z" transform="translate(-70.648 -73.237)" fill="#eff4f7" fill-rule="evenodd"/>
          <path id="Path_978793" data-name="Path 978793" d="M330.615,402.219v5.857l5.857-5.857Z" transform="translate(-294.447 -352.746)" fill="#d8d8d8" fill-rule="evenodd"/>
          <path id="Path_978794" data-name="Path 978794" d="M149.461,13.984h6.13l-2.441-3.451A1.167,1.167,0,0,1,154.1,8.69h7.643a1.167,1.167,0,0,1,.954,1.843l-2.441,3.451h6.13a.6.6,0,0,1,.6.6v4.358a.6.6,0,0,1-.6.6h-16.93a.6.6,0,0,1-.6-.6V14.584A.6.6,0,0,1,149.461,13.984Z" transform="translate(-135.542 -8.69)" fill="#292e33" fill-rule="evenodd"/>
        </g>
        <g id="Group_1144100" data-name="Group 1144100" transform="translate(28.927 37.532)">
          <path id="Path_978795" data-name="Path 978795" d="M285.335,331.885A12.325,12.325,0,1,0,273.01,319.56a12.349,12.349,0,0,0,12.325,12.325Z" transform="translate(-273.01 -307.235)" fill="#62a4fb" fill-rule="evenodd"/>
          <path id="Path_978796" data-name="Path 978796" d="M317.959,356.924a1.787,1.787,0,1,1,2.527,2.527l-8.715,8.715a1.788,1.788,0,0,1-2.73-.242l-3.666-4.614a1.783,1.783,0,1,1,2.792-2.22l2.491,3.135Z" transform="translate(-300.967 -350.22)" fill="#eff4f7" fill-rule="evenodd"/>
        </g>
      </g>
      <path id="Path_978797" data-name="Path 978797" d="M83.6,46.5a.781.781,0,0,0-1.1,0l-7.3,7.3a1.005,1.005,0,0,1-1.5-.086L71.2,50.581a.777.777,0,0,0-.61-.293.778.778,0,0,0-.607,1.261l3.667,4.615c.013.016.025.033.037.051a.778.778,0,0,0,.645.334.768.768,0,0,0,.549-.229L83.6,47.607A.783.783,0,0,0,83.6,46.5Zm1.421,2.527-8.714,8.714a2.771,2.771,0,0,1-1.971.818,2.8,2.8,0,0,1-2.275-1.167L68.413,52.8a2.789,2.789,0,0,1,4.366-3.471l1.79,2.253,6.5-6.5a2.792,2.792,0,0,1,3.949,3.949Zm3.416,2.382a11.32,11.32,0,1,1-11.32-11.319A11.333,11.333,0,0,1,88.438,51.411ZM38.3,59.865H66.819a13.378,13.378,0,0,1-1.35-1.979H39.838a1,1,0,0,1-1.006-1.006V10.8A1.006,1.006,0,0,1,39.838,9.79h8.334V7.811H38.3a1.444,1.444,0,0,0-1.443,1.443V58.423A1.445,1.445,0,0,0,38.3,59.865Zm10.88-46.493H67.321a1.006,1.006,0,0,0,1.006-1.006V11.8H76.9V38.083a13.352,13.352,0,0,0-12.059,8.13H56.985a1.006,1.006,0,1,0,0,2.012h7.188a13.332,13.332,0,0,0-.349,2.186H56.985a1.006,1.006,0,1,0,0,2.012h6.84a13.234,13.234,0,0,0,.732,3.453H40.844V11.8h7.328v.565a1.006,1.006,0,0,0,1.005,1.006Zm1.006-2.012V7.811h5.729a1.006,1.006,0,0,0,.821-1.587L54.291,2.77a.163.163,0,0,1,.134-.258h7.649a.163.163,0,0,1,.134.258L59.764,6.224a1.006,1.006,0,0,0,.821,1.587h5.73v3.55H50.183Zm29.265-3.55H68.326V9.789h9.58A1.006,1.006,0,0,1,78.912,10.8V38.2a13.235,13.235,0,0,1,1.98.424V9.254a1.444,1.444,0,0,0-1.443-1.443Zm11,43.6A13.324,13.324,0,0,1,68.87,61.877H38.3a3.459,3.459,0,0,1-3.455-3.454V9.254A3.459,3.459,0,0,1,38.3,5.8H53.97L52.649,3.932A2.174,2.174,0,0,1,54.425.5h7.649A2.174,2.174,0,0,1,63.85,3.932L62.529,5.8h16.92A3.459,3.459,0,0,1,82.9,9.254V39.4a13.349,13.349,0,0,1,7.545,12.009ZM51.3,46.607a1.006,1.006,0,1,1,1.429,1.415l-3.969,4.006a1.006,1.006,0,0,1-1.416.012l-2.214-2.159a1.006,1.006,0,1,1,1.4-1.44l1.5,1.462ZM46.536,19.728l1.5,1.461,3.267-3.3a1.006,1.006,0,0,1,1.429,1.415l-3.969,4.006a1.006,1.006,0,0,1-1.416.012l-2.214-2.158a1.006,1.006,0,1,1,1.4-1.44ZM51.3,27.463a1.006,1.006,0,0,1,1.429,1.416l-3.969,4.006a1.006,1.006,0,0,1-1.416.012L45.132,30.74a1.006,1.006,0,0,1,1.4-1.441l1.5,1.462Zm0,9.572a1.006,1.006,0,1,1,1.429,1.416l-3.969,4.006a1.006,1.006,0,0,1-1.416.012l-2.214-2.158a1.006,1.006,0,1,1,1.4-1.44l1.5,1.461ZM56.985,19.51a1.006,1.006,0,1,1,0-2.012H71.912a1.006,1.006,0,0,1,0,2.012Zm0,4.2a1.006,1.006,0,1,1,0-2.012h7.463a1.006,1.006,0,1,1,0,2.012Zm0,9.572a1.006,1.006,0,1,1,0-2.012h7.463a1.006,1.006,0,1,1,0,2.012Zm0-4.2a1.006,1.006,0,1,1,0-2.012H71.912a1.006,1.006,0,0,1,0,2.012Zm0,9.571a1.006,1.006,0,1,1,0-2.012H71.912a1.006,1.006,0,0,1,0,2.012Zm-1.006,3.191a1.006,1.006,0,0,1,1.006-1.006h7.463a1.006,1.006,0,1,1,0,2.012H56.985A1.006,1.006,0,0,1,55.979,41.844Z" fill-rule="evenodd"/>
    </g>
  </g>
</svg>
