<svg xmlns="http://www.w3.org/2000/svg" xmlns:xlink="http://www.w3.org/1999/xlink" width="108" height="108" viewBox="0 0 108 108">
  <defs>
    <filter id="Path_904820" x="0" y="0" width="108" height="108" filterUnits="userSpaceOnUse">
      <feOffset dy="3" input="SourceAlpha"/>
      <feGaussianBlur stdDeviation="3" result="blur"/>
      <feFlood flood-opacity="0.161"/>
      <feComposite operator="in" in2="blur"/>
      <feComposite in="SourceGraphic"/>
    </filter>
  </defs>
  <g id="Group_1144648" data-name="Group 1144648" transform="translate(-201 -1161)">
    <g id="Group_1144645" data-name="Group 1144645">
      <g id="Group_1144605" data-name="Group 1144605">
        <g transform="matrix(1, 0, 0, 1, 201, 1161)" filter="url(#Path_904820)">
          <g id="Path_904820-2" data-name="Path 904820" transform="translate(9 6)" fill="#ecf4fa">
            <path d="M 45 88.5 C 39.12687683105469 88.5 33.43022537231445 87.35007476806641 28.06830024719238 85.08217620849609 C 22.88852500915527 82.89131164550781 18.23629951477051 79.75458526611328 14.2408504486084 75.75914764404297 C 10.24541282653809 71.76370239257812 7.108687400817871 67.11147308349609 4.917825222015381 61.93170166015625 C 2.649924993515015 56.56977462768555 1.5 50.87312316894531 1.5 45 C 1.5 39.12687683105469 2.649924993515015 33.43022537231445 4.917825222015381 28.06830024719238 C 7.108687400817871 22.88852500915527 10.24541282653809 18.23629951477051 14.2408504486084 14.2408504486084 C 18.23629951477051 10.24541282653809 22.88852500915527 7.108687400817871 28.06830024719238 4.917825222015381 C 33.43022537231445 2.649924993515015 39.12687683105469 1.5 45 1.5 C 50.87312316894531 1.5 56.56977462768555 2.649924993515015 61.93170166015625 4.917825222015381 C 67.11147308349609 7.108687400817871 71.76370239257812 10.24541282653809 75.75914764404297 14.2408504486084 C 79.75458526611328 18.23629951477051 82.89131164550781 22.88852500915527 85.08217620849609 28.06830024719238 C 87.35007476806641 33.43022537231445 88.5 39.12687683105469 88.5 45 C 88.5 50.87312316894531 87.35007476806641 56.56977462768555 85.08217620849609 61.93170166015625 C 82.89131164550781 67.11147308349609 79.75458526611328 71.76370239257812 75.75914764404297 75.75914764404297 C 71.76370239257812 79.75458526611328 67.11147308349609 82.89131164550781 61.93170166015625 85.08217620849609 C 56.56977462768555 87.35007476806641 50.87312316894531 88.5 45 88.5 Z" stroke="none"/>
            <path d="M 45 3 C 39.32871246337891 3 33.82865524291992 4.110054016113281 28.65262985229492 6.299339294433594 C 23.65165710449219 8.414573669433594 19.15968322753906 11.44334411621094 15.301513671875 15.301513671875 C 11.44334411621094 19.15968322753906 8.414573669433594 23.65165710449219 6.299339294433594 28.65262985229492 C 4.110054016113281 33.82865524291992 3 39.32871246337891 3 45 C 3 50.67128753662109 4.110054016113281 56.17134475708008 6.299339294433594 61.34737396240234 C 8.414573669433594 66.34834289550781 11.44334411621094 70.84031677246094 15.301513671875 74.698486328125 C 19.15968322753906 78.55665588378906 23.65165710449219 81.58542633056641 28.65262985229492 83.70066070556641 C 33.82865524291992 85.88994598388672 39.32871246337891 87 45 87 C 50.67128753662109 87 56.17134475708008 85.88994598388672 61.34737396240234 83.70066070556641 C 66.34834289550781 81.58542633056641 70.84031677246094 78.55665588378906 74.698486328125 74.698486328125 C 78.55665588378906 70.84031677246094 81.58542633056641 66.34834289550781 83.70066070556641 61.34737396240234 C 85.88994598388672 56.17134475708008 87 50.67128753662109 87 45 C 87 39.32871246337891 85.88994598388672 33.82865524291992 83.70066070556641 28.65262985229492 C 81.58542633056641 23.65165710449219 78.55665588378906 19.15968322753906 74.698486328125 15.301513671875 C 70.84031677246094 11.44334411621094 66.34834289550781 8.414573669433594 61.34737396240234 6.299339294433594 C 56.17134475708008 4.110054016113281 50.67128753662109 3 45 3 M 45 0 C 69.85281372070312 0 90 20.14718627929688 90 45 C 90 69.85281372070312 69.85281372070312 90 45 90 C 20.14718627929688 90 0 69.85281372070312 0 45 C 0 20.14718627929688 20.14718627929688 0 45 0 Z" stroke="none" fill="#2a5673"/>
          </g>
        </g>
        <g id="Group_1144604" data-name="Group 1144604" transform="translate(228.378 1170.381)">
          <path id="Path_979943" data-name="Path 979943" d="M278.381,134.3a2.491,2.491,0,0,0-2.495,2.495v2.075H272.4v-2.075a2.491,2.491,0,0,1,2.495-2.495Z" transform="translate(-244.102 -105.128)" fill="#648940"/>
          <path id="Path_979944" data-name="Path 979944" d="M326.794,136.795v2.075H306.5v-2.075a2.491,2.491,0,0,1,2.495-2.495h15.3A2.5,2.5,0,0,1,326.794,136.795Z" transform="translate(-274.715 -105.128)" fill="#84af5a"/>
          <path id="Path_979945" data-name="Path 979945" d="M278.291,200.449h-3.5a2.5,2.5,0,0,1-2.495-2.5V179h3.486v18.945A2.509,2.509,0,0,0,278.291,200.449Z" transform="translate(-244.012 -145.258)" fill="#d1d3d4"/>
          <path id="Path_979946" data-name="Path 979946" d="M326.794,179v18.945a2.509,2.509,0,0,1-2.5,2.5H308.995a2.494,2.494,0,0,1-2.495-2.5V179Z" transform="translate(-274.715 -145.258)" fill="#f1f2f2"/>
          <path id="Path_979947" data-name="Path 979947" d="M339.234,225.9a6.6,6.6,0,0,1-6.6,6.6c-8.762-.348-8.751-12.861,0-13.209A6.615,6.615,0,0,1,339.234,225.9Z" transform="translate(-292.278 -181.438)" fill="#84af5a"/>
          <g id="Group_1144602" data-name="Group 1144602" transform="translate(20.426 18.933)">
            <path id="Path_979948" data-name="Path 979948" d="M195.4,36.067a1.938,1.938,0,0,0,3.875,0A1.938,1.938,0,0,0,195.4,36.067Z" transform="translate(-195.4 -34.15)" fill="#84af5a"/>
            <path id="Path_979949" data-name="Path 979949" d="M195.4,171.467a1.938,1.938,0,0,0,3.875,0A1.938,1.938,0,0,0,195.4,171.467Z" transform="translate(-195.4 -155.707)" fill="#84af5a"/>
            <path id="Path_979950" data-name="Path 979950" d="M195.4,306.867a1.938,1.938,0,0,0,3.875,0A1.938,1.938,0,0,0,195.4,306.867Z" transform="translate(-195.4 -277.264)" fill="#84af5a"/>
            <path id="Path_979951" data-name="Path 979951" d="M195.4,442.334a1.938,1.938,0,0,0,3.875,0A1.938,1.938,0,0,0,195.4,442.334Z" transform="translate(-195.4 -398.889)" fill="#84af5a"/>
          </g>
          <path id="Path_979952" data-name="Path 979952" d="M20.9,64.2v1.513a.386.386,0,0,1-.389.378H5.878a.384.384,0,0,1-.378-.378V64.2a.377.377,0,0,0,.378.378h14.63A.374.374,0,0,0,20.9,64.2Z" transform="translate(-4.489 -42.195)" fill="#f79218"/>
          <path id="Path_979953" data-name="Path 979953" d="M20.9,23.378v3.844a.38.38,0,0,1-.389.378H5.878a.377.377,0,0,1-.378-.378V23.378A.377.377,0,0,1,5.878,23h14.63a.38.38,0,0,1,.389.378Z" transform="translate(-4.489 -5.207)" fill="#ffa918"/>
          <path id="Path_979954" data-name="Path 979954" d="M20.9,199.7v1.513a.386.386,0,0,1-.389.378H5.878a.384.384,0,0,1-.378-.378V199.7a.384.384,0,0,0,.378.378h14.63A.386.386,0,0,0,20.9,199.7Z" transform="translate(-4.489 -163.842)" fill="#f79218"/>
          <path id="Path_979955" data-name="Path 979955" d="M20.9,158.775v3.844a.386.386,0,0,1-.389.378H5.878a.384.384,0,0,1-.378-.378v-3.844a.384.384,0,0,1,.378-.378h14.63A.374.374,0,0,1,20.9,158.775Z" transform="translate(-4.489 -126.76)" fill="#ffa918"/>
          <path id="Path_979956" data-name="Path 979956" d="M20.9,335.1v1.513a.38.38,0,0,1-.389.378H5.878a.377.377,0,0,1-.378-.378V335.1a.384.384,0,0,0,.378.378h14.63A.38.38,0,0,0,20.9,335.1Z" transform="translate(-4.489 -285.399)" fill="#f79218"/>
          <path id="Path_979957" data-name="Path 979957" d="M20.9,294.178v3.844a.386.386,0,0,1-.389.378H5.878a.384.384,0,0,1-.378-.378v-3.844a.384.384,0,0,1,.378-.378h14.63A.386.386,0,0,1,20.9,294.178Z" transform="translate(-4.489 -248.321)" fill="#ffa918"/>
          <path id="Path_979958" data-name="Path 979958" d="M20.9,470.5v1.513a.386.386,0,0,1-.389.378H5.878a.384.384,0,0,1-.378-.378V470.5a.386.386,0,0,0,.378.388h14.63A.388.388,0,0,0,20.9,470.5Z" transform="translate(-4.489 -406.956)" fill="#f79218"/>
          <path id="Path_979959" data-name="Path 979959" d="M20.9,429.674v3.844a.388.388,0,0,1-.389.388H5.878a.386.386,0,0,1-.378-.388v-3.844a.384.384,0,0,1,.378-.378h14.63A.374.374,0,0,1,20.9,429.674Z" transform="translate(-4.489 -369.964)" fill="#ffa918"/>
          <g id="Group_1144603" data-name="Group 1144603" transform="translate(0.5 17.2)">
            <path id="Path_979960" data-name="Path 979960" d="M270.288,145.74h18.791a3.1,3.1,0,0,0,3.1-3.1v-21.02a3.094,3.094,0,0,0-3.1-3.088H287.77v-.542a.593.593,0,1,0-1.186,0v.542h-6.308v-.542a.593.593,0,1,0-1.186,0v.542h-6.308v-.542a.593.593,0,1,0-1.186,0v.542h-1.309a3.091,3.091,0,0,0-3.088,3.088v21.03A3.091,3.091,0,0,0,270.288,145.74ZM268.4,121.622a1.9,1.9,0,0,1,1.9-1.9h1.309v.889a.593.593,0,0,0,1.186,0v-.889H279.1v.889a.593.593,0,0,0,1.186,0v-.889h6.308v.889a.593.593,0,1,0,1.186,0v-.889h1.309a1.907,1.907,0,0,1,1.912,1.9v1.493H268.4Zm0,2.679H291v18.352a1.916,1.916,0,0,1-1.912,1.912h-18.8a1.913,1.913,0,0,1-1.9-1.912V124.3Z" transform="translate(-239.933 -107.156)" fill="#231f20"/>
            <path id="Path_979961" data-name="Path 979961" d="M327.9,228.209a7.208,7.208,0,0,0,7.2-7.2c-.4-9.549-14-9.549-14.395,0A7.2,7.2,0,0,0,327.9,228.209Zm0-13.2a6.006,6.006,0,1,1-6,6.012A6.021,6.021,0,0,1,327.9,215.01Z" transform="translate(-287.964 -193.745)" fill="#231f20"/>
            <path id="Path_979962" data-name="Path 979962" d="M385.89,246.977h2.638a.593.593,0,0,0,0-1.186h-2.045v-3.108a.593.593,0,0,0-1.186,0v3.7A.587.587,0,0,0,385.89,246.977Z" transform="translate(-345.957 -219.107)" fill="#231f20"/>
            <path id="Path_979963" data-name="Path 979963" d="M190.3,72.164a2.526,2.526,0,1,0,3.128-2.454V60.765a2.529,2.529,0,0,0,0-4.907V46.912a2.529,2.529,0,0,0,0-4.907V33.079a2.525,2.525,0,1,0-1.186,0v8.946a2.529,2.529,0,0,0,0,4.907v8.946a2.529,2.529,0,0,0,0,4.907v8.946A2.5,2.5,0,0,0,190.3,72.164Zm1.186-41.529a1.339,1.339,0,0,1,2.679,0A1.339,1.339,0,0,1,191.486,30.635Zm0,13.843a1.339,1.339,0,0,1,2.679,0A1.339,1.339,0,0,1,191.486,44.478Zm0,13.843a1.339,1.339,0,0,1,2.679,0A1.339,1.339,0,0,1,191.486,58.321Zm1.35,12.5a1.339,1.339,0,0,1,0,2.679A1.339,1.339,0,0,1,192.835,70.825Z" transform="translate(-170.895 -26.986)" fill="#231f20"/>
            <path id="Path_979964" data-name="Path 979964" d="M1.471,24.5H16.1a.971.971,0,0,0,.971-.971V18.171A.971.971,0,0,0,16.1,17.2H1.471a.971.971,0,0,0-.971.971v5.347A.973.973,0,0,0,1.471,24.5Zm.215-6.114H15.9v4.928H1.686Z" transform="translate(-0.5 -17.2)" fill="#231f20"/>
            <path id="Path_979965" data-name="Path 979965" d="M1.471,159.9H16.1a.971.971,0,0,0,.971-.971v-5.357a.971.971,0,0,0-.971-.971H1.471a.971.971,0,0,0-.971.971v5.357A.971.971,0,0,0,1.471,159.9Zm.215-6.114H15.9v4.928H1.686Z" transform="translate(-0.5 -138.757)" fill="#231f20"/>
            <path id="Path_979966" data-name="Path 979966" d="M1.471,295.3H16.1a.971.971,0,0,0,.971-.971v-5.357A.971.971,0,0,0,16.1,288H1.471a.971.971,0,0,0-.971.971v5.357A.964.964,0,0,0,1.471,295.3Zm.215-6.114H15.9v4.928H1.686Z" transform="translate(-0.5 -260.314)" fill="#231f20"/>
            <path id="Path_979967" data-name="Path 979967" d="M1.471,430.8H16.1a.971.971,0,0,0,.971-.971v-5.357a.971.971,0,0,0-.971-.971H1.471a.971.971,0,0,0-.971.971v5.357A.971.971,0,0,0,1.471,430.8Zm.215-6.124H15.9V429.6H1.686Z" transform="translate(-0.5 -381.961)" fill="#231f20"/>
            <path id="Path_979968" data-name="Path 979968" d="M44.89,47H36.783a.593.593,0,0,0,0,1.186H44.9A.593.593,0,0,0,44.89,47Z" transform="translate(-32.55 -43.953)" fill="#231f20"/>
            <path id="Path_979969" data-name="Path 979969" d="M44.89,182.5H36.783a.593.593,0,0,0,0,1.186H44.9A.593.593,0,0,0,44.89,182.5Z" transform="translate(-32.55 -165.6)" fill="#231f20"/>
            <path id="Path_979970" data-name="Path 979970" d="M44.89,317.9H36.783a.593.593,0,0,0,0,1.186H44.9A.593.593,0,0,0,44.89,317.9Z" transform="translate(-32.55 -287.157)" fill="#231f20"/>
            <path id="Path_979971" data-name="Path 979971" d="M44.89,453.3H36.783a.593.593,0,0,0,0,1.186H44.9A.593.593,0,0,0,44.89,453.3Z" transform="translate(-32.55 -408.714)" fill="#231f20"/>
          </g>
        </g>
      </g>
    </g>
  </g>
</svg>
