<svg xmlns="http://www.w3.org/2000/svg" xmlns:xlink="http://www.w3.org/1999/xlink" width="108" height="108" viewBox="0 0 108 108">
  <defs>
    <filter id="Fondo" x="0" y="0" width="108" height="108" filterUnits="userSpaceOnUse">
      <feOffset dy="3" input="SourceAlpha"/>
      <feGaussianBlur stdDeviation="3" result="blur"/>
      <feFlood flood-opacity="0.161"/>
      <feComposite operator="in" in2="blur"/>
      <feComposite in="SourceGraphic"/>
    </filter>
  </defs>
  <g id="Group_1144626" data-name="Group 1144626" transform="translate(-4246.499 -3239)">
    <g id="Group_1144475" data-name="Group 1144475">
      <g transform="matrix(1, 0, 0, 1, 4246.5, 3239)" filter="url(#Fondo)">
        <g id="Fondo-2" data-name="Fondo" transform="translate(9 6)" fill="#fffbe8">
          <path d="M 45 88.5 C 39.12687683105469 88.5 33.43022537231445 87.35007476806641 28.06830024719238 85.08217620849609 C 22.88852500915527 82.89131164550781 18.23629951477051 79.75458526611328 14.2408504486084 75.75914764404297 C 10.24541282653809 71.76370239257812 7.108687400817871 67.11147308349609 4.917825222015381 61.93170166015625 C 2.649924993515015 56.56977462768555 1.5 50.87312316894531 1.5 45 C 1.5 39.12687683105469 2.649924993515015 33.43022537231445 4.917825222015381 28.06830024719238 C 7.108687400817871 22.88852500915527 10.24541282653809 18.23629951477051 14.2408504486084 14.2408504486084 C 18.23629951477051 10.24541282653809 22.88852500915527 7.108687400817871 28.06830024719238 4.917825222015381 C 33.43022537231445 2.649924993515015 39.12687683105469 1.5 45 1.5 C 50.87312316894531 1.5 56.56977462768555 2.649924993515015 61.93170166015625 4.917825222015381 C 67.11147308349609 7.108687400817871 71.76370239257812 10.24541282653809 75.75914764404297 14.2408504486084 C 79.75458526611328 18.23629951477051 82.89131164550781 22.88852500915527 85.08217620849609 28.06830024719238 C 87.35007476806641 33.43022537231445 88.5 39.12687683105469 88.5 45 C 88.5 50.87312316894531 87.35007476806641 56.56977462768555 85.08217620849609 61.93170166015625 C 82.89131164550781 67.11147308349609 79.75458526611328 71.76370239257812 75.75914764404297 75.75914764404297 C 71.76370239257812 79.75458526611328 67.11147308349609 82.89131164550781 61.93170166015625 85.08217620849609 C 56.56977462768555 87.35007476806641 50.87312316894531 88.5 45 88.5 Z" stroke="none"/>
          <path d="M 45 3 C 39.32871246337891 3 33.82865524291992 4.110054016113281 28.65262985229492 6.299339294433594 C 23.65165710449219 8.414573669433594 19.15968322753906 11.44334411621094 15.301513671875 15.301513671875 C 11.44334411621094 19.15968322753906 8.414573669433594 23.65165710449219 6.299339294433594 28.65262985229492 C 4.110054016113281 33.82865524291992 3 39.32871246337891 3 45 C 3 50.67128753662109 4.110054016113281 56.17134475708008 6.299339294433594 61.34737396240234 C 8.414573669433594 66.34834289550781 11.44334411621094 70.84031677246094 15.301513671875 74.698486328125 C 19.15968322753906 78.55665588378906 23.65165710449219 81.58542633056641 28.65262985229492 83.70066070556641 C 33.82865524291992 85.88994598388672 39.32871246337891 87 45 87 C 50.67128753662109 87 56.17134475708008 85.88994598388672 61.34737396240234 83.70066070556641 C 66.34834289550781 81.58542633056641 70.84031677246094 78.55665588378906 74.698486328125 74.698486328125 C 78.55665588378906 70.84031677246094 81.58542633056641 66.34834289550781 83.70066070556641 61.34737396240234 C 85.88994598388672 56.17134475708008 87 50.67128753662109 87 45 C 87 39.32871246337891 85.88994598388672 33.82865524291992 83.70066070556641 28.65262985229492 C 81.58542633056641 23.65165710449219 78.55665588378906 19.15968322753906 74.698486328125 15.301513671875 C 70.84031677246094 11.44334411621094 66.34834289550781 8.414573669433594 61.34737396240234 6.299339294433594 C 56.17134475708008 4.110054016113281 50.67128753662109 3 45 3 M 45 0 C 69.85281372070312 0 90 20.14718627929688 90 45 C 90 69.85281372070312 69.85281372070312 90 45 90 C 20.14718627929688 90 0 69.85281372070312 0 45 C 0 20.14718627929688 20.14718627929688 0 45 0 Z" stroke="none" fill="#bca724"/>
        </g>
      </g>
      <g id="Group_1144474" data-name="Group 1144474" transform="translate(4272.851 3253.899)">
        <g id="Group_1144473" data-name="Group 1144473" transform="translate(0.811 8.978)">
          <path id="Path_979625" data-name="Path 979625" d="M188.563,324.372h6.983c2.278.683,4.253,2.017,4.253,3.554v9.12H184.311v-9.12C184.311,326.389,186.283,325.055,188.563,324.372Z" transform="translate(-165.216 -291.032)" fill="#ebd2ff" fill-rule="evenodd"/>
          <path id="Path_979626" data-name="Path 979626" d="M268.331,327.926v9.12h2.621v-9.12c0-1.537-1.975-2.872-4.253-3.554h-2.621C266.357,325.055,268.331,326.389,268.331,327.926Z" transform="translate(-236.369 -291.032)" fill="#d7bef0" fill-rule="evenodd"/>
          <path id="Path_979627" data-name="Path 979627" d="M94.281,432.507h4.127l3.374-.471,3.346.471h13.241l3.291-.646,3.426.646h4.13v6.319H94.281Z" transform="translate(-84.91 -386.912)" fill="#d09080" fill-rule="evenodd"/>
          <path id="Path_979628" data-name="Path 979628" d="M7.512,349.85V336.41a3.016,3.016,0,0,1,3.006-3.006h4.966c.086,0,.172,0,.254.009a2.311,2.311,0,0,1,2.063.9l4.041,5.352a.917.917,0,0,0,.827.41H27.73a2.3,2.3,0,1,1,0,4.6H21.01a2.3,2.3,0,0,1-1.834-.915l-.686-.906V351H8.66a1.419,1.419,0,0,1-1.148-1.151Z" transform="translate(-7.512 -299.087)" fill="#ff6978" fill-rule="evenodd"/>
          <path id="Path_979629" data-name="Path 979629" d="M318.494,349.85V336.41a3.016,3.016,0,0,0-3.009-3.006h-4.963q-.129,0-.257.009a2.311,2.311,0,0,0-2.063.9l-4.038,5.352a.931.931,0,0,1-.827.41h-5.061a2.3,2.3,0,1,0,0,4.6h6.717a2.3,2.3,0,0,0,1.837-.915l.683-.906V351h9.83A1.427,1.427,0,0,0,318.494,349.85Z" transform="translate(-264.817 -299.087)" fill="#ccf49f" fill-rule="evenodd"/>
          <path id="Path_979630" data-name="Path 979630" d="M203.276,89.016h13.189l3.337,3.337c.266.263.569.11.569-.239v-3.1a3.1,3.1,0,0,0,3.089-3.092v-7.8a3.1,3.1,0,0,0-3.089-3.089h-17.1a3.1,3.1,0,0,0-3.092,3.089v7.8a3.1,3.1,0,0,0,3.092,3.092Z" transform="translate(-179.375 -68.624)" fill="#ecf4ff" fill-rule="evenodd"/>
          <path id="Path_979631" data-name="Path 979631" d="M19.631,32.955H33.506a4.114,4.114,0,0,0,4.1-4.1V19.778a4.114,4.114,0,0,0-4.1-4.1H15.724a4.114,4.114,0,0,0-4.1,4.1v9.074a4.114,4.114,0,0,0,4.1,4.1v3.1a.32.32,0,0,0,.569.236Z" transform="translate(-11.178 -15.679)" fill="#ecf4ff" fill-rule="evenodd"/>
          <path id="Path_979632" data-name="Path 979632" d="M224.265,243.884a4.372,4.372,0,0,1-8.744,0V239.2a2.454,2.454,0,0,1,2.449-2.446h5.642a.585.585,0,0,1,.652.649Z" transform="translate(-193.056 -212.877)" fill="#ffcbbe" fill-rule="evenodd"/>
          <path id="Path_979633" data-name="Path 979633" d="M215.521,239.2v1.411h8.744V237.4a.585.585,0,0,0-.652-.649H217.97A2.454,2.454,0,0,0,215.521,239.2Z" transform="translate(-193.056 -212.876)" fill="#ffe5a0" fill-rule="evenodd"/>
          <path id="Path_979634" data-name="Path 979634" d="M17.858,243.884a4.372,4.372,0,0,0,8.744,0V239.2a2.454,2.454,0,0,0-2.449-2.446H20.3a2.453,2.453,0,0,0-2.446,2.446v4.684Z" transform="translate(-16.741 -212.877)" fill="#ffcbbe" fill-rule="evenodd"/>
          <path id="Path_979635" data-name="Path 979635" d="M421.954,243.884a4.37,4.37,0,1,1-8.741,0V239.2a2.451,2.451,0,0,1,2.446-2.446h3.848a2.451,2.451,0,0,1,2.446,2.446Z" transform="translate(-369.396 -212.877)" fill="#c68b87" fill-rule="evenodd"/>
          <path id="Path_979636" data-name="Path 979636" d="M447.212,264.086a4.384,4.384,0,0,1-4.369,4.372,4.448,4.448,0,0,1-1.313-.2,4.394,4.394,0,0,0,3.04-3.744,5.85,5.85,0,0,0,2.639-.272l0-4.837Z" transform="translate(-394.655 -233.079)" fill="#bd7d79" fill-rule="evenodd"/>
          <path id="Path_979637" data-name="Path 979637" d="M26.6,239.2v1.7a3.281,3.281,0,0,1-2.835-.254c-.459-.26-.539-.263-.594.159-.159,1.228-.713,4.617-5.309,3.23l-.006-4.837a2.453,2.453,0,0,1,2.446-2.446h3.848A2.454,2.454,0,0,1,26.6,239.2Z" transform="translate(-16.741 -212.876)" fill="#c68b87" fill-rule="evenodd"/>
          <path id="Path_979638" data-name="Path 979638" d="M413.212,239.2v1.7a3.276,3.276,0,0,0,2.832-.254c.462-.26.539-.263.594.159.159,1.228.713,4.617,5.312,3.23l0-4.837a2.449,2.449,0,0,0-2.446-2.446h-3.848A2.451,2.451,0,0,0,413.212,239.2Z" transform="translate(-369.395 -212.876)" fill="#477b9e" fill-rule="evenodd"/>
          <path id="Path_979639" data-name="Path 979639" d="M449.674,239.2v4.684a3.972,3.972,0,0,1-.021.426,5.85,5.85,0,0,0,2.639-.272l0-4.837a2.452,2.452,0,0,0-2.275-2.44,1.6,1.6,0,0,0-.171-.006h-2.621A2.451,2.451,0,0,1,449.674,239.2Z" transform="translate(-399.738 -212.876)" fill="#365e7d" fill-rule="evenodd"/>
          <path id="Path_979640" data-name="Path 979640" d="M49.268,276.982a4.39,4.39,0,0,1-3.062,4.17,4.369,4.369,0,0,0,5.682-4.17V274a3.237,3.237,0,0,1-2.621-.141v3.123Z" transform="translate(-42.027 -245.975)" fill="#f7beaf" fill-rule="evenodd"/>
          <path id="Path_979641" data-name="Path 979641" d="M51.875,236.753a2.454,2.454,0,0,1,2.449,2.446v1.561a3.237,3.237,0,0,0,2.621.141v-1.7a2.454,2.454,0,0,0-2.449-2.446Z" transform="translate(-47.084 -212.876)" fill="#bd7d79" fill-rule="evenodd"/>
          <path id="Path_979642" data-name="Path 979642" d="M246.929,275.743a4.39,4.39,0,0,1-3.061,4.17,4.369,4.369,0,0,0,5.682-4.17V272.47h-2.621v3.273Z" transform="translate(-218.341 -244.736)" fill="#f7beaf" fill-rule="evenodd"/>
          <path id="Path_979643" data-name="Path 979643" d="M266.829,237.4v3.208h2.621V237.4a.585.585,0,0,0-.652-.649h-2.621A.585.585,0,0,1,266.829,237.4Z" transform="translate(-238.241 -212.876)" fill="#f2ce7e" fill-rule="evenodd"/>
          <path id="Path_979644" data-name="Path 979644" d="M85.218,392.125a.175.175,0,0,0-.318.107v11.083h2.621v-8.14Z" transform="translate(-76.542 -351.401)" fill="#cf4351" fill-rule="evenodd"/>
          <path id="Path_979645" data-name="Path 979645" d="M470.744,336.572v13.44a1.427,1.427,0,0,1-1.151,1.151h2.621a1.427,1.427,0,0,0,1.151-1.151v-13.44a3.021,3.021,0,0,0-2.667-2.988,4.338,4.338,0,0,1-1.056.667A3.006,3.006,0,0,1,470.744,336.572Z" transform="translate(-419.687 -299.25)" fill="#b3e59f" fill-rule="evenodd"/>
          <path id="Path_979646" data-name="Path 979646" d="M200.5,86.615a3.1,3.1,0,0,0,3.058,2.654h13.189l3.337,3.337c.266.263.57.11.57-.239v-3.1a3.1,3.1,0,0,0,3.089-3.092v-7.8a3.1,3.1,0,0,0-2.651-3.058,2.957,2.957,0,0,1,.031.438v7.8a3.1,3.1,0,0,1-3.089,3.089h-17.1A2.94,2.94,0,0,1,200.5,86.615Z" transform="translate(-179.654 -68.877)" fill="#ddeafb" fill-rule="evenodd"/>
          <path id="Path_979647" data-name="Path 979647" d="M36.682,27.9a4.112,4.112,0,0,1-4.1,4.1H14.8a4.084,4.084,0,0,1-1.277-.205,4.118,4.118,0,0,0,3.9,2.826v3.1a.32.32,0,0,0,.569.236l3.337-3.337H35.2a4.114,4.114,0,0,0,4.1-4.1V21.447a4.123,4.123,0,0,0-2.826-3.9,4.113,4.113,0,0,1,.205,1.277V27.9Z" transform="translate(-12.873 -17.348)" fill="#ddeafb" fill-rule="evenodd"/>
          <path id="Path_979648" data-name="Path 979648" d="M378.571,437.843h2.621v6.319h-2.621Z" transform="translate(-338.496 -392.248)" fill="#be694f" fill-rule="evenodd"/>
        </g>
        <path id="Path_979649" data-name="Path 979649" d="M2.957,41.206a3.562,3.562,0,0,0,6.9-1.222V38a4.079,4.079,0,0,1-1.923-.312,6.627,6.627,0,0,1-.165.655A4.261,4.261,0,0,1,6.42,40.469a3.951,3.951,0,0,1-2.789.808,6.1,6.1,0,0,1-.674-.07ZM23.941,35.9h7.121V33.663H25.579A1.646,1.646,0,0,0,23.941,35.3Zm7.121,1.62H23.941v2.464a3.56,3.56,0,0,0,7.121,0V37.52Zm22.2,5.407a3.857,3.857,0,0,1,1.133.912A3.794,3.794,0,0,1,55.3,46.3v5.462a.81.81,0,0,1-1.62,0V46.3a2.187,2.187,0,0,0-.52-1.417,2.224,2.224,0,0,0-1.121-.71,5.154,5.154,0,0,1-6.166-.064,1.551,1.551,0,0,0-.478.135,1.483,1.483,0,0,0-.551.45l-4.35,5.762a.813.813,0,0,1-.646.325H34.271a1.492,1.492,0,1,0,0,2.985h6.659a1.456,1.456,0,0,0,.726-.156,4.8,4.8,0,0,0,1.234-1.381l2.881-3.812a.808.808,0,1,1,1.289.973l-2.74,3.631v7.06h9.359V55.43a.81.81,0,0,1,1.62,0v5.462a.807.807,0,0,1-.808.808H.811A.81.81,0,0,1,0,60.892V55.43a.81.81,0,0,1,1.619,0v4.65h9.362v-7.06L8.239,49.39a.809.809,0,0,1,1.292-.973l2.816,3.729c.257.34.514.683.771,1.025a1.49,1.49,0,0,0,.527.438,1.417,1.417,0,0,0,.677.156H21.03a1.492,1.492,0,1,0,0-2.985H15.452a.809.809,0,0,1-.646-.325l-4.35-5.762a1.5,1.5,0,0,0-1.029-.585,5.16,5.16,0,0,1-6.166.067,2.22,2.22,0,0,0-1.108.692A2.193,2.193,0,0,0,1.62,46.3v5.462a.81.81,0,0,1-1.62,0V46.3a3.805,3.805,0,0,1,.931-2.489,3.9,3.9,0,0,1,1.111-.885,5.137,5.137,0,0,1-.921-2.942V35.3a3.261,3.261,0,0,1,3.254-3.257H8.223A3.261,3.261,0,0,1,11.481,35.3v4.684a5.146,5.146,0,0,1-.839,2.82,3.136,3.136,0,0,1,1.105.915l4.106,5.437h3.242V45.872a3.378,3.378,0,0,1,1.292-2.486,8.511,8.511,0,0,1,2.333-1.411,5.143,5.143,0,0,1-.4-1.99V35.3a3.262,3.262,0,0,1,3.258-3.257h6.294a.813.813,0,0,1,.811.811v7.13a5.179,5.179,0,0,1-.358,1.889,8.815,8.815,0,0,1,2.5,1.439A3.432,3.432,0,0,1,36.2,45.872v3.285h3.242L43.55,43.72a3.1,3.1,0,0,1,1.108-.912,5.141,5.141,0,0,1-.842-2.823V35.3a3.261,3.261,0,0,1,3.257-3.257h3.848A3.261,3.261,0,0,1,54.18,35.3v4.684a5.16,5.16,0,0,1-.921,2.942Zm-.918-1.721a6.027,6.027,0,0,1-.674.07,3.948,3.948,0,0,1-2.786-.808,4.245,4.245,0,0,1-1.356-2.122,6.616,6.616,0,0,1-.162-.655A4.1,4.1,0,0,1,45.436,38v1.981a3.561,3.561,0,0,0,6.9,1.222Zm-6.9-4.825a2.64,2.64,0,0,0,2.011-.6.818.818,0,0,1,.527-.227.806.806,0,0,1,.845.768,6.448,6.448,0,0,0,.251,1.546,2.682,2.682,0,0,0,.82,1.338,2.429,2.429,0,0,0,1.7.453,5.831,5.831,0,0,0,.971-.141V35.3a1.652,1.652,0,0,0-1.638-1.638H47.074A1.652,1.652,0,0,0,45.436,35.3Zm-35.575,0V35.3a1.647,1.647,0,0,0-1.638-1.638H4.375A1.646,1.646,0,0,0,2.74,35.3v4.222a5.765,5.765,0,0,0,.967.141,2.43,2.43,0,0,0,1.7-.453,2.709,2.709,0,0,0,.824-1.338,6.3,6.3,0,0,0,.248-1.546.81.81,0,0,1,1.365-.548A2.641,2.641,0,0,0,9.861,36.382Zm13.725,6.986a7.037,7.037,0,0,0-2.125,1.222,1.848,1.848,0,0,0-.747,1.283v3.285h.315a3.112,3.112,0,0,1,2.731,4.608h7.776a3.116,3.116,0,0,1,2.734-4.608h.312V45.872a1.908,1.908,0,0,0-.8-1.332,7.532,7.532,0,0,0-2.29-1.258c-.1.125-.214.248-.328.361a5.162,5.162,0,0,1-7.32,0Q23.71,43.51,23.586,43.368ZM6.751,14.164a.81.81,0,0,1,0-1.619h15a.81.81,0,0,1,0,1.619Zm0,8.523a.811.811,0,0,1,0-1.623h7.5a.811.811,0,1,1,0,1.623Zm0-4.262a.81.81,0,0,1,0-1.62h15a.81.81,0,0,1,0,1.62Zm15.825,8.636a2.239,2.239,0,0,0,.524.827,2.264,2.264,0,0,0,1.613.67h4.761a.81.81,0,0,1,0,1.62H24.713a3.869,3.869,0,0,1-2.758-1.151,3.937,3.937,0,0,1-1.059-1.965H9.6L5.933,30.73a.812.812,0,0,1-1.387-.569V27a4.928,4.928,0,0,1-4.1-4.843V13.078A4.923,4.923,0,0,1,5.358,8.167H23.139a4.924,4.924,0,0,1,4.911,4.911v1.5H41.808a3.909,3.909,0,0,1,3.9,3.9v7.8a3.911,3.911,0,0,1-3.092,3.815v3.184a.808.808,0,0,1-1.381.573l-3.671-3.671H33.141a.81.81,0,1,1,0-1.62H37.9a.8.8,0,0,1,.576.242L41,31.321v-1.95a.811.811,0,0,1,.811-.811,2.289,2.289,0,0,0,2.281-2.281v-7.8A2.289,2.289,0,0,0,41.808,16.2H28.05v5.955a4.923,4.923,0,0,1-4.911,4.911h-.563ZM9.264,25.443H23.139a3.3,3.3,0,0,0,3.291-3.291V13.078a3.3,3.3,0,0,0-3.291-3.291H5.358a3.3,3.3,0,0,0-3.291,3.291v9.074a3.3,3.3,0,0,0,3.291,3.291.81.81,0,0,1,.808.811V28.2l2.526-2.523a.8.8,0,0,1,.573-.239ZM42.7,55.384H12.6v4.7H42.7v-4.7Z"/>
      </g>
    </g>
  </g>
</svg>
