<svg xmlns="http://www.w3.org/2000/svg" xmlns:xlink="http://www.w3.org/1999/xlink" width="108" height="108" viewBox="0 0 108 108">
  <defs>
    <filter id="Fondo" x="0" y="0" width="108" height="108" filterUnits="userSpaceOnUse">
      <feOffset dy="3" input="SourceAlpha"/>
      <feGaussianBlur stdDeviation="3" result="blur"/>
      <feFlood flood-opacity="0.161"/>
      <feComposite operator="in" in2="blur"/>
      <feComposite in="SourceGraphic"/>
    </filter>
  </defs>
  <g id="Group_1144625" data-name="Group 1144625" transform="translate(-1061.999 -3230)">
    <g id="Group_1144532" data-name="Group 1144532">
      <g transform="matrix(1, 0, 0, 1, 1062, 3230)" filter="url(#Fondo)">
        <g id="Fondo-2" data-name="Fondo" transform="translate(9 6)" fill="#fffbe8" stroke="#bca724" stroke-width="3">
          <circle cx="45" cy="45" r="45" stroke="none"/>
          <circle cx="45" cy="45" r="43.5" fill="none"/>
        </g>
      </g>
      <g id="Group_1144531" data-name="Group 1144531" transform="translate(1088.427 3255.427)">
        <g id="Group_1144529" data-name="Group 1144529" transform="translate(1.857 1.857)">
          <g id="Group_1144510" data-name="Group 1144510" transform="translate(0 6.858)">
            <path id="Path_979688" data-name="Path 979688" d="M2,10H48.288V35.716H2Z" transform="translate(-2 -10)" fill="#69d6f4"/>
          </g>
          <g id="Group_1144511" data-name="Group 1144511" transform="translate(0 32.573)">
            <path id="Path_979689" data-name="Path 979689" d="M32.859,47.629v-3.84a5.236,5.236,0,0,0-.54-2.306L31.573,40H2v8.572a1.719,1.719,0,0,0,1.714,1.714H33.6A5.076,5.076,0,0,1,32.859,47.629Z" transform="translate(-2 -40)" fill="#ccd1d9"/>
          </g>
          <g id="Group_1144512" data-name="Group 1144512">
            <path id="Path_979690" data-name="Path 979690" d="M46.574,2H3.714A1.719,1.719,0,0,0,2,3.714V8.858H29.43a1.719,1.719,0,0,1,1.714-1.714H48.288V3.714A1.719,1.719,0,0,0,46.574,2Z" transform="translate(-2 -2)" fill="#b4dd7f"/>
          </g>
          <g id="Group_1144513" data-name="Group 1144513" transform="translate(32.573 46.288)">
            <path id="Path_979691" data-name="Path 979691" d="M53.715,61.143H40a8.533,8.533,0,0,1,1.423-4.715L41.714,56H52l.291.429A8.533,8.533,0,0,1,53.715,61.143Z" transform="translate(-40 -56)" fill="#fcd770"/>
          </g>
          <g id="Group_1144514" data-name="Group 1144514" transform="translate(6.858 36.002)">
            <circle id="Ellipse_11626" data-name="Ellipse 11626" cx="2" cy="2" r="2" transform="translate(-0.142 -0.286)" fill="#ff826e"/>
          </g>
          <g id="Group_1144515" data-name="Group 1144515" transform="translate(4.295 26.187)">
            <path id="Path_979692" data-name="Path 979692" d="M21.582,36.365l1.526-3.806V32.55c.36.069.754.154,1.149.231a6.253,6.253,0,0,1,5.032,6.146v.009H7.01v-.017a6.26,6.26,0,0,1,5.032-6.138L13.2,32.55v.009l1.526,3.806,3.429-1.714Z" transform="translate(-7.01 -32.55)" fill="#ff826e"/>
          </g>
          <g id="Group_1144516" data-name="Group 1144516" transform="translate(15.438 25.707)">
            <path id="Path_979693" data-name="Path 979693" d="M24.965,32.479l-1.526,3.806L20.01,34.57,22.582,32V31.99s1.037.206,2.383.48Z" transform="translate(-20.01 -31.99)" fill="#fc6e51"/>
          </g>
          <g id="Group_1144517" data-name="Group 1144517" transform="translate(10.483 25.707)">
            <path id="Path_979694" data-name="Path 979694" d="M19.185,34.57l-3.429,1.714L14.23,32.479V32.47l2.383-.48V32Z" transform="translate(-14.23 -31.99)" fill="#fc6e51"/>
          </g>
          <g id="Group_1144518" data-name="Group 1144518" transform="translate(7.723 10.286)">
            <path id="Path_979695" data-name="Path 979695" d="M12.724,20.858a1.708,1.708,0,0,0-1.337.643l-.214-.866a5.055,5.055,0,0,1-.163-1.294A5.341,5.341,0,0,1,16.35,14H21.1a5.341,5.341,0,0,1,5.34,5.34,5.055,5.055,0,0,1-.163,1.294l-.214.866a1.708,1.708,0,0,0-1.337-.643H22.008a10.179,10.179,0,0,1-4.595-1.089l-.969-.48a1.387,1.387,0,0,0-2.006,1.243v.326Z" transform="translate(-11.01 -14)" fill="#656d78"/>
          </g>
          <g id="Group_1144519" data-name="Group 1144519" transform="translate(27.43 5.143)">
            <path id="Path_979696" data-name="Path 979696" d="M56.287,8H35.714A1.719,1.719,0,0,0,34,9.714V23.429a1.719,1.719,0,0,0,1.714,1.714H56.287A1.719,1.719,0,0,0,58,23.429V9.714A1.719,1.719,0,0,0,56.287,8Z" transform="translate(-34 -8)" fill="#ffeaa7"/>
          </g>
          <g id="Group_1144520" data-name="Group 1144520" transform="translate(34.288 8.572)">
            <path id="Path_979697" data-name="Path 979697" d="M51.523,15.9a1.394,1.394,0,0,1,0,2.486l-7.518,3.755A1.387,1.387,0,0,1,42,20.9V13.389a1.387,1.387,0,0,1,2.006-1.243Z" transform="translate(-42 -12)" fill="#ff826e"/>
          </g>
          <g id="Group_1144521" data-name="Group 1144521" transform="translate(29.145 18.858)">
            <path id="Path_979698" data-name="Path 979698" d="M51.429,34.286l1.714.429.42.1a1.707,1.707,0,0,1,1.294,1.663v8.863a5.123,5.123,0,0,1-1.123,3.206l-2.306,2.88H41.143l-2.306-2.88A4.786,4.786,0,0,1,38.46,48a5.076,5.076,0,0,1-.746-2.657V41.5a5.236,5.236,0,0,0-.54-2.306l-.746-1.483-.283-.566a1.387,1.387,0,0,1,1.243-2.006A3.746,3.746,0,0,1,41.143,38.9V25.714A1.719,1.719,0,0,1,42.858,24a1.727,1.727,0,0,1,1.714,1.714v6.858L48,33.429Z" transform="translate(-36 -24)" fill="#f0d0b4"/>
          </g>
          <g id="Group_1144522" data-name="Group 1144522" transform="translate(19.724 17.144)">
            <path id="Path_979699" data-name="Path 979699" d="M27.933,24.923a1.676,1.676,0,0,1-1.209.506H25.01V22h1.714a1.708,1.708,0,0,1,1.337.643,1.732,1.732,0,0,1,.377,1.071A1.711,1.711,0,0,1,27.933,24.923Z" transform="translate(-25.01 -22)" fill="#f0d0b4"/>
          </g>
          <g id="Group_1144523" data-name="Group 1144523" transform="translate(12.866 23.77)">
            <path id="Path_979700" data-name="Path 979700" d="M22.153,31.667v.009l-2.572,2.572L17.01,31.676v-.009L17.5,29.73a3.385,3.385,0,0,0,1.226.223h1.714a3.385,3.385,0,0,0,1.226-.223Z" transform="translate(-17.01 -29.73)" fill="#f0d0b4"/>
          </g>
          <g id="Group_1144524" data-name="Group 1144524" transform="translate(11.152 15.429)">
            <path id="Path_979701" data-name="Path 979701" d="M23.582,21.714v3.429a3.434,3.434,0,0,1-2.2,3.2,3.385,3.385,0,0,1-1.226.223H18.439a3.385,3.385,0,0,1-1.226-.223,3.434,3.434,0,0,1-2.2-3.2V21.389a1.387,1.387,0,0,1,2.006-1.243l.969.48a10.179,10.179,0,0,0,4.595,1.089Z" transform="translate(-15.01 -20)" fill="#f0d0b4"/>
          </g>
          <g id="Group_1144525" data-name="Group 1144525" transform="translate(7.723 17.144)">
            <path id="Path_979702" data-name="Path 979702" d="M14.439,25.42v.009H12.724a1.676,1.676,0,0,1-1.209-.506,1.711,1.711,0,0,1-.506-1.209,1.732,1.732,0,0,1,.377-1.071A1.708,1.708,0,0,1,12.724,22h1.714Z" transform="translate(-11.01 -22)" fill="#f0d0b4"/>
          </g>
          <g id="Group_1144526" data-name="Group 1144526" transform="translate(17.144 3.429)">
            <path id="Path_979703" data-name="Path 979703" d="M22,6h3.429V9.429H22Z" transform="translate(-22 -6)" fill="#e6e9ed"/>
          </g>
          <g id="Group_1144527" data-name="Group 1144527" transform="translate(10.286 3.429)">
            <path id="Path_979704" data-name="Path 979704" d="M14,6h3.429V9.429H14Z" transform="translate(-14 -6)" fill="#e6e9ed"/>
          </g>
          <g id="Group_1144528" data-name="Group 1144528" transform="translate(3.429 3.429)">
            <path id="Path_979705" data-name="Path 979705" d="M6,6H9.429V9.429H6Z" transform="translate(-6 -6)" fill="#e6e9ed"/>
          </g>
        </g>
        <g id="Group_1144530" data-name="Group 1144530" transform="translate(1 1)">
          <path id="Path_979706" data-name="Path 979706" d="M51.574,6.143H49V3.572A2.575,2.575,0,0,0,46.431,1H3.572A2.575,2.575,0,0,0,1,3.572V43a2.575,2.575,0,0,0,2.572,2.572H33.02c.054.075.1.158.154.231L35.086,48.2a9.316,9.316,0,0,0-1.513,5.093v.857H49v-.857A9.316,9.316,0,0,0,47.49,48.2L49.4,45.8a6.025,6.025,0,0,0,1.315-3.749V33.2A2.56,2.56,0,0,0,49,30.783V25h2.572a2.575,2.575,0,0,0,2.572-2.572V8.715A2.575,2.575,0,0,0,51.574,6.143Zm-48-3.429h42.86a.858.858,0,0,1,.857.857V6.143H31a2.568,2.568,0,0,0-2.414,1.714h-5.3V4.429H18.144V7.858H16.429V4.429H11.286V7.858H9.572V4.429H4.429V7.858H2.714V3.572a.858.858,0,0,1,.857-.857ZM37,19.329V11.816a.53.53,0,0,1,.766-.474L45.28,15.1a.529.529,0,0,1,0,.948L37.768,19.8A.544.544,0,0,1,37,19.329ZM35.288,32.056A4.566,4.566,0,0,0,32.389,31a2.158,2.158,0,0,0-2.206,2.572h-.951a7.135,7.135,0,0,0-5.664-6.141l-3-.6-.191-.763a4.285,4.285,0,0,0,1.974-2.781H23.3a2.575,2.575,0,0,0,2.572-2.572,2.538,2.538,0,0,0-.315-1.208l.129-.518a6.2,6.2,0,0,0-6.014-7.7H14.923a6.2,6.2,0,0,0-6.014,7.7l.129.519a2.547,2.547,0,0,0-.315,1.207,2.575,2.575,0,0,0,2.572,2.572h.945a4.283,4.283,0,0,0,1.974,2.78l-.191.763-3.007.6A7.136,7.136,0,0,0,5.35,33.572H2.714v-24H28.43V22.43A2.575,2.575,0,0,0,31,25h4.286ZM12.152,21.573h-.857a.857.857,0,0,1,0-1.714h.857Zm.07-3.429h-.927a2.518,2.518,0,0,0-.778.134A4.442,4.442,0,0,1,14.923,13h4.745a4.442,4.442,0,0,1,4.407,5.276,2.518,2.518,0,0,0-.778-.134H20.581a9.471,9.471,0,0,1-4.217-1l-.964-.483a2.267,2.267,0,0,0-1-.237,2.243,2.243,0,0,0-2.174,1.714Zm10.216,1.714H23.3a.857.857,0,1,1,0,1.714h-.857Zm-8.572-1.185a.53.53,0,0,1,.766-.474l.964.483a11.211,11.211,0,0,0,4.984,1.176h.143v2.563a2.575,2.575,0,0,1-2.572,2.572H16.438a2.575,2.575,0,0,1-2.572-2.572ZM20.155,28.5l.916.183-.8,1.995-1.532-.765Zm-3.717-1.79h1.714a4.21,4.21,0,0,0,.6-.061l.165.662L17.3,28.932l-1.624-1.624.165-.662a4.209,4.209,0,0,0,.6.061Zm-2,1.789,1.414,1.414-1.532.765-.8-2Zm-2.626.525,1.608,4.021L17.3,31.1l3.879,1.94,1.607-4.019.449.09a5.413,5.413,0,0,1,4.269,4.46H7.084a5.414,5.414,0,0,1,4.27-4.461ZM7.858,7.858H6.143V6.143H7.858Zm6.858,0H13V6.143h1.714Zm6.858,0H19.858V6.143h1.714Zm-18,36A.858.858,0,0,1,2.714,43V35.288H30.9l.506,1.012a4.309,4.309,0,0,1,.453,1.916v3.839a5.973,5.973,0,0,0,.292,1.8H3.572Zm31.764,8.572a7.616,7.616,0,0,1,1.234-3.378L36.6,49h9.369l.033.051a7.616,7.616,0,0,1,1.234,3.378ZM49,42.056a4.3,4.3,0,0,1-.939,2.677l-2.044,2.555H36.557l-2.044-2.555a4.3,4.3,0,0,1-.939-2.677V38.217a6.023,6.023,0,0,0-.633-2.683l-1.025-2.05a.531.531,0,0,1,.474-.767,2.9,2.9,0,0,1,2.9,2.9v3.959H37V22.43a.857.857,0,1,1,1.714,0V39.574h1.714V30.385l1.714.429v8.76H43.86V31.243l1.714.429v7.9h1.714V32.1l1.065.267A.857.857,0,0,1,49,33.2ZM47.288,30.332l-3.429-.857-1.714-.429-1.714-.429V25h6.858Zm5.143-7.9a.858.858,0,0,1-.857.857H40.431V22.43a2.554,2.554,0,0,0-.664-1.709l6.282-3.141a2.245,2.245,0,0,0,0-4.015L38.536,9.809a2.245,2.245,0,0,0-3.248,2.008v7.512a2.227,2.227,0,0,0,.581,1.493,2.546,2.546,0,0,0-.581,1.608v.857H31a.858.858,0,0,1-.857-.857V8.715A.858.858,0,0,1,31,7.858H51.574a.858.858,0,0,1,.857.857Z" transform="translate(-1 -1)"/>
          <path id="Path_979707" data-name="Path 979707" d="M11,43a2.568,2.568,0,0,0-2.414,1.714H5v1.714H8.586a2.557,2.557,0,0,0,4.828,0h17.3V44.714h-17.3A2.568,2.568,0,0,0,11,43Zm0,3.429a.857.857,0,1,1,.857-.857A.858.858,0,0,1,11,46.429Z" transform="translate(-1.571 -6.998)"/>
        </g>
      </g>
    </g>
  </g>
</svg>
