<svg xmlns="http://www.w3.org/2000/svg" xmlns:xlink="http://www.w3.org/1999/xlink" width="108" height="108" viewBox="0 0 108 108">
  <defs>
    <filter id="Fondo" x="0" y="0" width="108" height="108" filterUnits="userSpaceOnUse">
      <feOffset dy="3" input="SourceAlpha"/>
      <feGaussianBlur stdDeviation="3" result="blur"/>
      <feFlood flood-opacity="0.161"/>
      <feComposite operator="in" in2="blur"/>
      <feComposite in="SourceGraphic"/>
    </filter>
  </defs>
  <g id="Group_1144639" data-name="Group 1144639" transform="translate(-903.5 -6663)">
    <g id="Group_1144601" data-name="Group 1144601">
      <g transform="matrix(1, 0, 0, 1, 903.5, 6663)" filter="url(#Fondo)">
        <g id="Fondo-2" data-name="Fondo" transform="translate(9 6)" fill="#fffbe8">
          <path d="M 45 88.5 C 39.12687683105469 88.5 33.43022537231445 87.35007476806641 28.06830024719238 85.08217620849609 C 22.88852500915527 82.89131164550781 18.23629951477051 79.75458526611328 14.2408504486084 75.75914764404297 C 10.24541282653809 71.76370239257812 7.108687400817871 67.11147308349609 4.917825222015381 61.93170166015625 C 2.649924993515015 56.56977462768555 1.5 50.87312316894531 1.5 45 C 1.5 39.12687683105469 2.649924993515015 33.43022537231445 4.917825222015381 28.06830024719238 C 7.108687400817871 22.88852500915527 10.24541282653809 18.23629951477051 14.2408504486084 14.2408504486084 C 18.23629951477051 10.24541282653809 22.88852500915527 7.108687400817871 28.06830024719238 4.917825222015381 C 33.43022537231445 2.649924993515015 39.12687683105469 1.5 45 1.5 C 50.87312316894531 1.5 56.56977462768555 2.649924993515015 61.93170166015625 4.917825222015381 C 67.11147308349609 7.108687400817871 71.76370239257812 10.24541282653809 75.75914764404297 14.2408504486084 C 79.75458526611328 18.23629951477051 82.89131164550781 22.88852500915527 85.08217620849609 28.06830024719238 C 87.35007476806641 33.43022537231445 88.5 39.12687683105469 88.5 45 C 88.5 50.87312316894531 87.35007476806641 56.56977462768555 85.08217620849609 61.93170166015625 C 82.89131164550781 67.11147308349609 79.75458526611328 71.76370239257812 75.75914764404297 75.75914764404297 C 71.76370239257812 79.75458526611328 67.11147308349609 82.89131164550781 61.93170166015625 85.08217620849609 C 56.56977462768555 87.35007476806641 50.87312316894531 88.5 45 88.5 Z" stroke="none"/>
          <path d="M 45 3 C 39.32871246337891 3 33.82865524291992 4.110054016113281 28.65262985229492 6.299339294433594 C 23.65165710449219 8.414573669433594 19.15968322753906 11.44334411621094 15.301513671875 15.301513671875 C 11.44334411621094 19.15968322753906 8.414573669433594 23.65165710449219 6.299339294433594 28.65262985229492 C 4.110054016113281 33.82865524291992 3 39.32871246337891 3 45 C 3 50.67128753662109 4.110054016113281 56.17134475708008 6.299339294433594 61.34737396240234 C 8.414573669433594 66.34834289550781 11.44334411621094 70.84031677246094 15.301513671875 74.698486328125 C 19.15968322753906 78.55665588378906 23.65165710449219 81.58542633056641 28.65262985229492 83.70066070556641 C 33.82865524291992 85.88994598388672 39.32871246337891 87 45 87 C 50.67128753662109 87 56.17134475708008 85.88994598388672 61.34737396240234 83.70066070556641 C 66.34834289550781 81.58542633056641 70.84031677246094 78.55665588378906 74.698486328125 74.698486328125 C 78.55665588378906 70.84031677246094 81.58542633056641 66.34834289550781 83.70066070556641 61.34737396240234 C 85.88994598388672 56.17134475708008 87 50.67128753662109 87 45 C 87 39.32871246337891 85.88994598388672 33.82865524291992 83.70066070556641 28.65262985229492 C 81.58542633056641 23.65165710449219 78.55665588378906 19.15968322753906 74.698486328125 15.301513671875 C 70.84031677246094 11.44334411621094 66.34834289550781 8.414573669433594 61.34737396240234 6.299339294433594 C 56.17134475708008 4.110054016113281 50.67128753662109 3 45 3 M 45 0 C 69.85281372070312 0 90 20.14718627929688 90 45 C 90 69.85281372070312 69.85281372070312 90 45 90 C 20.14718627929688 90 0 69.85281372070312 0 45 C 0 20.14718627929688 20.14718627929688 0 45 0 Z" stroke="none" fill="#bca724"/>
        </g>
      </g>
      <g id="Group_1144600" data-name="Group 1144600" transform="translate(914.591 6672.091)">
        <path id="Path_979919" data-name="Path 979919" d="M72,166.045h1.727l1.727-2.591h1.727L78.909,160H72Z" transform="translate(-49.954 -128.454)" fill="#ffb0a1"/>
        <path id="Path_979920" data-name="Path 979920" d="M52.318,152v2.591l-1.727,1.727h-.864A1.727,1.727,0,0,1,48,154.591V152Z" transform="translate(-28.545 -121.318)" fill="#ff9178"/>
        <path id="Path_979921" data-name="Path 979921" d="M40.409,272h4.149a6.045,6.045,0,0,1,4.569,2.086l10.283,11.865v5.913H56.818L45.591,278.909v6.909h2.591v6.045H45.591v4.318H24V278.106A6.107,6.107,0,0,1,30.107,272h5.12" transform="translate(-7.136 -228.363)" fill="#548aff"/>
        <path id="Path_979922" data-name="Path 979922" d="M133.182,232v5.182a2.548,2.548,0,0,1-.149.864,2.591,2.591,0,0,1-5.033-.864V232Z" transform="translate(-99.909 -192.682)" fill="#ffceb6"/>
        <path id="Path_979923" data-name="Path 979923" d="M128,202.591v1.727a3.455,3.455,0,1,0,6.909,0V200h-4.318Z" transform="translate(-99.909 -164.136)" fill="#ffceb6"/>
        <path id="Path_979924" data-name="Path 979924" d="M156.318,171.455l.842-.421a1.6,1.6,0,0,0-.716-3.034h-.99L152,171.455Z" transform="translate(-121.318 -135.591)" fill="#c47220"/>
        <path id="Path_979925" data-name="Path 979925" d="M248,400h4a6.046,6.046,0,0,1,4.721,2.269l1.359,1.7a1.279,1.279,0,0,1-1,2.078h-.022a1.279,1.279,0,0,1-.767-.256l-3.114-2.335-3.455,2.591H248Z" transform="translate(-206.954 -342.545)" fill="#ffceb6"/>
        <path id="Path_979926" data-name="Path 979926" d="M200,456h15.546v3.455H201.727A1.727,1.727,0,0,1,200,457.727Z" transform="translate(-164.136 -392.5)" fill="#ffa100"/>
        <path id="Path_979927" data-name="Path 979927" d="M344,344h15.546v15.546H344Z" transform="translate(-292.591 -292.591)" fill="#ffc431"/>
        <circle id="Ellipse_11652" data-name="Ellipse 11652" cx="1.5" cy="1.5" r="1.5" transform="translate(57.909 57.909)" fill="#ffd873"/>
        <path id="Path_979928" data-name="Path 979928" d="M52.955,93.182v.864a1.727,1.727,0,0,1-1.727,1.727h-9.5A1.727,1.727,0,0,1,40,94.045v-.864A5.182,5.182,0,0,1,45.182,88h2.591A5.182,5.182,0,0,1,52.955,93.182Z" transform="translate(-21.409 -64.227)" fill="#ef5e3b"/>
        <rect id="Rectangle_405247" data-name="Rectangle 405247" width="23" height="26" rx="11.5" transform="translate(43.909 16.909)" fill="#ffc431"/>
        <path id="Path_979929" data-name="Path 979929" d="M328,96h12.091v3.455H328Z" transform="translate(-278.318 -71.364)" fill="#08d175"/>
        <path id="Path_979930" data-name="Path 979930" d="M328,128h9.5v3.455H328Z" transform="translate(-278.318 -99.909)" fill="#3cde8d"/>
        <path id="Path_979931" data-name="Path 979931" d="M328,64h6.909v3.455H328Z" transform="translate(-278.318 -42.818)" fill="#02c26a"/>
        <path id="Path_979932" data-name="Path 979932" d="M66.955,179H51.409a.864.864,0,0,0-.864.864v2.867l-7.9-9.119a6.905,6.905,0,0,0-5.221-2.384H35a4.3,4.3,0,0,0,.866-2.591v-3.784l.365-.182a2.465,2.465,0,0,0-1.1-4.67h-.99a.864.864,0,0,0-.611.253L27.48,166.3a.864.864,0,0,0-.253.611v4.318H22.971A6.978,6.978,0,0,0,16,178.2v18.075h1.727V182.789c.1.115.2.229.314.338l7.668,7.668a6.864,6.864,0,0,0,4.886,2.024H35v.864a2.594,2.594,0,0,0,2.591,2.591H66.955a.864.864,0,0,0,.864-.864V179.864a.864.864,0,0,0-.864-.864Zm-17.1,12.008-3.114-2.335a.863.863,0,0,0-1.036,0l-3.224,2.418h-.576v-4.318h3.14a5.156,5.156,0,0,1,4.046,1.945l1.359,1.7a.415.415,0,0,1-.324.674h-.022a.418.418,0,0,1-.249-.083Zm-2.768.083H45.364l.864-.648Zm-7.773-6.045V181.3l3.279,3.747ZM28.955,172.089a4.315,4.315,0,0,0,3.455.779v.087a1.727,1.727,0,1,1-3.455,0Zm5.54-10.361h.632a.738.738,0,0,1,.33,1.4l-.66.33H32.767Zm-5.54,5.54,2.085-2.085h3.1v3.455a2.591,2.591,0,0,1-5.182,0Zm-2.024,22.306-7.668-7.668a5.243,5.243,0,0,1,3.707-8.951h4.257a3.455,3.455,0,1,0,6.909,0h3.285a5.179,5.179,0,0,1,3.916,1.788l9.208,10.625v2.4l-.1-.127a6.875,6.875,0,0,0-5.4-2.593h-.157L39.1,178.431a.864.864,0,0,0-1.514.569v6.045H31.9l-5.792-5.793-1.221,1.221,6.045,6.045a.864.864,0,0,0,.611.253h8.636v4.318H30.6a5.148,5.148,0,0,1-3.664-1.518Zm9.8,4.109v-.864H50.546v1.727H37.591A.865.865,0,0,1,36.727,193.682Zm29.364.864H52.273V180.727H66.091Z" transform="translate(0 -128.455)"/>
        <path id="Path_979933" data-name="Path 979933" d="M394.591,397.182A2.591,2.591,0,1,0,392,394.591,2.591,2.591,0,0,0,394.591,397.182Zm0-3.455a.864.864,0,1,1-.864.864A.864.864,0,0,1,394.591,393.727Z" transform="translate(-335.409 -335.409)"/>
        <path id="Path_979934" data-name="Path 979934" d="M79.5,16H59.636a2.594,2.594,0,0,0-2.591,2.591v1.727H50.136a.864.864,0,0,0-.611.253l-4.372,4.372a6.031,6.031,0,0,0-4.517-2.034H38.045A6.052,6.052,0,0,0,32,28.955v.864a2.585,2.585,0,0,0,.864,1.929v1.525a2.594,2.594,0,0,0,2.591,2.591v1.727a.864.864,0,0,0,.864.864h1.727a.864.864,0,0,0,.719-.385l1.471-2.206H41.5a.864.864,0,0,0,.772-.477l1.489-2.977h.33a2.594,2.594,0,0,0,2.591-2.591v-.864a6.007,6.007,0,0,0-.56-2.537l4.372-4.372h6.551v19a2.594,2.594,0,0,0,2.591,2.591H79.5a2.594,2.594,0,0,0,2.591-2.591V18.591A2.594,2.594,0,0,0,79.5,16ZM34.591,33.273v-.864h2.591v.506L35.96,34.136h-.506a.865.865,0,0,1-.864-.864Zm6.375.864H39.773a.864.864,0,0,0-.719.385l-1.471,2.206h-.4v-1.37l1.474-1.474a.864.864,0,0,0,.253-.611v-.864H41.83Zm3.988-4.318a.865.865,0,0,1-.864.864H40.306l.864-1.727h2.057V27.227H40.994L39.52,25.753,38.3,26.974l1.287,1.287-1.21,2.42H34.591a.865.865,0,0,1-.864-.864v-.864a4.322,4.322,0,0,1,.087-.864H35.1l1.474,1.474,1.221-1.221-1.727-1.727a.864.864,0,0,0-.611-.253h-.861a4.314,4.314,0,0,1,3.452-1.727h2.591a4.323,4.323,0,0,1,4.318,4.318ZM80.364,41.046a.865.865,0,0,1-.864.864H59.636a.865.865,0,0,1-.864-.864V18.591a.865.865,0,0,1,.864-.864H79.5a.865.865,0,0,1,.864.864Z" transform="translate(-14.273)"/>
        <path id="Path_979935" data-name="Path 979935" d="M296,72h1.727v1.727H296Z" transform="translate(-249.773 -49.955)"/>
        <path id="Path_979936" data-name="Path 979936" d="M296,104h1.727v1.727H296Z" transform="translate(-249.773 -78.5)"/>
        <path id="Path_979937" data-name="Path 979937" d="M296,136h1.727v1.727H296Z" transform="translate(-249.773 -107.045)"/>
        <path id="Path_979938" data-name="Path 979938" d="M320.864,68.091h9.5a.864.864,0,0,0,.864-.864V64.636h1.727a.864.864,0,0,0,.864-.864V60.318a.864.864,0,0,0-.864-.864h-4.318V56.864a.864.864,0,0,0-.864-.864h-6.909a.864.864,0,0,0-.864.864V67.227A.864.864,0,0,0,320.864,68.091Zm8.636-1.727h-7.773V64.636H329.5Zm2.591-3.455H321.727V61.182h10.364Zm-10.364-5.182h5.182v1.727h-5.182Z" transform="translate(-271.182 -35.682)"/>
        <path id="Path_979939" data-name="Path 979939" d="M328,184h2.591v1.727H328Z" transform="translate(-278.318 -149.864)"/>
        <path id="Path_979940" data-name="Path 979940" d="M368,184h9.5v1.727H368Z" transform="translate(-314 -149.864)"/>
        <path id="Path_979941" data-name="Path 979941" d="M304,216h9.5v1.727H304Z" transform="translate(-256.909 -178.409)"/>
        <path id="Path_979942" data-name="Path 979942" d="M408,216h5.182v1.727H408Z" transform="translate(-349.682 -178.409)"/>
      </g>
    </g>
  </g>
</svg>
