<svg xmlns="http://www.w3.org/2000/svg" xmlns:xlink="http://www.w3.org/1999/xlink" width="108" height="108" viewBox="0 0 108 108">
  <defs>
    <filter id="Fondo" x="0" y="0" width="108" height="108" filterUnits="userSpaceOnUse">
      <feOffset dy="3" input="SourceAlpha"/>
      <feGaussianBlur stdDeviation="3" result="blur"/>
      <feFlood flood-opacity="0.161"/>
      <feComposite operator="in" in2="blur"/>
      <feComposite in="SourceGraphic"/>
    </filter>
  </defs>
  <g id="Group_1144632" data-name="Group 1144632" transform="translate(-1061.999 -5038)">
    <g id="Group_1144564" data-name="Group 1144564">
      <g transform="matrix(1, 0, 0, 1, 1062, 5038)" filter="url(#Fondo)">
        <g id="Fondo-2" data-name="Fondo" transform="translate(9 6)" fill="#fffbe8" stroke="#bca724" stroke-width="3">
          <circle cx="45" cy="45" r="45" stroke="none"/>
          <circle cx="45" cy="45" r="43.5" fill="none"/>
        </g>
      </g>
      <g id="Group_1144563" data-name="Group 1144563" transform="translate(1093.777 5063.777)">
        <g id="Group_1144561" data-name="Group 1144561" transform="translate(0.739 0.739)">
          <g id="Group_1144556" data-name="Group 1144556" transform="translate(30.514 30.253)">
            <path id="Path_979775" data-name="Path 979775" d="M317.2,314.546h5.375v4.726H317.2Z" transform="translate(-317.198 -314.546)" fill="#ffe177"/>
            <path id="Path_979776" data-name="Path 979776" d="M345.482,314.546h2.588v4.726h-2.588Z" transform="translate(-342.695 -314.546)" fill="#ffd15b"/>
            <path id="Path_979777" data-name="Path 979777" d="M317.2,362.513h5.375V376.5H317.2Z" transform="translate(-317.198 -357.787)" fill="#918291"/>
            <path id="Path_979778" data-name="Path 979778" d="M345.482,362.513h2.588V376.5h-2.588Z" transform="translate(-342.695 -357.787)" fill="#7a6d79"/>
          </g>
          <circle id="Ellipse_11634" data-name="Ellipse 11634" cx="15.767" cy="15.767" r="15.767" transform="translate(17.434 0)" fill="#918291"/>
          <path id="Path_979779" data-name="Path 979779" d="M243.227,44.086a15.768,15.768,0,0,1-22.2,22.2,15.768,15.768,0,1,0,22.2-22.2Z" transform="translate(-199.991 -40.481)" fill="#7a6d79"/>
          <circle id="Ellipse_11635" data-name="Ellipse 11635" cx="12.582" cy="12.582" r="12.582" transform="translate(20.619 3.185)" fill="#eaf6ff"/>
          <g id="Group_1144557" data-name="Group 1144557">
            <circle id="Ellipse_11636" data-name="Ellipse 11636" cx="3.185" cy="3.185" r="3.185" transform="translate(3.384)" fill="#fed2a4"/>
            <path id="Path_979780" data-name="Path 979780" d="M50.115,11.447a3.185,3.185,0,0,1-4.322,4.322,3.185,3.185,0,1,0,4.322-4.322Z" transform="translate(-42.02 -11.058)" fill="#ffbd86"/>
            <path id="Path_979781" data-name="Path 979781" d="M20.638,78.719H7.5V75.335a3.185,3.185,0,0,1,3.185-3.185h6.768a3.185,3.185,0,0,1,3.185,3.185Z" transform="translate(-7.5 -65.78)" fill="#00f2a6"/>
            <path id="Path_979782" data-name="Path 979782" d="M84.84,72.15H82.252a3.185,3.185,0,0,1,3.185,3.185v3.384h2.588V75.335A3.185,3.185,0,0,0,84.84,72.15Z" transform="translate(-74.887 -65.78)" fill="#05e39c"/>
          </g>
          <g id="Group_1144558" data-name="Group 1144558" transform="translate(0 18.015)">
            <circle id="Ellipse_11637" data-name="Ellipse 11637" cx="3.185" cy="3.185" r="3.185" transform="translate(3.384)" fill="#f6a96c"/>
            <path id="Path_979783" data-name="Path 979783" d="M50.115,194.286a3.185,3.185,0,0,1-4.322,4.322,3.185,3.185,0,1,0,4.322-4.322Z" transform="translate(-42.02 -193.897)" fill="#ea9b58"/>
            <path id="Path_979784" data-name="Path 979784" d="M20.638,261.559H7.5v-3.384a3.185,3.185,0,0,1,3.185-3.185h6.768a3.185,3.185,0,0,1,3.185,3.185Z" transform="translate(-7.5 -248.62)" fill="#62dbfb"/>
            <path id="Path_979785" data-name="Path 979785" d="M84.84,254.99H82.252a3.185,3.185,0,0,1,3.185,3.185v3.384h2.588v-3.384A3.185,3.185,0,0,0,84.84,254.99Z" transform="translate(-74.887 -248.62)" fill="#01d0fb"/>
          </g>
          <g id="Group_1144559" data-name="Group 1144559" transform="translate(26.632 9.298)">
            <circle id="Ellipse_11638" data-name="Ellipse 11638" cx="3.185" cy="3.185" r="3.185" transform="translate(3.384)" fill="#ca6e59"/>
            <path id="Path_979786" data-name="Path 979786" d="M320.416,105.814a3.185,3.185,0,0,1-4.322,4.322,3.185,3.185,0,1,0,4.322-4.322Z" transform="translate(-312.321 -105.425)" fill="#bb5d4c"/>
            <path id="Path_979787" data-name="Path 979787" d="M290.939,173.087H277.8V169.7a3.185,3.185,0,0,1,3.185-3.185h6.768a3.185,3.185,0,0,1,3.185,3.185v3.384Z" transform="translate(-277.801 -160.148)" fill="#fe5694"/>
            <path id="Path_979788" data-name="Path 979788" d="M355.141,166.518h-2.588a3.185,3.185,0,0,1,3.185,3.185v3.384h2.588V169.7A3.185,3.185,0,0,0,355.141,166.518Z" transform="translate(-345.188 -160.148)" fill="#fd3581"/>
          </g>
          <g id="Group_1144560" data-name="Group 1144560" transform="translate(0 36.03)">
            <circle id="Ellipse_11639" data-name="Ellipse 11639" cx="3.185" cy="3.185" r="3.185" transform="translate(3.384)" fill="#fed2a4"/>
            <path id="Path_979789" data-name="Path 979789" d="M50.115,377.125a3.186,3.186,0,0,1-4.322,4.322,3.185,3.185,0,1,0,4.322-4.322Z" transform="translate(-42.02 -376.736)" fill="#ffbd86"/>
            <path id="Path_979790" data-name="Path 979790" d="M20.638,444.4H7.5v-3.384a3.185,3.185,0,0,1,3.185-3.185h6.768a3.185,3.185,0,0,1,3.185,3.185Z" transform="translate(-7.5 -431.459)" fill="#cb97e7"/>
            <path id="Path_979791" data-name="Path 979791" d="M84.84,437.829H82.252a3.185,3.185,0,0,1,3.185,3.185V444.4h2.588v-3.384A3.185,3.185,0,0,0,84.84,437.829Z" transform="translate(-74.887 -431.459)" fill="#bd80e1"/>
          </g>
        </g>
        <g id="Group_1144562" data-name="Group 1144562" transform="translate(0 0)">
          <path id="Path_979792" data-name="Path 979792" d="M209.953,16.506a16.553,16.553,0,0,0-3.626-10.324.739.739,0,1,0-1.153.925,14.867,14.867,0,0,1,3.3,9.4A15.028,15.028,0,1,1,193.446,1.478a14.867,14.867,0,0,1,9.4,3.3.739.739,0,0,0,.925-1.153,16.507,16.507,0,1,0-13.75,29.028V49.707a.739.739,0,1,0,1.478,0V36.457h3.9v13.25a.739.739,0,1,0,1.478,0V32.654a16.534,16.534,0,0,0,13.08-16.148ZM195.395,34.979h-3.9V32.9a16.487,16.487,0,0,0,3.9,0v2.082Z" transform="translate(-159.506 0)"/>
          <path id="Path_979793" data-name="Path 979793" d="M222.59,32.325a13.321,13.321,0,1,0,13.321,13.321A13.336,13.336,0,0,0,222.59,32.325Zm0,25.165a11.843,11.843,0,1,1,11.843-11.843A11.857,11.857,0,0,1,222.59,57.49Z" transform="translate(-188.65 -29.14)"/>
          <path id="Path_979794" data-name="Path 979794" d="M.739,14.417H5.365a.739.739,0,0,0,0-1.478h-.7V11.488a.739.739,0,0,0-1.478,0v1.451H1.478V10.294A2.449,2.449,0,0,1,3.924,7.848h6.768a2.449,2.449,0,0,1,2.445,2.446v2.644H11.431V11.488a.739.739,0,1,0-1.478,0v1.451H8.823a.739.739,0,1,0,0,1.478h5.053a.739.739,0,0,0,.739-.739V10.294A3.928,3.928,0,0,0,10.692,6.37h-.32a3.923,3.923,0,1,0-6.13,0H3.924A3.929,3.929,0,0,0,0,10.294v3.383a.739.739,0,0,0,.739.739ZM7.308,1.478A2.446,2.446,0,1,1,4.862,3.924,2.449,2.449,0,0,1,7.308,1.478Z" transform="translate(0 0)"/>
          <path id="Path_979795" data-name="Path 979795" d="M10.692,189.21h-.32a3.924,3.924,0,1,0-6.128,0h-.32A3.928,3.928,0,0,0,0,193.134v3.384a.739.739,0,0,0,.739.739H13.877a.739.739,0,0,0,.739-.739v-3.384a3.928,3.928,0,0,0-3.924-3.924Zm-3.384-4.892a2.446,2.446,0,1,1-2.446,2.446,2.449,2.449,0,0,1,2.446-2.446Zm5.83,11.461H11.431v-1.451a.739.739,0,1,0-1.478,0v1.451H4.663v-1.451a.739.739,0,1,0-1.478,0v1.451H1.478v-2.645a2.449,2.449,0,0,1,2.446-2.446h6.768a2.449,2.449,0,0,1,2.446,2.446Z" transform="translate(0 -164.825)"/>
          <path id="Path_979796" data-name="Path 979796" d="M280.994,100.738h-.32a3.924,3.924,0,1,0-6.127,0h-.32a3.928,3.928,0,0,0-3.924,3.924v3.384a.739.739,0,0,0,.739.739h13.138a.739.739,0,0,0,.739-.739v-3.384A3.928,3.928,0,0,0,280.994,100.738Zm-3.384-4.892a2.446,2.446,0,1,1-2.446,2.446A2.449,2.449,0,0,1,277.61,95.846Zm5.83,11.461h-1.707v-1.451a.739.739,0,1,0-1.478,0v1.451h-5.29v-1.451a.739.739,0,0,0-1.478,0v1.451H271.78v-2.645a2.449,2.449,0,0,1,2.446-2.446h6.768a2.449,2.449,0,0,1,2.446,2.446Z" transform="translate(-243.67 -85.07)"/>
          <path id="Path_979797" data-name="Path 979797" d="M10.692,372.049h-.319a3.925,3.925,0,1,0-6.129,0h-.32A3.928,3.928,0,0,0,0,375.972v3.384a.739.739,0,0,0,.739.739H5.365a.739.739,0,1,0,0-1.478h-.7v-1.451a.739.739,0,0,0-1.478,0v1.451H1.478v-2.645a2.449,2.449,0,0,1,2.446-2.445h6.768a2.448,2.448,0,0,1,2.445,2.445v2.645H11.431v-1.451a.739.739,0,0,0-1.478,0v1.451H8.823a.739.739,0,1,0,0,1.478h5.054a.739.739,0,0,0,.739-.739v-3.384A3.928,3.928,0,0,0,10.692,372.049Zm-3.384-4.892A2.446,2.446,0,1,1,4.862,369.6a2.449,2.449,0,0,1,2.446-2.446Z" transform="translate(0 -329.649)"/>
        </g>
      </g>
    </g>
  </g>
</svg>
