<svg xmlns="http://www.w3.org/2000/svg" xmlns:xlink="http://www.w3.org/1999/xlink" width="108" height="108" viewBox="0 0 108 108">
  <defs>
    <filter id="Fondo" x="0" y="0" width="108" height="108" filterUnits="userSpaceOnUse">
      <feOffset dy="3" input="SourceAlpha"/>
      <feGaussianBlur stdDeviation="3" result="blur"/>
      <feFlood flood-opacity="0.161"/>
      <feComposite operator="in" in2="blur"/>
      <feComposite in="SourceGraphic"/>
    </filter>
  </defs>
  <g id="Group_1144633" data-name="Group 1144633" transform="translate(-4246.499 -5053)">
    <g id="Group_1144569" data-name="Group 1144569">
      <g transform="matrix(1, 0, 0, 1, 4246.5, 5053)" filter="url(#Fondo)">
        <g id="Fondo-2" data-name="Fondo" transform="translate(9 6)" fill="#fffbe8">
          <path d="M 45 88.5 C 39.12687683105469 88.5 33.43022537231445 87.35007476806641 28.06830024719238 85.08217620849609 C 22.88852500915527 82.89131164550781 18.23629951477051 79.75458526611328 14.2408504486084 75.75914764404297 C 10.24541282653809 71.76370239257812 7.108687400817871 67.11147308349609 4.917825222015381 61.93170166015625 C 2.649924993515015 56.56977462768555 1.5 50.87312316894531 1.5 45 C 1.5 39.12687683105469 2.649924993515015 33.43022537231445 4.917825222015381 28.06830024719238 C 7.108687400817871 22.88852500915527 10.24541282653809 18.23629951477051 14.2408504486084 14.2408504486084 C 18.23629951477051 10.24541282653809 22.88852500915527 7.108687400817871 28.06830024719238 4.917825222015381 C 33.43022537231445 2.649924993515015 39.12687683105469 1.5 45 1.5 C 50.87312316894531 1.5 56.56977462768555 2.649924993515015 61.93170166015625 4.917825222015381 C 67.11147308349609 7.108687400817871 71.76370239257812 10.24541282653809 75.75914764404297 14.2408504486084 C 79.75458526611328 18.23629951477051 82.89131164550781 22.88852500915527 85.08217620849609 28.06830024719238 C 87.35007476806641 33.43022537231445 88.5 39.12687683105469 88.5 45 C 88.5 50.87312316894531 87.35007476806641 56.56977462768555 85.08217620849609 61.93170166015625 C 82.89131164550781 67.11147308349609 79.75458526611328 71.76370239257812 75.75914764404297 75.75914764404297 C 71.76370239257812 79.75458526611328 67.11147308349609 82.89131164550781 61.93170166015625 85.08217620849609 C 56.56977462768555 87.35007476806641 50.87312316894531 88.5 45 88.5 Z" stroke="none"/>
          <path d="M 45 3 C 39.32871246337891 3 33.82865524291992 4.110054016113281 28.65262985229492 6.299339294433594 C 23.65165710449219 8.414573669433594 19.15968322753906 11.44334411621094 15.301513671875 15.301513671875 C 11.44334411621094 19.15968322753906 8.414573669433594 23.65165710449219 6.299339294433594 28.65262985229492 C 4.110054016113281 33.82865524291992 3 39.32871246337891 3 45 C 3 50.67128753662109 4.110054016113281 56.17134475708008 6.299339294433594 61.34737396240234 C 8.414573669433594 66.34834289550781 11.44334411621094 70.84031677246094 15.301513671875 74.698486328125 C 19.15968322753906 78.55665588378906 23.65165710449219 81.58542633056641 28.65262985229492 83.70066070556641 C 33.82865524291992 85.88994598388672 39.32871246337891 87 45 87 C 50.67128753662109 87 56.17134475708008 85.88994598388672 61.34737396240234 83.70066070556641 C 66.34834289550781 81.58542633056641 70.84031677246094 78.55665588378906 74.698486328125 74.698486328125 C 78.55665588378906 70.84031677246094 81.58542633056641 66.34834289550781 83.70066070556641 61.34737396240234 C 85.88994598388672 56.17134475708008 87 50.67128753662109 87 45 C 87 39.32871246337891 85.88994598388672 33.82865524291992 83.70066070556641 28.65262985229492 C 81.58542633056641 23.65165710449219 78.55665588378906 19.15968322753906 74.698486328125 15.301513671875 C 70.84031677246094 11.44334411621094 66.34834289550781 8.414573669433594 61.34737396240234 6.299339294433594 C 56.17134475708008 4.110054016113281 50.67128753662109 3 45 3 M 45 0 C 69.85281372070312 0 90 20.14718627929688 90 45 C 90 69.85281372070312 69.85281372070312 90 45 90 C 20.14718627929688 90 0 69.85281372070312 0 45 C 0 20.14718627929688 20.14718627929688 0 45 0 Z" stroke="none" fill="#bca724"/>
        </g>
      </g>
      <g id="Group_1144568" data-name="Group 1144568" transform="translate(4263.598 5072.088)">
        <g id="Group_1144566" data-name="Group 1144566" transform="translate(13.94 0.818)">
          <path id="Path_979798" data-name="Path 979798" d="M59.46,7.479h-7.73V7.459a5.709,5.709,0,0,0-11.419,0v.019H32.584a2.337,2.337,0,0,0-2.337,2.337v5.692H61.8V9.815A2.337,2.337,0,0,0,59.46,7.479Z" transform="translate(-23.061 -1.75)" fill="#894ba2"/>
          <path id="Path_979799" data-name="Path 979799" d="M53.608,23.61v3.541H22.058V23.61H14.872V67.842a3.739,3.739,0,0,0,3.739,3.739H57.055a3.739,3.739,0,0,0,3.739-3.739V23.61Z" transform="translate(-14.872 -13.393)" fill="#eee"/>
          <path id="Path_979800" data-name="Path 979800" d="M58.781,11.656A2.439,2.439,0,1,1,61.22,14.1,2.439,2.439,0,0,1,58.781,11.656Z" transform="translate(-38.259 -5.727)" fill="#ffdb56"/>
          <path id="Path_979801" data-name="Path 979801" d="M30.734,99.853h3.272v6.391H30.734Z" transform="translate(-23.321 -54.003)" fill="#00d9c0"/>
          <path id="Path_979802" data-name="Path 979802" d="M45.375,86.4h3.272V99.079H45.375Z" transform="translate(-31.119 -46.837)" fill="#ffdb56"/>
          <path id="Path_979803" data-name="Path 979803" d="M60.016,92.153h3.272v9.99H60.016Z" transform="translate(-38.917 -49.901)" fill="#3fc8f2"/>
          <path id="Path_979804" data-name="Path 979804" d="M75.77,45.378a8.208,8.208,0,1,0,5.8,14.012l-5.8-5.8Z" transform="translate(-42.935 -24.988)" fill="#ffdb56"/>
          <path id="Path_979805" data-name="Path 979805" d="M93.335,53.586a8.208,8.208,0,0,0-8.208-8.208v8.208l5.8,5.8a8.183,8.183,0,0,0,2.4-5.8Z" transform="translate(-52.292 -24.988)" fill="#3fc8f2"/>
          <g id="Group_1144565" data-name="Group 1144565" transform="translate(5.201 21.149)">
            <path id="Path_979806" data-name="Path 979806" d="M41.321,48.636h-14.5a.818.818,0,0,1,0-1.636h14.5a.818.818,0,0,1,0,1.636Z" transform="translate(-26 -47)" fill="#e0e0e0"/>
            <path id="Path_979807" data-name="Path 979807" d="M41.321,58.679h-14.5a.818.818,0,1,1,0-1.636h14.5a.818.818,0,1,1,0,1.636Z" transform="translate(-26 -52.349)" fill="#e0e0e0"/>
            <path id="Path_979808" data-name="Path 979808" d="M41.321,68.72h-14.5a.818.818,0,1,1,0-1.636h14.5a.818.818,0,0,1,0,1.636Z" transform="translate(-26 -57.697)" fill="#e0e0e0"/>
            <path id="Path_979809" data-name="Path 979809" d="M90.438,93.336H80.506a.818.818,0,0,1,0-1.636h9.932a.818.818,0,0,1,0,1.636Z" transform="translate(-54.596 -70.809)" fill="#e0e0e0"/>
            <path id="Path_979810" data-name="Path 979810" d="M90.438,103.374H80.506a.818.818,0,0,1,0-1.636h9.932a.818.818,0,0,1,0,1.636Z" transform="translate(-54.596 -76.155)" fill="#e0e0e0"/>
            <path id="Path_979811" data-name="Path 979811" d="M90.438,113.414H80.506a.818.818,0,0,1,0-1.636h9.932a.818.818,0,0,1,0,1.636Z" transform="translate(-54.596 -81.503)" fill="#e0e0e0"/>
          </g>
          <path id="Path_979812" data-name="Path 979812" d="M46.564,113.414H26.818a.818.818,0,1,1,0-1.636H46.564a.818.818,0,0,1,0,1.636Z" transform="translate(-20.799 -60.354)" fill="gray"/>
        </g>
        <g id="Group_1144567" data-name="Group 1144567" transform="translate(13.122 -0.001)">
          <path id="Path_979813" data-name="Path 979813" d="M49.881,31.072h1.052a.818.818,0,1,0,0-1.636H49.881a.818.818,0,0,0,0,1.636Z" transform="translate(-32.265 -15.678)"/>
          <path id="Path_979814" data-name="Path 979814" d="M59.862,10.216H53.493V8.883a3.158,3.158,0,0,0-3.155-3.155H43.38a6.528,6.528,0,0,0-12.957,0h-6.96a3.158,3.158,0,0,0-3.155,3.155v1.333H13.94a.818.818,0,0,0-.818.818V55.266a4.562,4.562,0,0,0,4.557,4.557H56.123a4.562,4.562,0,0,0,4.557-4.557V11.034a.818.818,0,0,0-.818-.818Zm-.818,45.05a2.924,2.924,0,0,1-2.921,2.921H17.679a2.924,2.924,0,0,1-2.921-2.921V11.852h5.551v2.723a.817.817,0,0,0,.818.818h4.5a.818.818,0,1,0,0-1.636H21.945V8.883a1.521,1.521,0,0,1,1.519-1.519h7.728a.818.818,0,0,0,.818-.818V6.509a4.891,4.891,0,1,1,9.783,0v.037a.818.818,0,0,0,.818.818h7.728a1.521,1.521,0,0,1,1.518,1.518v4.874H36.9a.818.818,0,0,0,0,1.636H52.676a.817.817,0,0,0,.818-.818V11.852h5.55Z" transform="translate(-13.122 0.001)"/>
          <path id="Path_979815" data-name="Path 979815" d="M60.288,13.981a3.257,3.257,0,1,0-3.257-3.257,3.257,3.257,0,0,0,3.257,3.257Zm0-4.878a1.621,1.621,0,1,1-1.621,1.621A1.621,1.621,0,0,1,60.288,9.1Z" transform="translate(-36.509 -3.977)"/>
          <path id="Path_979816" data-name="Path 979816" d="M46.564,97.329h-.577V88.157a.818.818,0,0,0-.818-.818H41.9a.817.817,0,0,0-.818.818v9.172H39.145V85.468a.818.818,0,0,0-.818-.818H35.055a.818.818,0,0,0-.818.818V97.329H32.3V91.755a.817.817,0,0,0-.818-.818H28.213a.818.818,0,0,0-.818.818v5.573h-.577a.818.818,0,0,0,0,1.636H46.564a.818.818,0,1,0,0-1.636Zm-17.534,0V92.572h1.636v4.755Zm6.843,0V86.286h1.636V97.329Zm6.843,0V88.973h1.636v8.354Z" transform="translate(-19.981 -45.087)"/>
          <path id="Path_979817" data-name="Path 979817" d="M74.837,43.628A9.027,9.027,0,0,0,70.21,60.406a.818.818,0,1,0,.841-1.4,7.391,7.391,0,0,1,2.97-13.694v7.343a.817.817,0,0,0,.24.579l5.19,5.194a7.334,7.334,0,0,1-4.616,1.618.818.818,0,0,0,0,1.636,9.026,9.026,0,1,0,0-18.052ZM80.609,57.27l-4.954-4.954V45.309A7.391,7.391,0,0,1,80.609,57.27Z" transform="translate(-41.184 -23.237)"/>
          <path id="Path_979818" data-name="Path 979818" d="M26.818,48.636h14.5a.818.818,0,0,0,0-1.636h-14.5a.818.818,0,0,0,0,1.636Z" transform="translate(-19.981 -25.033)"/>
          <path id="Path_979819" data-name="Path 979819" d="M26.818,58.679h14.5a.818.818,0,1,0,0-1.636h-14.5a.818.818,0,1,0,0,1.636Z" transform="translate(-19.981 -30.383)"/>
          <path id="Path_979820" data-name="Path 979820" d="M26.818,68.72h14.5a.818.818,0,1,0,0-1.636h-14.5a.818.818,0,0,0,0,1.636Z" transform="translate(-19.981 -35.731)"/>
          <path id="Path_979821" data-name="Path 979821" d="M90.438,91.7H80.506a.818.818,0,0,0,0,1.636h9.932a.818.818,0,0,0,0-1.636Z" transform="translate(-48.577 -48.842)"/>
          <path id="Path_979822" data-name="Path 979822" d="M90.438,101.738H80.506a.818.818,0,0,0,0,1.636h9.932a.818.818,0,0,0,0-1.636Z" transform="translate(-48.577 -54.188)"/>
          <path id="Path_979823" data-name="Path 979823" d="M90.438,111.778H80.506a.818.818,0,0,0,0,1.636h9.932a.818.818,0,0,0,0-1.636Z" transform="translate(-48.577 -59.536)"/>
        </g>
      </g>
    </g>
  </g>
</svg>
