<svg xmlns="http://www.w3.org/2000/svg" xmlns:xlink="http://www.w3.org/1999/xlink" width="108" height="108" viewBox="0 0 108 108">
  <defs>
    <filter id="Fondo" x="0" y="0" width="108" height="108" filterUnits="userSpaceOnUse">
      <feOffset dy="3" input="SourceAlpha"/>
      <feGaussianBlur stdDeviation="3" result="blur"/>
      <feFlood flood-opacity="0.161"/>
      <feComposite operator="in" in2="blur"/>
      <feComposite in="SourceGraphic"/>
    </filter>
  </defs>
  <g id="Group_1144630" data-name="Group 1144630" transform="translate(-431.999 -5038)">
    <g id="Group_1144552" data-name="Group 1144552">
      <g transform="matrix(1, 0, 0, 1, 432, 5038)" filter="url(#Fondo)">
        <g id="Fondo-2" data-name="Fondo" transform="translate(9 6)" fill="#fffbe8" stroke="#bca724" stroke-width="3">
          <circle cx="45" cy="45" r="45" stroke="none"/>
          <circle cx="45" cy="45" r="43.5" fill="none"/>
        </g>
      </g>
      <g id="Group_1144551" data-name="Group 1144551" transform="translate(463.032 5066.031)">
        <path id="Path_979735" data-name="Path 979735" d="M32.957,18.576V7.391H28.163a1.6,1.6,0,0,1-1.6-1.6V1H2.6A1.6,1.6,0,0,0,1,2.6V44.142a1.6,1.6,0,0,0,1.6,1.6H26.374a14.381,14.381,0,0,1,6.583-27.163ZM9.788,40.946a4.794,4.794,0,1,1,4.794-4.794A4.794,4.794,0,0,1,9.788,40.946Zm0-12.783a4.794,4.794,0,1,1,4.794-4.794A4.794,4.794,0,0,1,9.788,28.163Zm0-12.783a4.794,4.794,0,1,1,4.794-4.794A4.794,4.794,0,0,1,9.788,15.381Z" transform="translate(-0.201 -0.201)" fill="#f5f5f5"/>
        <path id="Path_979736" data-name="Path 979736" d="M31.6,7.391h2.4a1.6,1.6,0,0,1-1.6-1.6V1H30V5.794A1.6,1.6,0,0,0,31.6,7.391Z" transform="translate(-6.032 -0.201)" fill="#cfd8dc"/>
        <path id="Path_979737" data-name="Path 979737" d="M36.778,20.185V9h-2.4V20.185A14.381,14.381,0,0,0,27.8,47.348h2.4a14.381,14.381,0,0,1,6.583-27.163Z" transform="translate(-4.023 -1.81)" fill="#cfd8dc"/>
        <path id="Path_979738" data-name="Path 979738" d="M39.391,7.391H34.6a1.6,1.6,0,0,1-1.6-1.6V1Z" transform="translate(-6.636 -0.201)" fill="#9e9e9e"/>
        <circle id="Ellipse_11628" data-name="Ellipse 11628" cx="4.5" cy="4.5" r="4.5" transform="translate(4.968 5.969)" fill="#a4c400"/>
        <path id="Path_979739" data-name="Path 979739" d="M11.7,7a4.78,4.78,0,0,0-1.2.16,4.787,4.787,0,0,1,0,9.272A4.794,4.794,0,1,0,11.7,7Z" transform="translate(-2.111 -1.408)" fill="#90ac00"/>
        <ellipse id="Ellipse_11629" data-name="Ellipse 11629" cx="4.5" cy="5" rx="4.5" ry="5" transform="translate(4.968 17.969)" fill="#a4c400"/>
        <path id="Path_979740" data-name="Path 979740" d="M11.7,23a4.78,4.78,0,0,0-1.2.16,4.787,4.787,0,0,1,0,9.272A4.794,4.794,0,1,0,11.7,23Z" transform="translate(-2.111 -4.625)" fill="#90ac00"/>
        <ellipse id="Ellipse_11630" data-name="Ellipse 11630" cx="4.5" cy="5" rx="4.5" ry="5" transform="translate(4.968 30.969)" fill="#a4c400"/>
        <path id="Path_979741" data-name="Path 979741" d="M11.7,39a4.78,4.78,0,0,0-1.2.16,4.787,4.787,0,0,1,0,9.272A4.794,4.794,0,1,0,11.7,39Z" transform="translate(-2.111 -7.842)" fill="#90ac00"/>
        <path id="Path_979742" data-name="Path 979742" d="M37.381,23A14.381,14.381,0,1,0,51.761,37.381,14.381,14.381,0,0,0,37.381,23Z" transform="translate(-4.625 -4.625)" fill="#f44335"/>
        <path id="Path_979743" data-name="Path 979743" d="M40.689,23c-.4,0-.8.028-1.2.061A14.369,14.369,0,0,1,39.455,51.7c.407.034.818.058,1.234.058a14.381,14.381,0,1,0,0-28.761Z" transform="translate(-7.934 -4.625)" fill="#c81e1e"/>
        <path id="Path_979744" data-name="Path 979744" d="M46.381,34.19A7.218,7.218,0,0,1,40.788,41.2v.176a1.6,1.6,0,0,1-3.2,0v-1.6a1.6,1.6,0,0,1,1.6-1.6A3.995,3.995,0,1,0,35.2,34.19a1.6,1.6,0,1,1-3.2,0,7.19,7.19,0,0,1,14.381,0Z" transform="translate(-6.435 -5.429)" fill="#ffdc00"/>
        <circle id="Ellipse_11631" data-name="Ellipse 11631" cx="1.5" cy="1.5" r="1.5" transform="translate(30.968 40.969)" fill="#ffdc00"/>
        <path id="Path_979745" data-name="Path 979745" d="M10.592,6a5.592,5.592,0,1,0,5.592,5.592A5.592,5.592,0,0,0,10.592,6Zm0,9.587a3.995,3.995,0,1,1,3.995-3.995A3.995,3.995,0,0,1,10.592,15.587Z" transform="translate(-1.005 -1.206)"/>
        <path id="Path_979746" data-name="Path 979746" d="M10.592,22a5.592,5.592,0,1,0,5.592,5.592A5.592,5.592,0,0,0,10.592,22Zm0,9.587a3.995,3.995,0,1,1,3.995-3.995,3.995,3.995,0,0,1-3.995,3.995Z" transform="translate(-1.005 -4.424)"/>
        <path id="Path_979747" data-name="Path 979747" d="M10.592,38a5.592,5.592,0,1,0,5.592,5.592A5.592,5.592,0,0,0,10.592,38Zm0,9.587a3.995,3.995,0,1,1,3.995-3.995,3.995,3.995,0,0,1-3.995,3.995Z" transform="translate(-1.005 -7.641)"/>
        <path id="Path_979748" data-name="Path 979748" d="M12.355,10.32l-1.844,2.459-.148-.148a.8.8,0,1,0-1.13,1.13l.8.8a.8.8,0,0,0,.565.234h.057a.8.8,0,0,0,.582-.32l2.4-3.2a.8.8,0,1,0-1.278-.959Z" transform="translate(-1.81 -2.011)"/>
        <path id="Path_979749" data-name="Path 979749" d="M12.355,26.32l-1.844,2.459-.148-.148a.8.8,0,1,0-1.13,1.13l.8.8a.8.8,0,0,0,.565.234h.057a.8.8,0,0,0,.582-.32l2.4-3.2a.8.8,0,0,0-1.278-.959Z" transform="translate(-1.81 -5.228)"/>
        <path id="Path_979750" data-name="Path 979750" d="M12.355,42.32l-1.844,2.459-.148-.148a.8.8,0,1,0-1.13,1.13l.8.8a.8.8,0,0,0,.565.234h.057a.8.8,0,0,0,.582-.32l2.4-3.2a.8.8,0,0,0-1.278-.959Z" transform="translate(-1.81 -8.445)"/>
        <path id="Path_979751" data-name="Path 979751" d="M21.8,9.6h4.794a.8.8,0,1,0,0-1.6H21.8a.8.8,0,1,0,0,1.6Z" transform="translate(-4.223 -1.609)"/>
        <path id="Path_979752" data-name="Path 979752" d="M21.8,13.6H32.185a.8.8,0,0,0,0-1.6H21.8a.8.8,0,1,0,0,1.6Z" transform="translate(-4.223 -2.413)"/>
        <path id="Path_979753" data-name="Path 979753" d="M21.8,17.6h7.989a.8.8,0,1,0,0-1.6H21.8a.8.8,0,1,0,0,1.6Z" transform="translate(-4.223 -3.217)"/>
        <path id="Path_979754" data-name="Path 979754" d="M21.8,25.6h3.2a.8.8,0,0,0,0-1.6H21.8a.8.8,0,0,0,0,1.6Z" transform="translate(-4.223 -4.826)"/>
        <path id="Path_979755" data-name="Path 979755" d="M33.555,17.617V7.19a.8.8,0,0,0-.234-.565L26.929.234A.8.8,0,0,0,26.364,0H2.4A2.4,2.4,0,0,0,0,2.4V43.94a2.4,2.4,0,0,0,2.4,2.4H26.018a15.163,15.163,0,1,0,7.537-28.72ZM27.163,2.728l3.664,3.664H27.962a.8.8,0,0,1-.8-.8ZM2.4,44.739a.8.8,0,0,1-.8-.8V2.4a.8.8,0,0,1,.8-.8H25.565V5.592a2.4,2.4,0,0,0,2.4,2.4h3.995v9.628A15.118,15.118,0,0,0,21.716,22.37h-4.14a.8.8,0,0,0,0,1.6H20.4a15.036,15.036,0,0,0-1.01,1.6H17.576a.8.8,0,1,0,0,1.6h1.081a15.046,15.046,0,0,0-1.039,4.794h-.042a.8.8,0,1,0,0,1.6h.041a15.008,15.008,0,0,0,.168,1.6h-.209a.8.8,0,1,0,0,1.6h.551a14.91,14.91,0,0,0,.53,1.6H17.576a.8.8,0,1,0,0,1.6h1.816a15.259,15.259,0,0,0,4.081,4.794Zm30.359,1.6A13.582,13.582,0,1,1,46.337,32.756,13.582,13.582,0,0,1,32.756,46.337Z"/>
        <path id="Path_979756" data-name="Path 979756" d="M38.989,26A8,8,0,0,0,31,33.989a2.4,2.4,0,0,0,4.794,0,3.2,3.2,0,1,1,3.2,3.2,2.4,2.4,0,0,0-2.4,2.4v1.6a2.4,2.4,0,0,0,4.752.447A7.989,7.989,0,0,0,38.989,26Zm1.419,14.226a.8.8,0,0,0-.62.778v.176a.8.8,0,1,1-1.6,0v-1.6a.8.8,0,0,1,.8-.8A4.794,4.794,0,1,0,34.2,33.989a.8.8,0,0,1-1.6,0,6.391,6.391,0,1,1,7.81,6.236Z" transform="translate(-6.234 -5.228)"/>
        <path id="Path_979757" data-name="Path 979757" d="M40.4,50a2.4,2.4,0,1,0,2.4,2.4A2.4,2.4,0,0,0,40.4,50Zm0,3.2a.8.8,0,1,1,.8-.8A.8.8,0,0,1,40.4,53.2Z" transform="translate(-7.641 -10.054)"/>
      </g>
    </g>
  </g>
</svg>
