<svg xmlns="http://www.w3.org/2000/svg" xmlns:xlink="http://www.w3.org/1999/xlink" width="108" height="108" viewBox="0 0 108 108">
  <defs>
    <filter id="Fondo" x="0" y="0" width="108" height="108" filterUnits="userSpaceOnUse">
      <feOffset dy="3" input="SourceAlpha"/>
      <feGaussianBlur stdDeviation="3" result="blur"/>
      <feFlood flood-opacity="0.161"/>
      <feComposite operator="in" in2="blur"/>
      <feComposite in="SourceGraphic"/>
    </filter>
  </defs>
  <g id="Group_1144640" data-name="Group 1144640" transform="translate(-1218.5 -6663)">
    <g id="Group_1144599" data-name="Group 1144599">
      <g transform="matrix(1, 0, 0, 1, 1218.5, 6663)" filter="url(#Fondo)">
        <g id="Fondo-2" data-name="Fondo" transform="translate(9 6)" fill="#fffbe8">
          <path d="M 45 88.5 C 39.12687683105469 88.5 33.43022537231445 87.35007476806641 28.06830024719238 85.08217620849609 C 22.88852500915527 82.89131164550781 18.23629951477051 79.75458526611328 14.2408504486084 75.75914764404297 C 10.24541282653809 71.76370239257812 7.108687400817871 67.11147308349609 4.917825222015381 61.93170166015625 C 2.649924993515015 56.56977462768555 1.5 50.87312316894531 1.5 45 C 1.5 39.12687683105469 2.649924993515015 33.43022537231445 4.917825222015381 28.06830024719238 C 7.108687400817871 22.88852500915527 10.24541282653809 18.23629951477051 14.2408504486084 14.2408504486084 C 18.23629951477051 10.24541282653809 22.88852500915527 7.108687400817871 28.06830024719238 4.917825222015381 C 33.43022537231445 2.649924993515015 39.12687683105469 1.5 45 1.5 C 50.87312316894531 1.5 56.56977462768555 2.649924993515015 61.93170166015625 4.917825222015381 C 67.11147308349609 7.108687400817871 71.76370239257812 10.24541282653809 75.75914764404297 14.2408504486084 C 79.75458526611328 18.23629951477051 82.89131164550781 22.88852500915527 85.08217620849609 28.06830024719238 C 87.35007476806641 33.43022537231445 88.5 39.12687683105469 88.5 45 C 88.5 50.87312316894531 87.35007476806641 56.56977462768555 85.08217620849609 61.93170166015625 C 82.89131164550781 67.11147308349609 79.75458526611328 71.76370239257812 75.75914764404297 75.75914764404297 C 71.76370239257812 79.75458526611328 67.11147308349609 82.89131164550781 61.93170166015625 85.08217620849609 C 56.56977462768555 87.35007476806641 50.87312316894531 88.5 45 88.5 Z" stroke="none"/>
          <path d="M 45 3 C 39.32871246337891 3 33.82865524291992 4.110054016113281 28.65262985229492 6.299339294433594 C 23.65165710449219 8.414573669433594 19.15968322753906 11.44334411621094 15.301513671875 15.301513671875 C 11.44334411621094 19.15968322753906 8.414573669433594 23.65165710449219 6.299339294433594 28.65262985229492 C 4.110054016113281 33.82865524291992 3 39.32871246337891 3 45 C 3 50.67128753662109 4.110054016113281 56.17134475708008 6.299339294433594 61.34737396240234 C 8.414573669433594 66.34834289550781 11.44334411621094 70.84031677246094 15.301513671875 74.698486328125 C 19.15968322753906 78.55665588378906 23.65165710449219 81.58542633056641 28.65262985229492 83.70066070556641 C 33.82865524291992 85.88994598388672 39.32871246337891 87 45 87 C 50.67128753662109 87 56.17134475708008 85.88994598388672 61.34737396240234 83.70066070556641 C 66.34834289550781 81.58542633056641 70.84031677246094 78.55665588378906 74.698486328125 74.698486328125 C 78.55665588378906 70.84031677246094 81.58542633056641 66.34834289550781 83.70066070556641 61.34737396240234 C 85.88994598388672 56.17134475708008 87 50.67128753662109 87 45 C 87 39.32871246337891 85.88994598388672 33.82865524291992 83.70066070556641 28.65262985229492 C 81.58542633056641 23.65165710449219 78.55665588378906 19.15968322753906 74.698486328125 15.301513671875 C 70.84031677246094 11.44334411621094 66.34834289550781 8.414573669433594 61.34737396240234 6.299339294433594 C 56.17134475708008 4.110054016113281 50.67128753662109 3 45 3 M 45 0 C 69.85281372070312 0 90 20.14718627929688 90 45 C 90 69.85281372070312 69.85281372070312 90 45 90 C 20.14718627929688 90 0 69.85281372070312 0 45 C 0 20.14718627929688 20.14718627929688 0 45 0 Z" stroke="none" fill="#bca724"/>
        </g>
      </g>
      <g id="Group_1144598" data-name="Group 1144598" transform="translate(1246.201 6686.191)">
        <g id="Group_1144596" data-name="Group 1144596" transform="translate(0.77 2.452)">
          <path id="Path_979898" data-name="Path 979898" d="M60.038,416.525h9.34v8.751h-9.34Z" transform="translate(-54.641 -374.678)" fill="#fd4755" fill-rule="evenodd"/>
          <path id="Path_979899" data-name="Path 979899" d="M193.582,331.314h9.337v17.5h-9.337Z" transform="translate(-174.466 -298.221)" fill="#99e6fc" fill-rule="evenodd"/>
          <path id="Path_979900" data-name="Path 979900" d="M327.1,241.091h9.34v26.773H327.1Z" transform="translate(-294.265 -217.267)" fill="#9be69d" fill-rule="evenodd"/>
          <path id="Path_979901" data-name="Path 979901" d="M178.078,103.129a2.309,2.309,0,0,0,2.291,2.3h5.793a2.3,2.3,0,1,0,0-4.6h-4.189l-2.461.17A2.311,2.311,0,0,0,178.078,103.129Z" transform="translate(-160.554 -91.414)" fill="#ffcebf" fill-rule="evenodd"/>
          <path id="Path_979902" data-name="Path 979902" d="M180.241,145.6a2.3,2.3,0,1,0,0,4.6h5.075a2.3,2.3,0,1,0,0-4.6h-5.075Z" transform="translate(-160.426 -131.585)" fill="#ffcebf" fill-rule="evenodd"/>
          <path id="Path_979903" data-name="Path 979903" d="M192.821,190.369H191.2a2.041,2.041,0,1,0,0,4.081h2.608a2.049,2.049,0,0,0,.261-4.081h-1.25Z" transform="translate(-170.495 -171.756)" fill="#ffcebf" fill-rule="evenodd"/>
          <path id="Path_979904" data-name="Path 979904" d="M56.291,27.8a2.3,2.3,0,1,1,0-4.6,2.3,2.3,0,0,1-.856-4.43,2.514,2.514,0,0,0,3.593-2.262V13.477l0-1.205a2.869,2.869,0,0,0-3.089-3.09l-5.251,0c-2.546,0-6.486,1.817-9.143,6.726l-1.754,5.465,1.754,7.414c3.9,2.177,4.324,3.1,7.87,3.087h7.764a2.041,2.041,0,1,1,0-4.081Z" transform="translate(-36.476 -9.182)" fill="#ffdfcf" fill-rule="evenodd"/>
          <path id="Path_979905" data-name="Path 979905" d="M227.352,60.658a2.3,2.3,0,1,0,0-4.6H217.129v2.507A2.514,2.514,0,0,1,216,60.658Z" transform="translate(-194.578 -51.243)" fill="#ffcebf" fill-rule="evenodd"/>
          <path id="Path_979906" data-name="Path 979906" d="M227.352,60.658a2.3,2.3,0,0,0,.021-4.6,1.751,1.751,0,0,1-1.654,2.753h-8.6A2.515,2.515,0,0,1,216,60.658Z" transform="translate(-194.578 -51.243)" fill="#ffb09e" fill-rule="evenodd"/>
          <path id="Path_979907" data-name="Path 979907" d="M178.16,117.293a2.3,2.3,0,0,0,2.209,2.905h5.793a2.3,2.3,0,0,0,2.224-2.908c-.27.974-1.167.983-2.223.983h-5.779C179.348,118.273,178.436,118.285,178.16,117.293Z" transform="translate(-160.554 -106.184)" fill="#ffb09e" fill-rule="evenodd"/>
          <path id="Path_979908" data-name="Path 979908" d="M180.241,161.05a2.319,2.319,0,0,1-2.138-1.439,2.271,2.271,0,0,0-.167.86,2.309,2.309,0,0,0,2.306,2.3h5.074a2.309,2.309,0,0,0,2.306-2.3,2.273,2.273,0,0,0-.17-.86,2.312,2.312,0,0,1-2.135,1.439Z" transform="translate(-160.426 -144.157)" fill="#ffb09e" fill-rule="evenodd"/>
          <path id="Path_979909" data-name="Path 979909" d="M56.516,178.306a9.136,9.136,0,0,1-1.229-.629l-4.746-2.858-.725.761.725,1.831c3.9,2.177,4.324,3.1,7.87,3.087h7.764a2.049,2.049,0,0,1-2-1.638,2,2,0,0,1-.041-.4,1.3,1.3,0,0,1,.006-.152H56.516Z" transform="translate(-45.469 -157.803)" fill="#ffcebf" fill-rule="evenodd"/>
          <path id="Path_979910" data-name="Path 979910" d="M119.144,35.914c-.167,1.1-1.971,1.849-2.948,1.8-2.326-.123-1.939,2.437,0,2.1a5.116,5.116,0,0,0,4.919-4.558v3.028a2.517,2.517,0,0,0,2.32,2.5c0-.094-.205-.486-.2-.591a3.871,3.871,0,0,1-.144-1.129V35.77C123.089,32.944,119.681,32.362,119.144,35.914Z" transform="translate(-103.591 -30.954)" fill="#ffcebf" fill-rule="evenodd"/>
          <path id="Path_979911" data-name="Path 979911" d="M12.572,72.666V58.979a.9.9,0,0,0-.9-.9H7.5v15.48h4.174A.9.9,0,0,0,12.572,72.666Z" transform="translate(-7.5 -53.058)" fill="#99e6fc" fill-rule="evenodd"/>
          <path id="Path_979912" data-name="Path 979912" d="M11.674,165.6H7.5v3.631h4.174a.9.9,0,0,0,.9-.9v-3.631A.9.9,0,0,1,11.674,165.6Z" transform="translate(-7.5 -148.731)" fill="#62dbfb" fill-rule="evenodd"/>
          <path id="Path_979913" data-name="Path 979913" d="M383.177,241.091h3.579v26.773h-3.579Z" transform="translate(-344.583 -217.267)" fill="#6fd7a3" fill-rule="evenodd"/>
          <path id="Path_979914" data-name="Path 979914" d="M249.661,331.314h3.576v17.5h-3.576Z" transform="translate(-224.784 -298.221)" fill="#62dbfb" fill-rule="evenodd"/>
          <path id="Path_979915" data-name="Path 979915" d="M116.146,416.525h3.576v8.751h-3.576Z" transform="translate(-104.985 -374.678)" fill="#e94444" fill-rule="evenodd"/>
          <path id="Path_979916" data-name="Path 979916" d="M193.334,203.831h-2.241a1.921,1.921,0,0,1-1.886-1.085,1.666,1.666,0,0,0-.044.3,1.3,1.3,0,0,0-.006.152,2,2,0,0,0,.041.4,2.049,2.049,0,0,0,2,1.638h2.608a2.062,2.062,0,0,0,2.045-2.057,2.031,2.031,0,0,0-.158-.79,1.927,1.927,0,0,1-1.995,1.442h-.367Z" transform="translate(-170.495 -182.541)" fill="#ffb09e" fill-rule="evenodd"/>
        </g>
        <g id="Group_1144597" data-name="Group 1144597" transform="translate(0 1.682)">
          <path id="Path_979917" data-name="Path 979917" d="M6.2,23.152c.56.325,1.041.619,1.479.886,2.045,1.248,3.079,1.879,5.965,1.879H24.084A2.824,2.824,0,0,0,26.9,23.09a2.793,2.793,0,0,0-.365-1.381A3.064,3.064,0,0,0,28,16.775a3.061,3.061,0,0,0,1.046-4.137h4.5a3.07,3.07,0,1,0,0-6.14h-9.45V5.542A3.835,3.835,0,0,0,23.053,2.75a3.92,3.92,0,0,0-2.808-1.068h-.01l-5.251,0c-2.451,0-6.069,1.489-8.842,5.531a1.662,1.662,0,0,0-1.2-.51H.77a.77.77,0,1,0,0,1.541H4.945a.131.131,0,0,1,.127.128v5.158a.77.77,0,1,0,1.541,0V9.382c2.363-4.246,5.894-6.154,8.373-6.157l5.252,0h.006a2.458,2.458,0,0,1,1.721.618,2.31,2.31,0,0,1,.589,1.7V7.234c0,.012,0,.023,0,.035s0,.022,0,.034l0,2.474a1.734,1.734,0,0,1-.763,1.435l-.036.023a1.742,1.742,0,0,1-2.688-1.458V6.747a.77.77,0,1,0-1.541,0,3.779,3.779,0,0,1-1.3,2.573,4,4,0,0,1-2.81,1.216.77.77,0,1,0-.081,1.539,5.545,5.545,0,0,0,3.952-1.637q.136-.129.262-.263a3.265,3.265,0,0,0,.862,1.837,3.058,3.058,0,0,0,.149,4.446,3.063,3.063,0,0,0,.615,5.034,2.8,2.8,0,0,0-.208,2.884H13.71c-2.5.011-3.244-.444-5.226-1.654-.537-.328-1.137-.693-1.871-1.112v-4.5a.77.77,0,1,0-1.541,0v4.953a.129.129,0,0,1-.127.125H.77a.77.77,0,1,0,0,1.541H4.945A1.663,1.663,0,0,0,6.2,23.152ZM33.544,8.039a1.529,1.529,0,1,1,0,3.058H23.812a3.252,3.252,0,0,0,.28-1.321V8.039h9.451Zm-11.139,4.6h3.973a1.529,1.529,0,1,1,0,3.058H20.59a1.526,1.526,0,0,1-.823-2.812,3.284,3.284,0,0,0,2.638-.247Zm-1.821,4.6H25.66a1.529,1.529,0,1,1,0,3.058H20.585a1.529,1.529,0,1,1,0-3.058ZM20.2,23.108a1.274,1.274,0,0,1,1.274-1.272h2.806a1.274,1.274,0,0,1,1.076,1.254,1.3,1.3,0,0,1-1.274,1.286H21.477A1.273,1.273,0,0,1,20.2,23.108Z" transform="translate(0 -1.682)"/>
          <path id="Path_979918" data-name="Path 979918" d="M65.508,24.579a.77.77,0,0,0-.77.77v3.715H61.314a.77.77,0,0,0,0,1.541h3.424v7.21H61.314a.77.77,0,1,0,0,1.541h3.424v7.213H61.314a.77.77,0,1,0,0,1.541h3.424v7.21H61.314a.77.77,0,1,0,0,1.541h3.424v7.213H61.314a.77.77,0,1,0,0,1.541h3.424v7.324H57.394V46.821a.77.77,0,0,0-.77-.77h-9.34a.77.77,0,0,0-.77.77V58.191a.77.77,0,0,0,1.541,0v-10.6h7.8V72.824h-7.8V61.766a.77.77,0,0,0-1.541,0V72.938H43.675V56.09a.77.77,0,0,0-.77-.77H33.567a.77.77,0,0,0-.77.77V72.938H29.959V64.844a.77.77,0,0,0-.77-.77h-9.34a.77.77,0,0,0-.77.77v8.094h-3.06a.77.77,0,1,0,0,1.541H65.508a.77.77,0,0,0,.77-.77V25.349a.77.77,0,0,0-.77-.77ZM34.338,56.861h7.8V72.824h-7.8ZM20.619,65.614h7.8v7.21h-7.8Z" transform="translate(-13.681 -22.227)"/>
        </g>
      </g>
    </g>
  </g>
</svg>
