<svg xmlns="http://www.w3.org/2000/svg" xmlns:xlink="http://www.w3.org/1999/xlink" width="108" height="108" viewBox="0 0 108 108">
  <defs>
    <filter id="Fondo" x="0" y="0" width="108" height="108" filterUnits="userSpaceOnUse">
      <feOffset dy="3" input="SourceAlpha"/>
      <feGaussianBlur stdDeviation="3" result="blur"/>
      <feFlood flood-opacity="0.161"/>
      <feComposite operator="in" in2="blur"/>
      <feComposite in="SourceGraphic"/>
    </filter>
  </defs>
  <g id="Group_1144634" data-name="Group 1144634" transform="translate(-4591.499 -5053)">
    <g id="Group_1144577" data-name="Group 1144577">
      <g transform="matrix(1, 0, 0, 1, 4591.5, 5053)" filter="url(#Fondo)">
        <g id="Fondo-2" data-name="Fondo" transform="translate(9 6)" fill="#fffbe8">
          <path d="M 45 88.5 C 39.12687683105469 88.5 33.43022537231445 87.35007476806641 28.06830024719238 85.08217620849609 C 22.88852500915527 82.89131164550781 18.23629951477051 79.75458526611328 14.2408504486084 75.75914764404297 C 10.24541282653809 71.76370239257812 7.108687400817871 67.11147308349609 4.917825222015381 61.93170166015625 C 2.649924993515015 56.56977462768555 1.5 50.87312316894531 1.5 45 C 1.5 39.12687683105469 2.649924993515015 33.43022537231445 4.917825222015381 28.06830024719238 C 7.108687400817871 22.88852500915527 10.24541282653809 18.23629951477051 14.2408504486084 14.2408504486084 C 18.23629951477051 10.24541282653809 22.88852500915527 7.108687400817871 28.06830024719238 4.917825222015381 C 33.43022537231445 2.649924993515015 39.12687683105469 1.5 45 1.5 C 50.87312316894531 1.5 56.56977462768555 2.649924993515015 61.93170166015625 4.917825222015381 C 67.11147308349609 7.108687400817871 71.76370239257812 10.24541282653809 75.75914764404297 14.2408504486084 C 79.75458526611328 18.23629951477051 82.89131164550781 22.88852500915527 85.08217620849609 28.06830024719238 C 87.35007476806641 33.43022537231445 88.5 39.12687683105469 88.5 45 C 88.5 50.87312316894531 87.35007476806641 56.56977462768555 85.08217620849609 61.93170166015625 C 82.89131164550781 67.11147308349609 79.75458526611328 71.76370239257812 75.75914764404297 75.75914764404297 C 71.76370239257812 79.75458526611328 67.11147308349609 82.89131164550781 61.93170166015625 85.08217620849609 C 56.56977462768555 87.35007476806641 50.87312316894531 88.5 45 88.5 Z" stroke="none"/>
          <path d="M 45 3 C 39.32871246337891 3 33.82865524291992 4.110054016113281 28.65262985229492 6.299339294433594 C 23.65165710449219 8.414573669433594 19.15968322753906 11.44334411621094 15.301513671875 15.301513671875 C 11.44334411621094 19.15968322753906 8.414573669433594 23.65165710449219 6.299339294433594 28.65262985229492 C 4.110054016113281 33.82865524291992 3 39.32871246337891 3 45 C 3 50.67128753662109 4.110054016113281 56.17134475708008 6.299339294433594 61.34737396240234 C 8.414573669433594 66.34834289550781 11.44334411621094 70.84031677246094 15.301513671875 74.698486328125 C 19.15968322753906 78.55665588378906 23.65165710449219 81.58542633056641 28.65262985229492 83.70066070556641 C 33.82865524291992 85.88994598388672 39.32871246337891 87 45 87 C 50.67128753662109 87 56.17134475708008 85.88994598388672 61.34737396240234 83.70066070556641 C 66.34834289550781 81.58542633056641 70.84031677246094 78.55665588378906 74.698486328125 74.698486328125 C 78.55665588378906 70.84031677246094 81.58542633056641 66.34834289550781 83.70066070556641 61.34737396240234 C 85.88994598388672 56.17134475708008 87 50.67128753662109 87 45 C 87 39.32871246337891 85.88994598388672 33.82865524291992 83.70066070556641 28.65262985229492 C 81.58542633056641 23.65165710449219 78.55665588378906 19.15968322753906 74.698486328125 15.301513671875 C 70.84031677246094 11.44334411621094 66.34834289550781 8.414573669433594 61.34737396240234 6.299339294433594 C 56.17134475708008 4.110054016113281 50.67128753662109 3 45 3 M 45 0 C 69.85281372070312 0 90 20.14718627929688 90 45 C 90 69.85281372070312 69.85281372070312 90 45 90 C 20.14718627929688 90 0 69.85281372070312 0 45 C 0 20.14718627929688 20.14718627929688 0 45 0 Z" stroke="none" fill="#bca724"/>
        </g>
      </g>
      <g id="Group_1144576" data-name="Group 1144576" transform="translate(4654.302 5112.768)">
        <g id="Group_1144575" data-name="Group 1144575" transform="translate(-35.334 -35.298)">
          <g id="Group_1144570" data-name="Group 1144570" transform="translate(0 0)">
            <circle id="Ellipse_11640" data-name="Ellipse 11640" cx="10.142" cy="10.142" r="10.142" transform="translate(0 14.34) rotate(-45)" fill="#60b7ff"/>
            <circle id="Ellipse_11641" data-name="Ellipse 11641" cx="8.882" cy="8.882" r="8.882" transform="translate(1.782 14.34) rotate(-45)" fill="#8ac9fe"/>
            <path id="Path_979824" data-name="Path 979824" d="M112.608,112.62H122.75a10.137,10.137,0,0,1-5.07,8.784Z" transform="translate(-98.265 -98.28)" fill="#fd4755" fill-rule="evenodd"/>
            <path id="Path_979825" data-name="Path 979825" d="M112.608,112.62h8.882a8.878,8.878,0,0,1-4.44,7.693Z" transform="translate(-98.265 -98.28)" fill="#fe646f" fill-rule="evenodd"/>
            <path id="Path_979826" data-name="Path 979826" d="M122.75,18.152H112.608V8.01A10.142,10.142,0,0,1,122.75,18.152Z" transform="translate(-98.265 -3.811)" fill="#ffd064" fill-rule="evenodd"/>
            <path id="Path_979827" data-name="Path 979827" d="M121.49,29.89h-8.882V21.008A8.882,8.882,0,0,1,121.49,29.89Z" transform="translate(-98.265 -15.549)" fill="#ffe177" fill-rule="evenodd"/>
          </g>
          <g id="Group_1144571" data-name="Group 1144571" transform="translate(29.287 3.931)">
            <path id="Path_979828" data-name="Path 979828" d="M267.85,5.247h2.616a1.093,1.093,0,0,1,1.091,1.091V8.954a1.093,1.093,0,0,1-1.091,1.091H267.85a1.093,1.093,0,0,1-1.091-1.091V6.338A1.093,1.093,0,0,1,267.85,5.247Z" transform="translate(-266.759 -5.247)" fill="#8ac9fe" fill-rule="evenodd"/>
            <path id="Path_979829" data-name="Path 979829" d="M267.85,87.873h2.616a1.093,1.093,0,0,1,1.091,1.091V91.58a1.093,1.093,0,0,1-1.091,1.091H267.85a1.093,1.093,0,0,1-1.091-1.091V88.964A1.093,1.093,0,0,1,267.85,87.873Z" transform="translate(-266.759 -79.863)" fill="#ffe177" fill-rule="evenodd"/>
            <path id="Path_979830" data-name="Path 979830" d="M267.85,170.5h2.616a1.093,1.093,0,0,1,1.091,1.091V174.2a1.093,1.093,0,0,1-1.091,1.091H267.85a1.093,1.093,0,0,1-1.091-1.091v-2.616A1.093,1.093,0,0,1,267.85,170.5Z" transform="translate(-266.759 -154.477)" fill="#fe646f" fill-rule="evenodd"/>
          </g>
          <g id="Group_1144572" data-name="Group 1144572" transform="translate(4.201 30.049)">
            <path id="Path_979831" data-name="Path 979831" d="M197.981,348.361H201.2a.971.971,0,0,1,.969.969v13.151a.971.971,0,0,1-.969.969h-3.221a.971.971,0,0,1-.969-.969V349.33A.971.971,0,0,1,197.981,348.361Z" transform="translate(-178.688 -341.216)" fill="#ffe177" fill-rule="evenodd"/>
            <path id="Path_979832" data-name="Path 979832" d="M201.2,348.361a.971.971,0,0,1,.969.969v13.151a.971.971,0,0,1-.969.969h-3.221a.971.971,0,0,1-.969-.969h3.221a.971.971,0,0,0,.969-.969Z" transform="translate(-178.688 -341.216)" fill="#ffd064" fill-rule="evenodd"/>
            <path id="Path_979833" data-name="Path 979833" d="M294.566,348.361h3.22a.971.971,0,0,1,.969.969v13.151a.971.971,0,0,1-.969.969h-3.22a.971.971,0,0,1-.969-.969V349.33A.971.971,0,0,1,294.566,348.361Z" transform="translate(-265.909 -341.216)" fill="#fe646f" fill-rule="evenodd"/>
            <path id="Path_979834" data-name="Path 979834" d="M297.787,348.361a.971.971,0,0,1,.969.969v13.151a.971.971,0,0,1-.969.969h-3.22a.971.971,0,0,1-.969-.969h3.221a.971.971,0,0,0,.969-.969Z" transform="translate(-265.909 -341.216)" fill="#fd4755" fill-rule="evenodd"/>
            <path id="Path_979835" data-name="Path 979835" d="M8.969,321.361h3.22a.971.971,0,0,1,.969.97V338.1a.971.971,0,0,1-.969.969H8.969A.971.971,0,0,1,8,338.1V322.33A.971.971,0,0,1,8.969,321.361Z" transform="translate(-8 -316.833)" fill="#6cf5c2" fill-rule="evenodd"/>
            <path id="Path_979836" data-name="Path 979836" d="M12.19,321.361a.971.971,0,0,1,.969.97V338.1a.971.971,0,0,1-.969.969H8.969A.971.971,0,0,1,8,338.1h3.22a.971.971,0,0,0,.969-.969Z" transform="translate(-8 -316.833)" fill="#00e499" fill-rule="evenodd"/>
            <path id="Path_979837" data-name="Path 979837" d="M101.4,274.658h3.22a.971.971,0,0,1,.969.969v20.3a.971.971,0,0,1-.969.969H101.4a.971.971,0,0,1-.969-.969v-20.3A.971.971,0,0,1,101.4,274.658Z" transform="translate(-91.466 -274.658)" fill="#8ac9fe" fill-rule="evenodd"/>
            <path id="Path_979838" data-name="Path 979838" d="M104.616,274.658a.971.971,0,0,1,.969.969v20.3a.971.971,0,0,1-.969.969H101.4a.971.971,0,0,1-.969-.969h3.221a.971.971,0,0,0,.969-.969Z" transform="translate(-91.466 -274.658)" fill="#60b7ff" fill-rule="evenodd"/>
          </g>
          <g id="Group_1144573" data-name="Group 1144573" transform="translate(19.693 18.678)">
            <path id="Path_979839" data-name="Path 979839" d="M374.916,354.862a10.046,10.046,0,0,1-1.695,1.866l4.608,4.517,1.754-1.808Z" transform="translate(-353.306 -335.715)" fill="#a79ba7" fill-rule="evenodd"/>
            <path id="Path_979840" data-name="Path 979840" d="M386.351,354.541a1.157,1.157,0,0,1-.5.673l4.578,4.548.561-.614Z" transform="translate(-364.71 -335.425)" fill="#837683" fill-rule="evenodd"/>
            <path id="Path_979841" data-name="Path 979841" d="M415.348,398.27l1.98-2.04a.91.91,0,0,0-.019-1.284l-5.484-5.321a.911.911,0,0,0-1.284.019l-1.98,2.04a.91.91,0,0,0,.019,1.284l5.484,5.321A.91.91,0,0,0,415.348,398.27Z" transform="translate(-384.989 -366.877)" fill="#f1ba84" fill-rule="evenodd"/>
            <path id="Path_979842" data-name="Path 979842" d="M434.124,389.624l5.484,5.321a.91.91,0,0,1,.019,1.284l-1.98,2.04a.9.9,0,0,1-.246.18.911.911,0,0,0,1.057-.18l1.98-2.04a.91.91,0,0,0-.019-1.284l-5.484-5.321a.911.911,0,0,0-1.038-.16A.905.905,0,0,1,434.124,389.624Z" transform="translate(-408.1 -366.876)" fill="#e3a76f" fill-rule="evenodd"/>
            <circle id="Ellipse_11642" data-name="Ellipse 11642" cx="9.986" cy="9.986" r="9.986" transform="translate(0 14.12) rotate(-45)" fill="#eceff1"/>
            <path id="Path_979843" data-name="Path 979843" d="M309,200a9.986,9.986,0,0,1,0,19.972q-.244,0-.485-.012a9.986,9.986,0,0,0,0-19.948Q308.755,200,309,200Z" transform="translate(-294.872 -195.87)" fill="#d1d1d6" fill-rule="evenodd"/>
          </g>
          <g id="Group_1144574" data-name="Group 1144574" transform="translate(26.549 25.527)">
            <circle id="Ellipse_11643" data-name="Ellipse 11643" cx="7.271" cy="7.271" r="7.271" transform="translate(0 0)" fill="#837683"/>
            <path id="Path_979844" data-name="Path 979844" d="M313.47,235.276a7.272,7.272,0,0,1-6.625,7.243q.32.028.646.028a7.335,7.335,0,0,0,1.041-.074l.131-.02A7.272,7.272,0,0,0,307.491,228q-.327,0-.646.028A7.272,7.272,0,0,1,313.47,235.276Z" transform="translate(-300.22 -228.005)" fill="#685e68" fill-rule="evenodd"/>
            <path id="Path_979845" data-name="Path 979845" d="M266.485,310.239a5.08,5.08,0,0,0-5.049,4.531,7.247,7.247,0,0,0,5.049,2.039,7.336,7.336,0,0,0,1.041-.074,7.248,7.248,0,0,0,4.008-1.965A5.078,5.078,0,0,0,266.485,310.239Z" transform="translate(-259.214 -302.267)" fill="#8ac9fe" fill-rule="evenodd"/>
            <path id="Path_979846" data-name="Path 979846" d="M306.847,310.28c3.022.384,4.24,2.671,4.52,5.412a7.3,7.3,0,0,0,1.174-.921,5.078,5.078,0,0,0-5.048-4.531A5.132,5.132,0,0,0,306.847,310.28Z" transform="translate(-300.222 -302.267)" fill="#60b7ff" fill-rule="evenodd"/>
            <circle id="Ellipse_11644" data-name="Ellipse 11644" cx="2.567" cy="2.567" r="2.567" transform="translate(4.704 2.454)" fill="#f6dccd"/>
            <path id="Path_979847" data-name="Path 979847" d="M312.425,255.885a2.568,2.568,0,0,1-2.244,2.547,2.6,2.6,0,0,0,.323.02,2.567,2.567,0,1,0-.323-5.114A2.568,2.568,0,0,1,312.425,255.885Z" transform="translate(-303.233 -250.864)" fill="#f1cbbc" fill-rule="evenodd"/>
          </g>
        </g>
        <path id="Path_979848" data-name="Path 979848" d="M23.9,29.384a6.456,6.456,0,0,0,1.073,3.568,5.837,5.837,0,0,1,3.01-3.126,3.343,3.343,0,1,1,4.827,0,5.842,5.842,0,0,1,3.01,3.126A6.494,6.494,0,1,0,23.9,29.384Zm6.5-.075a1.792,1.792,0,1,1,1.792-1.792A1.794,1.794,0,0,1,30.391,29.309Zm0,6.57a6.465,6.465,0,0,1-4.218-1.562,4.3,4.3,0,0,1,8.437,0A6.468,6.468,0,0,1,30.391,35.879Zm-8.047-6.5a8.047,8.047,0,1,1,8.047,8.047A8.056,8.056,0,0,1,22.344,29.384Zm-8.227-1.973H10.509V48.095h3.609Zm1.551-.776V48.871a.776.776,0,0,1-.775.776H9.734a.776.776,0,0,1-.776-.776V26.635a.775.775,0,0,1,.776-.776h5.16a.776.776,0,0,1,.775.776ZM48.044,43.889,42.56,38.568a.127.127,0,0,0-.091-.036h0a.13.13,0,0,0-.093.039l-1.98,2.04a.136.136,0,0,0,0,.187l5.483,5.322a.137.137,0,0,0,.187,0l1.98-2.041A.136.136,0,0,0,48.044,43.889Zm-15.2-4.026a10.786,10.786,0,0,1-3.608.22V48.1h3.608Zm-9.364-2.237a10.838,10.838,0,0,1-2.523-3.07H19.872V48.1h3.608Zm-2.3-8.242a9.21,9.21,0,1,1,9.21,9.21A9.221,9.221,0,0,1,21.181,29.384ZM26.9,19.2a10.687,10.687,0,0,1,2.712-.553V17.581H26.9ZM38.655,36.269c-.207.248-.425.487-.653.715l1.931,1.873.675-.695ZM49.16,45.157,47.181,47.2a1.686,1.686,0,0,1-2.381.036l-5.483-5.321a1.687,1.687,0,0,1-.381-1.859L36.826,38a10.757,10.757,0,0,1-2.43,1.368v9.5a.776.776,0,0,1-.775.776h-5.16a.776.776,0,0,1-.776-.776V39.8a10.679,10.679,0,0,1-2.653-1.087V48.871a.776.776,0,0,1-.776.776H19.1a.776.776,0,0,1-.775-.776V33.781a.775.775,0,0,1,.775-.776h1.16a10.761,10.761,0,0,1,5.094-13.127V16.805a.776.776,0,0,1,.776-.776h4.263a.776.776,0,0,1,.776.776V18.65a10.679,10.679,0,0,1,4.088,1.134h6.1a.776.776,0,1,1,0,1.551H37.528A10.744,10.744,0,0,1,39.57,35l2.2,2.135a1.688,1.688,0,0,1,1.87.323l5.484,5.322a1.685,1.685,0,0,1,.036,2.38Zm-44-13.218H1.548V48.095H5.157Zm1.551-.775V48.871a.776.776,0,0,1-.776.776H.773A.776.776,0,0,1,0,48.871V31.163a.776.776,0,0,1,.776-.776h5.16a.775.775,0,0,1,.776.776ZM26.9,12.282h2.712V9.571H26.9Zm-1.551.776V8.795a.775.775,0,0,1,.776-.775h4.263a.775.775,0,0,1,.776.775v4.263a.776.776,0,0,1-.776.776H26.127A.776.776,0,0,1,25.351,13.058Zm8.5.268h7.5a.776.776,0,1,0,0-1.551h-7.5a.776.776,0,0,0,0,1.551Zm0-3.247h15a.776.776,0,0,0,0-1.551h-15a.776.776,0,0,0,0,1.551ZM26.9,4.271h2.712V1.56H26.9Zm-1.551.776V.785a.775.775,0,0,1,.776-.776h4.263a.776.776,0,0,1,.776.776V5.047a.775.775,0,0,1-.776.776H26.127A.776.776,0,0,1,25.351,5.047Zm8.5.268h7.5a.775.775,0,1,0,0-1.551h-7.5a.775.775,0,0,0,0,1.551Zm0-3.247h15a.776.776,0,1,0,0-1.551h-15a.776.776,0,0,0,0,1.551ZM1.548,10.926a9.365,9.365,0,0,0,13.427,8.439l-4.73-8.046a.782.782,0,0,1-.107-.393V1.592a9.379,9.379,0,0,0-8.591,9.334ZM11.69,1.592a9.383,9.383,0,0,1,8.559,8.562l-8.559,0Zm8.558,10.114-7.978,0,4.042,6.874a9.367,9.367,0,0,0,3.936-6.871ZM0,10.926A10.917,10.917,0,1,0,10.915.009,10.93,10.93,0,0,0,0,10.926ZM33.08,17.313a.775.775,0,0,0,.775.775h15a.775.775,0,1,0,0-1.551h-15A.775.775,0,0,0,33.08,17.313Z" transform="translate(-31.906 -31.884)" fill-rule="evenodd"/>
      </g>
    </g>
  </g>
</svg>
