<svg xmlns="http://www.w3.org/2000/svg" xmlns:xlink="http://www.w3.org/1999/xlink" width="108" height="108" viewBox="0 0 108 108">
  <defs>
    <filter id="Fondo" x="0" y="0" width="108" height="108" filterUnits="userSpaceOnUse">
      <feOffset dy="3" input="SourceAlpha"/>
      <feGaussianBlur stdDeviation="3" result="blur"/>
      <feFlood flood-opacity="0.161"/>
      <feComposite operator="in" in2="blur"/>
      <feComposite in="SourceGraphic"/>
    </filter>
  </defs>
  <g id="Group_1144631" data-name="Group 1144631" transform="translate(-746.999 -5038)">
    <g id="Group_1144555" data-name="Group 1144555">
      <g transform="matrix(1, 0, 0, 1, 747, 5038)" filter="url(#Fondo)">
        <g id="Fondo-2" data-name="Fondo" transform="translate(9 6)" fill="#fffbe8" stroke="#bca724" stroke-width="3">
          <circle cx="45" cy="45" r="45" stroke="none"/>
          <circle cx="45" cy="45" r="43.5" fill="none"/>
        </g>
      </g>
      <g id="Group_1144554" data-name="Group 1144554" transform="translate(771.27 5061.804)">
        <path id="Path_979758" data-name="Path 979758" d="M18.437,28.355l4.109-2.739H54.9a2.773,2.773,0,0,0,2.773-2.773V6.206A2.773,2.773,0,0,0,54.9,3.433H19.773A2.773,2.773,0,0,0,17,6.206v21.38a.924.924,0,0,0,1.437.769Z" transform="translate(-1.136 -0.076)" fill="#e6f3ff"/>
        <circle id="Ellipse_11632" data-name="Ellipse 11632" cx="7.394" cy="7.394" r="7.394" transform="translate(36.661 7.054)" fill="#4aa5ff"/>
        <path id="Path_979759" data-name="Path 979759" d="M42.232,58.355l-4.109-2.739H5.773A2.773,2.773,0,0,1,3,52.843V36.206a2.773,2.773,0,0,1,2.773-2.773H40.9a2.773,2.773,0,0,1,2.773,2.773v21.38a.924.924,0,0,1-1.437.769Z" transform="translate(-0.076 -2.347)" fill="#4aa5ff"/>
        <ellipse id="Ellipse_11633" data-name="Ellipse 11633" cx="7.5" cy="7" rx="7.5" ry="7" transform="translate(24.73 35.196)" fill="#e6f3ff"/>
        <path id="Path_979760" data-name="Path 979760" d="M32,45.282l1.849,1.849,3.7-3.7" transform="translate(-2.271 -3.104)" fill="#e6f3ff"/>
        <path id="Path_979761" data-name="Path 979761" d="M54.82,2.433H19.7a3.7,3.7,0,0,0-3.7,3.7v21.38a1.849,1.849,0,0,0,2.874,1.538l3.876-2.584H54.82a3.7,3.7,0,0,0,3.7-3.7V6.131a3.7,3.7,0,0,0-3.7-3.7Zm1.849,20.334a1.85,1.85,0,0,1-1.849,1.849H22.47a.925.925,0,0,0-.513.155l-4.109,2.739V6.131A1.85,1.85,0,0,1,19.7,4.282H54.82a1.85,1.85,0,0,1,1.849,1.849Z" transform="translate(-1.06)" fill="#21257c"/>
        <path id="Path_979762" data-name="Path 979762" d="M46.819,6.433A8.328,8.328,0,0,0,38.5,14.752c.437,11.028,16.2,11.025,16.637,0a8.328,8.328,0,0,0-8.319-8.319Zm0,14.789a6.477,6.477,0,0,1-6.47-6.47c.3-8.563,12.638-8.561,12.94,0A6.477,6.477,0,0,1,46.819,21.222Z" transform="translate(-2.763 -0.303)" fill="#21257c"/>
        <path id="Path_979763" data-name="Path 979763" d="M47.553,10.1a3.074,3.074,0,0,0-3.6,3.281.82.82,0,1,0,1.641,0,1.383,1.383,0,0,1,1.317-1.64h.647a1.318,1.318,0,0,1,1.317,1.317c.046.732-.654,1.17-1.2,1.5-.946.519-2.1,2.933-.443,3.18a.82.82,0,0,0,.82-.82,1.193,1.193,0,0,1,.532-.995c3.01-1.492,2.349-5.644-1.029-5.825Z" transform="translate(-3.175 -0.577)" fill="#e6f3ff"/>
        <path id="Path_979764" data-name="Path 979764" d="M47.432,18.978a.82.82,0,1,0,.82.82.82.82,0,0,0-.82-.82Z" transform="translate(-3.378 -1.253)" fill="#e6f3ff"/>
        <path id="Path_979765" data-name="Path 979765" d="M32.016,8.433H20.924a.924.924,0,1,0,0,1.849H32.016a.924.924,0,1,0,0-1.849Z" transform="translate(-1.363 -0.454)" fill="#4aa5ff"/>
        <path id="Path_979766" data-name="Path 979766" d="M32.016,13.433H20.924a.924.924,0,1,0,0,1.849H32.016a.924.924,0,1,0,0-1.849Z" transform="translate(-1.363 -0.833)" fill="#4aa5ff"/>
        <path id="Path_979767" data-name="Path 979767" d="M32.016,18.433H20.924a.924.924,0,1,0,0,1.849H32.016a.924.924,0,1,0,0-1.849Z" transform="translate(-1.363 -1.211)" fill="#4aa5ff"/>
        <path id="Path_979768" data-name="Path 979768" d="M40.82,32.433H5.7a3.7,3.7,0,0,0-3.7,3.7V52.768a3.7,3.7,0,0,0,3.7,3.7h32.07l3.876,2.584a1.861,1.861,0,0,0,2.874-1.538V36.131a3.7,3.7,0,0,0-3.7-3.7Zm1.849,25.077L38.56,54.772a.925.925,0,0,0-.513-.155H5.7a1.85,1.85,0,0,1-1.849-1.849V36.131A1.85,1.85,0,0,1,5.7,34.282H40.82a1.85,1.85,0,0,1,1.849,1.849s0,21.383,0,21.38Z" transform="translate(0 -2.271)" fill="#21257c"/>
        <path id="Path_979769" data-name="Path 979769" d="M34.319,36.433A8.328,8.328,0,0,0,26,44.752c.437,11.028,16.2,11.025,16.637,0A8.328,8.328,0,0,0,34.319,36.433Zm0,14.789a6.477,6.477,0,0,1-6.47-6.47c.3-8.563,12.638-8.561,12.94,0a6.477,6.477,0,0,1-6.47,6.47Z" transform="translate(-1.817 -2.574)" fill="#21257c"/>
        <g id="Group_1144553" data-name="Group 1144553" transform="translate(7.083 35.708)">
          <path id="Path_979770" data-name="Path 979770" d="M19.516,38.433H8.424a.924.924,0,1,0,0,1.849H19.516a.924.924,0,1,0,0-1.849Z" transform="translate(-7.5 -38.433)" fill="#e6f3ff"/>
          <path id="Path_979771" data-name="Path 979771" d="M19.516,43.433H8.424a.924.924,0,1,0,0,1.849H19.516a.924.924,0,1,0,0-1.849Z" transform="translate(-7.5 -38.812)" fill="#e6f3ff"/>
          <path id="Path_979772" data-name="Path 979772" d="M19.516,48.433H8.424a.924.924,0,1,0,0,1.849H19.516a.924.924,0,1,0,0-1.849Z" transform="translate(-7.5 -39.19)" fill="#e6f3ff"/>
        </g>
        <path id="Path_979773" data-name="Path 979773" d="M36.817,42.7l-3.044,3.044-1.2-1.2a.924.924,0,1,0-1.307,1.307l1.849,1.848a.924.924,0,0,0,1.307,0l3.7-3.7A.924.924,0,1,0,36.816,42.7Z" transform="translate(-2.196 -3.028)" fill="#4aa5ff"/>
        <path id="Path_979774" data-name="Path 979774" d="M58.422,7.293a1.711,1.711,0,1,1-1.711-1.711,1.711,1.711,0,0,1,1.711,1.711Z" transform="translate(-4.013 -0.238)" fill="#21257c"/>
      </g>
    </g>
  </g>
</svg>
