<svg xmlns="http://www.w3.org/2000/svg" xmlns:xlink="http://www.w3.org/1999/xlink" width="108" height="108" viewBox="0 0 108 108">
  <defs>
    <filter id="Fondo" x="0" y="0" width="108" height="108" filterUnits="userSpaceOnUse">
      <feOffset dy="3" input="SourceAlpha"/>
      <feGaussianBlur stdDeviation="3" result="blur"/>
      <feFlood flood-opacity="0.161"/>
      <feComposite operator="in" in2="blur"/>
      <feComposite in="SourceGraphic"/>
    </filter>
  </defs>
  <g id="Group_1144637" data-name="Group 1144637" transform="translate(-273.5 -6663)">
    <g id="Group_1144593" data-name="Group 1144593">
      <g transform="matrix(1, 0, 0, 1, 273.5, 6663)" filter="url(#Fondo)">
        <g id="Fondo-2" data-name="Fondo" transform="translate(9 6)" fill="#fffbe8">
          <path d="M 45 88.5 C 39.12687683105469 88.5 33.43022537231445 87.35007476806641 28.06830024719238 85.08217620849609 C 22.88852500915527 82.89131164550781 18.23629951477051 79.75458526611328 14.2408504486084 75.75914764404297 C 10.24541282653809 71.76370239257812 7.108687400817871 67.11147308349609 4.917825222015381 61.93170166015625 C 2.649924993515015 56.56977462768555 1.5 50.87312316894531 1.5 45 C 1.5 39.12687683105469 2.649924993515015 33.43022537231445 4.917825222015381 28.06830024719238 C 7.108687400817871 22.88852500915527 10.24541282653809 18.23629951477051 14.2408504486084 14.2408504486084 C 18.23629951477051 10.24541282653809 22.88852500915527 7.108687400817871 28.06830024719238 4.917825222015381 C 33.43022537231445 2.649924993515015 39.12687683105469 1.5 45 1.5 C 50.87312316894531 1.5 56.56977462768555 2.649924993515015 61.93170166015625 4.917825222015381 C 67.11147308349609 7.108687400817871 71.76370239257812 10.24541282653809 75.75914764404297 14.2408504486084 C 79.75458526611328 18.23629951477051 82.89131164550781 22.88852500915527 85.08217620849609 28.06830024719238 C 87.35007476806641 33.43022537231445 88.5 39.12687683105469 88.5 45 C 88.5 50.87312316894531 87.35007476806641 56.56977462768555 85.08217620849609 61.93170166015625 C 82.89131164550781 67.11147308349609 79.75458526611328 71.76370239257812 75.75914764404297 75.75914764404297 C 71.76370239257812 79.75458526611328 67.11147308349609 82.89131164550781 61.93170166015625 85.08217620849609 C 56.56977462768555 87.35007476806641 50.87312316894531 88.5 45 88.5 Z" stroke="none"/>
          <path d="M 45 3 C 39.32871246337891 3 33.82865524291992 4.110054016113281 28.65262985229492 6.299339294433594 C 23.65165710449219 8.414573669433594 19.15968322753906 11.44334411621094 15.301513671875 15.301513671875 C 11.44334411621094 19.15968322753906 8.414573669433594 23.65165710449219 6.299339294433594 28.65262985229492 C 4.110054016113281 33.82865524291992 3 39.32871246337891 3 45 C 3 50.67128753662109 4.110054016113281 56.17134475708008 6.299339294433594 61.34737396240234 C 8.414573669433594 66.34834289550781 11.44334411621094 70.84031677246094 15.301513671875 74.698486328125 C 19.15968322753906 78.55665588378906 23.65165710449219 81.58542633056641 28.65262985229492 83.70066070556641 C 33.82865524291992 85.88994598388672 39.32871246337891 87 45 87 C 50.67128753662109 87 56.17134475708008 85.88994598388672 61.34737396240234 83.70066070556641 C 66.34834289550781 81.58542633056641 70.84031677246094 78.55665588378906 74.698486328125 74.698486328125 C 78.55665588378906 70.84031677246094 81.58542633056641 66.34834289550781 83.70066070556641 61.34737396240234 C 85.88994598388672 56.17134475708008 87 50.67128753662109 87 45 C 87 39.32871246337891 85.88994598388672 33.82865524291992 83.70066070556641 28.65262985229492 C 81.58542633056641 23.65165710449219 78.55665588378906 19.15968322753906 74.698486328125 15.301513671875 C 70.84031677246094 11.44334411621094 66.34834289550781 8.414573669433594 61.34737396240234 6.299339294433594 C 56.17134475708008 4.110054016113281 50.67128753662109 3 45 3 M 45 0 C 69.85281372070312 0 90 20.14718627929688 90 45 C 90 69.85281372070312 69.85281372070312 90 45 90 C 20.14718627929688 90 0 69.85281372070312 0 45 C 0 20.14718627929688 20.14718627929688 0 45 0 Z" stroke="none" fill="#bca724"/>
        </g>
      </g>
      <g id="Group_1144592" data-name="Group 1144592" transform="translate(301.081 6660.113)">
        <g id="Group_1144589" data-name="Group 1144589" transform="translate(0.774 31.401)">
          <g id="Group_1144588" data-name="Group 1144588" transform="translate(0 0)">
            <g id="Group_1144582" data-name="Group 1144582">
              <g id="Group_1144580" data-name="Group 1144580" transform="translate(0 0.331)">
                <g id="Group_1144579" data-name="Group 1144579">
                  <g id="Group_1144578" data-name="Group 1144578">
                    <path id="Path_979849" data-name="Path 979849" d="M9.048,85.958A1.548,1.548,0,0,1,7.5,84.41V47.627l1.032-4.762a1.548,1.548,0,0,1,1.548-1.548l45.413.319c.855,0,2.265.693,2.265,1.139V82.261c0,1.263-1.532,3.391-2.387,3.391l-.936.305Z" transform="translate(-7.5 -41.317)" fill="#f9f7f8"/>
                  </g>
                </g>
              </g>
              <path id="Path_979850" data-name="Path 979850" d="M58.383,40.035v4.379l-2.749.329L7.5,44.754V39.662a1.548,1.548,0,0,1,1.548-1.548H54.159l2.41.107a2.042,2.042,0,0,1,1.814,1.814Z" transform="translate(-7.5 -38.114)" fill="#8abbd5"/>
              <g id="Group_1144581" data-name="Group 1144581" transform="translate(46.659)">
                <path id="Path_979851" data-name="Path 979851" d="M465.386,93.7l1.264.894v36.793a1.548,1.548,0,0,1-1.548,1.548h-2.808l.326-.193a1.782,1.782,0,0,0,.874-1.533V94.593Z" transform="translate(-462.018 -87.963)" fill="#efedef"/>
                <path id="Path_979852" data-name="Path 979852" d="M464.253,39.662v5.082H461.1V40.12a2.027,2.027,0,0,0-1.064-1.784l-.412-.223h3.083A1.548,1.548,0,0,1,464.253,39.662Z" transform="translate(-459.622 -38.114)" fill="#6cabca"/>
              </g>
            </g>
            <g id="Group_1144587" data-name="Group 1144587" transform="translate(5.475 10.194)">
              <g id="Group_1144586" data-name="Group 1144586">
                <g id="Group_1144583" data-name="Group 1144583" transform="translate(0 0.003)">
                  <path id="Path_979853" data-name="Path 979853" d="M164.094,144.143h3.486a.205.205,0,0,0,.206-.209,7.226,7.226,0,0,0-7.013-7.013.205.205,0,0,0-.209.206v3.486a.205.205,0,0,0,.193.205,3.331,3.331,0,0,1,3.132,3.132A.205.205,0,0,0,164.094,144.143Z" transform="translate(-150.243 -136.92)" fill="#fea3ce"/>
                  <path id="Path_979854" data-name="Path 979854" d="M132.9,237.123a.206.206,0,0,0-.207-.21H129.2a.206.206,0,0,0-.205.194,3.33,3.33,0,0,1-3.325,3.136l-.562,1.82.562,2.073A7.224,7.224,0,0,0,132.9,237.123Z" transform="translate(-118.449 -226.594)" fill="#8abbd5"/>
                  <path id="Path_979855" data-name="Path 979855" d="M67.545,235.525a3.342,3.342,0,0,1-3.086-3.086c-.005-.079-.007-.158-.007-.236l-2-.542-1.889.542c0,.058,0,.116,0,.174a7.252,7.252,0,0,0,7.05,7.05c.058,0,.116,0,.174,0v-3.894C67.7,235.533,67.624,235.531,67.545,235.525Z" transform="translate(-60.557 -221.884)" fill="#bbec6c"/>
                  <path id="Path_979856" data-name="Path 979856" d="M67.594,170.82a.206.206,0,0,0,.194-.205v-3.486a.206.206,0,0,0-.21-.207,7.224,7.224,0,0,0-7.014,7.223h3.894A3.33,3.33,0,0,1,67.594,170.82Z" transform="translate(-60.563 -163.826)" fill="#fce459"/>
                </g>
                <g id="Group_1144584" data-name="Group 1144584" transform="translate(19.555)">
                  <path id="Path_979857" data-name="Path 979857" d="M284.3,196.345l-6.449-.865v-8.346a.516.516,0,0,1,.516-.516H281.6Z" transform="translate(-274.983 -181.486)" fill="#fea3ce"/>
                  <path id="Path_979858" data-name="Path 979858" d="M316.823,196.345l-1.364-9.727h-1.342v9.364Z" transform="translate(-307.505 -181.486)" fill="#fe7ab6"/>
                  <path id="Path_979859" data-name="Path 979859" d="M333.573,174.352l-6.454-1.17V162.271a.516.516,0,0,1,.516-.516h2.814Z" transform="translate(-319.165 -159.189)" fill="#fce459"/>
                  <path id="Path_979860" data-name="Path 979860" d="M361.446,161.755h-2.064v11.427l3.434,1.17Z" transform="translate(-348.098 -159.189)" fill="#f9d608"/>
                  <path id="Path_979861" data-name="Path 979861" d="M381.14,151.75l-4.756-.865V137.407a.516.516,0,0,1,.516-.516h2.069l1.651.206a.641.641,0,0,1,.641.641Z" transform="translate(-363.346 -136.891)" fill="#bbec6c"/>
                  <path id="Path_979862" data-name="Path 979862" d="M401.5,136.891h-2.064a.641.641,0,0,1,.641.641v13.352l2.064.865V137.532a.641.641,0,0,0-.641-.641Z" transform="translate(-384.014 -136.891)" fill="#a2e62e"/>
                  <path id="Path_979863" data-name="Path 979863" d="M270.314,275.8l-1.858.206h-17.9a.516.516,0,0,1-.516-.516v-2.527a.516.516,0,0,1,.516-.516h17.9l1.858.206a.516.516,0,0,1,.516.516v2.114A.516.516,0,0,1,270.314,275.8Z" transform="translate(-250.044 -258.457)" fill="#918291"/>
                  <path id="Path_979864" data-name="Path 979864" d="M428.727,272.446h-2.271a.516.516,0,0,1,.516.516v2.527a.516.516,0,0,1-.516.516h2.271a.516.516,0,0,0,.516-.516v-2.527A.516.516,0,0,0,428.727,272.446Z" transform="translate(-408.25 -258.457)" fill="#7a6d79"/>
                </g>
                <g id="Group_1144585" data-name="Group 1144585" transform="translate(19.555 21.822)">
                  <circle id="Ellipse_11645" data-name="Ellipse 11645" cx="1.44" cy="1.44" r="1.44" transform="translate(0 6.037)" fill="#bbec6c"/>
                  <circle id="Ellipse_11646" data-name="Ellipse 11646" cx="1.44" cy="1.44" r="1.44" transform="translate(6.037)" fill="#bbec6c"/>
                  <circle id="Ellipse_11647" data-name="Ellipse 11647" cx="1.44" cy="1.44" r="1.44" transform="translate(12.075 6.037)" fill="#bbec6c"/>
                  <circle id="Ellipse_11648" data-name="Ellipse 11648" cx="1.44" cy="1.44" r="1.44" transform="translate(18.112)" fill="#bbec6c"/>
                </g>
              </g>
            </g>
          </g>
        </g>
        <g id="Group_1144591" data-name="Group 1144591" transform="translate(0 30.629)">
          <path id="Path_979865" data-name="Path 979865" d="M50.381,30.629H44.7a.774.774,0,0,0,0,1.548h5.682a.91.91,0,0,1,.909.909V37.2H1.548V33.086a.91.91,0,0,1,.909-.909H41.087a.774.774,0,1,0,0-1.548H2.457A2.46,2.46,0,0,0,0,33.086V45.439a.774.774,0,1,0,1.548,0V38.745H51.29V74.688a.91.91,0,0,1-.909.909H18.9a.774.774,0,1,0,0,1.548H50.381a2.46,2.46,0,0,0,2.457-2.457v-41.6A2.46,2.46,0,0,0,50.381,30.629Z" transform="translate(0 -30.629)"/>
          <path id="Path_979866" data-name="Path 979866" d="M15.292,228.96H2.457a.91.91,0,0,1-.909-.909V202.414a.774.774,0,1,0-1.548,0v25.637a2.46,2.46,0,0,0,2.457,2.457H15.292a.774.774,0,0,0,0-1.548Z" transform="translate(0 -183.992)"/>
          <path id="Path_979867" data-name="Path 979867" d="M61.042,164.838a.774.774,0,0,0,.774-.774v-3.9a.774.774,0,0,0-.774-.774,8,8,0,1,0,8,8,.774.774,0,0,0-.774-.774h-3.9a.774.774,0,0,0-.774.774,2.557,2.557,0,1,1-2.557-2.557Zm4.031,3.331h2.374a6.464,6.464,0,0,1-5.632,5.63v-2.373A4.116,4.116,0,0,0,65.073,168.169Zm-4.805,3.256V173.8a6.462,6.462,0,0,1-5.63-5.63h2.373A4.115,4.115,0,0,0,60.268,171.425Zm-3.257-4.8H54.638a6.464,6.464,0,0,1,5.63-5.632v2.374A4.116,4.116,0,0,0,57.011,166.621Z" transform="translate(-47.568 -146.106)"/>
          <path id="Path_979868" data-name="Path 979868" d="M153.837,129.392a.774.774,0,0,0-.774.774v3.9a.774.774,0,0,0,.774.774,2.559,2.559,0,0,1,2.557,2.557.774.774,0,0,0,.774.774h3.9a.774.774,0,0,0,.774-.774A8.009,8.009,0,0,0,153.837,129.392Zm4.032,7.226a4.116,4.116,0,0,0-3.257-3.257v-2.374a6.465,6.465,0,0,1,5.632,5.632Z" transform="translate(-137.267 -119.2)"/>
          <path id="Path_979869" data-name="Path 979869" d="M260.8,129.392h-3.927a1.291,1.291,0,0,0-1.29,1.29v1.276h-3.794a1.291,1.291,0,0,0-1.29,1.29v1.276H246.7a1.291,1.291,0,0,0-1.29,1.29v7.568h-1.58a1.291,1.291,0,0,0-1.29,1.29V147.2a1.291,1.291,0,0,0,1.29,1.29h4.463a.774.774,0,0,0,0-1.548h-4.205v-2.01c4.79,0,14.775.006,19.445,0v2.01H251.905a.774.774,0,1,0,0,1.548h11.885a1.291,1.291,0,0,0,1.29-1.29v-2.526a1.291,1.291,0,0,0-1.29-1.29h-1.58V130.807A1.417,1.417,0,0,0,260.8,129.392Zm-.133,1.548v12.441h-3.536V130.94Zm-5.084,2.566v9.876h-3.536v-9.876Zm-8.62,2.566h3.536v7.31h-3.536Z" transform="translate(-217.51 -119.2)"/>
          <path id="Path_979870" data-name="Path 979870" d="M262.87,345.275a2.221,2.221,0,1,0-2.012-1.3l-3.107,3.107a2.189,2.189,0,0,0-1.835,0l-3.107-3.107a2.214,2.214,0,1,0-4.025,0l-3.107,3.107a2.221,2.221,0,1,0,1.095,1.095l3.107-3.107a2.189,2.189,0,0,0,1.835,0l3.107,3.107a2.214,2.214,0,1,0,4.025,0l3.107-3.107A2.2,2.2,0,0,0,262.87,345.275Zm0-2.88a.666.666,0,1,1-.666.666A.667.667,0,0,1,262.87,342.395Zm-18.112,7.369a.666.666,0,1,1,.666-.666A.667.667,0,0,1,244.758,349.764Zm5.371-6.7a.666.666,0,1,1,.666.666A.667.667,0,0,1,250.129,343.061Zm6.7,6.7a.666.666,0,1,1,.666-.666A.667.667,0,0,1,256.833,349.764Z" transform="translate(-217.514 -308.833)"/>
          <path id="Path_979871" data-name="Path 979871" d="M53.816,342.395h2.078a.774.774,0,1,0,0-1.548H53.816a.774.774,0,1,0,0,1.548Z" transform="translate(-47.568 -308.833)"/>
          <path id="Path_979872" data-name="Path 979872" d="M53.816,385.6h2.078a.774.774,0,1,0,0-1.548H53.816a.774.774,0,1,0,0,1.548Z" transform="translate(-47.568 -347.578)"/>
          <path id="Path_979873" data-name="Path 979873" d="M53.816,428.8h2.078a.774.774,0,1,0,0-1.548H53.816a.774.774,0,1,0,0,1.548Z" transform="translate(-47.568 -386.324)"/>
          <path id="Path_979874" data-name="Path 979874" d="M108.179,341.621a.774.774,0,0,0,.774.774h14.613a.774.774,0,1,0,0-1.548H108.953a.774.774,0,0,0-.774.774Z" transform="translate(-97.015 -308.833)"/>
          <path id="Path_979875" data-name="Path 979875" d="M108.953,385.6h7.225a.774.774,0,0,0,0-1.548h-7.225a.774.774,0,1,0,0,1.548Z" transform="translate(-97.015 -347.578)"/>
          <path id="Path_979876" data-name="Path 979876" d="M108.953,428.8h10.321a.774.774,0,1,0,0-1.548H108.953a.774.774,0,1,0,0,1.548Z" transform="translate(-97.015 -386.324)"/>
          <g id="Group_1144590" data-name="Group 1144590" transform="translate(3.567 3.284)">
            <circle id="Ellipse_11649" data-name="Ellipse 11649" cx="0.774" cy="0.774" r="0.774"/>
            <circle id="Ellipse_11650" data-name="Ellipse 11650" cx="0.774" cy="0.774" r="0.774" transform="translate(3.521)"/>
            <circle id="Ellipse_11651" data-name="Ellipse 11651" cx="0.774" cy="0.774" r="0.774" transform="translate(7.042)"/>
          </g>
        </g>
      </g>
    </g>
  </g>
</svg>
