<svg xmlns="http://www.w3.org/2000/svg" xmlns:xlink="http://www.w3.org/1999/xlink" width="108" height="108" viewBox="0 0 108 108">
  <defs>
    <filter id="Fondo" x="0" y="0" width="108" height="108" filterUnits="userSpaceOnUse">
      <feOffset dy="3" input="SourceAlpha"/>
      <feGaussianBlur stdDeviation="3" result="blur"/>
      <feFlood flood-opacity="0.161"/>
      <feComposite operator="in" in2="blur"/>
      <feComposite in="SourceGraphic"/>
    </filter>
  </defs>
  <g id="Group_1144624" data-name="Group 1144624" transform="translate(-746.999 -3230)">
    <g id="Group_1144472" data-name="Group 1144472">
      <g transform="matrix(1, 0, 0, 1, 747, 3230)" filter="url(#Fondo)">
        <g id="Fondo-2" data-name="Fondo" transform="translate(9 6)" fill="#fffbe8" stroke="#bca724" stroke-width="3">
          <circle cx="45" cy="45" r="45" stroke="none"/>
          <circle cx="45" cy="45" r="43.5" fill="none"/>
        </g>
      </g>
      <g id="Filled_outline" data-name="Filled outline" transform="translate(756.949 3238.949)">
        <path id="Path_979604" data-name="Path 979604" d="M173.157,51.986l-.3,2.677-.2,1.8H147.411l-.2-1.8-.3-2.677a13.874,13.874,0,0,1,1.037-7,13.887,13.887,0,0,0,1.1-6.158l-.157-3.12a11.151,11.151,0,1,1,22.274,0l-.157,3.12a13.887,13.887,0,0,0,1.1,6.158,13.867,13.867,0,0,1,1.037,7Z" transform="translate(-116.082 -7.103)" fill="#8f4d2e"/>
        <path id="Path_979605" data-name="Path 979605" d="M255.171,51.98l-.3,2.677H244.754V44.738l1.8-3.607V33.918a9.929,9.929,0,0,0-7.3-9.568,11.163,11.163,0,0,1,13.926,11.357l-.157,3.12a13.888,13.888,0,0,0,1.1,6.158A13.867,13.867,0,0,1,255.171,51.98Z" transform="translate(-198.096 -7.097)" fill="#82462a"/>
        <path id="Path_979606" data-name="Path 979606" d="M219.181,223.214a1.262,1.262,0,0,1-1.262-1.262V216h-7.214v5.951a1.262,1.262,0,0,1-1.262,1.262H208v5.41h12.624v-5.41Z" transform="translate(-170.359 -177.457)" fill="#fec9a3"/>
        <path id="Path_979607" data-name="Path 979607" d="M236.151,220.509a4.947,4.947,0,0,0,3.063-1.105V216H232v3.4a4.947,4.947,0,0,0,3.063,1.106Z" transform="translate(-191.654 -177.457)" fill="#feb784"/>
        <path id="Path_979608" data-name="Path 979608" d="M208.231,85.41v4.509a8.115,8.115,0,0,1-16.231,0V85.41a12.233,12.233,0,0,0,4.159-4.711l.349-.7.512.427a22.514,22.514,0,0,0,11.21,4.983Z" transform="translate(-156.163 -56.786)" fill="#fec9a3"/>
        <path id="Path_979609" data-name="Path 979609" d="M284.32,121.514v4.509a8.119,8.119,0,0,1-6.565,7.967,9.883,9.883,0,0,0,2.958-7.066V120.69A22.488,22.488,0,0,0,284.32,121.514Z" transform="translate(-232.252 -92.89)" fill="#fec093"/>
        <path id="Path_979610" data-name="Path 979610" d="M224,312h9.017v6.312H224Z" transform="translate(-184.556 -262.637)" fill="#e0e0de"/>
        <path id="Path_979611" data-name="Path 979611" d="M119.051,303.407a2.737,2.737,0,0,1-3.04-1.816l-5.956-11.173a7.022,7.022,0,0,1-1.258,6.714v7.214H92.567v-7.214a7.033,7.033,0,0,1-1.244-6.8L85.27,301.591a2.736,2.736,0,1,1-5.2-1.718l6.621-16.48A5.409,5.409,0,0,1,91.716,280h3.556l5.41,9.919,5.41-9.919h3.543a5.415,5.415,0,0,1,5.027,3.412l6.545,16.462a2.737,2.737,0,0,1-2.156,3.534Z" transform="translate(-56.729 -234.244)" fill="#ec8c8c"/>
        <path id="Path_979612" data-name="Path 979612" d="M74.159,392.455,74.81,384h5.41v8.687a3.035,3.035,0,1,1-6.061-.233Z" transform="translate(-51.596 -326.522)" fill="#f59898"/>
        <path id="Path_979613" data-name="Path 979613" d="M32.433,266.885a1.754,1.754,0,0,0-1.143,2.486l.826,1.65H28.884a5.41,5.41,0,0,1-2.42-.571l-.9-.449a1.082,1.082,0,0,0-1.566.968v2.545a1.8,1.8,0,0,0,1,1.613l1.468.734a5.411,5.411,0,0,0,2.42.571h6.838v-5.41l-1.235-3.087A1.754,1.754,0,0,0,32.433,266.885Z" transform="translate(-7.098 -222.56)" fill="#fec9a3"/>
        <path id="Path_979614" data-name="Path 979614" d="M80,352h5.41v3.607H80Z" transform="translate(-56.786 -298.128)" fill="#e0e0de"/>
        <path id="Path_979615" data-name="Path 979615" d="M220.818,307.169a2.737,2.737,0,0,1-3.04-1.816l-5.956-11.173a7.022,7.022,0,0,1-1.258,6.714v7.214H194.63c7.442-4.86,13.722-11.028,18.992-23.868a5.4,5.4,0,0,1,2.807,2.934l6.545,16.462a2.737,2.737,0,0,1-2.156,3.534Z" transform="translate(-158.496 -238.006)" fill="#e07f7f"/>
        <path id="Path_979616" data-name="Path 979616" d="M305.017,350.427l-9.017-1.8V336l9.017,1.8Z" transform="translate(-248.44 -283.932)" fill="#a36548"/>
        <path id="Path_979617" data-name="Path 979617" d="M408,350.427l9.017-1.8V336L408,337.8Z" transform="translate(-347.816 -283.932)" fill="#8f4d2e"/>
        <path id="Path_979618" data-name="Path 979618" d="M376,352h3.607v12.624H376Z" transform="translate(-319.423 -298.128)" fill="#95573a"/>
        <path id="Path_979619" data-name="Path 979619" d="M306.82,316.509a3.193,3.193,0,0,0-2.668-3.15L296,312v2.705l9.017,1.8h1.8a3.193,3.193,0,0,1,2.668-3.15L317.641,312v2.705l-9.017,1.8Z" transform="translate(-248.44 -262.637)" fill="#d4bd81"/>
        <path id="Path_979620" data-name="Path 979620" d="M436.657,421.326l-3.607.6a.9.9,0,0,1-1.05-.889v-3.352a1.174,1.174,0,0,1,.981-1.158l3.063-.51a1.174,1.174,0,0,1,1.367,1.158v3.261a.9.9,0,0,1-.753.889Z" transform="translate(-369.111 -354.916)" fill="#fec9a3"/>
        <path id="Path_979621" data-name="Path 979621" d="M217.353,136a1.353,1.353,0,1,0,1.353,1.353A1.353,1.353,0,0,0,217.353,136Z" transform="translate(-177.457 -106.474)"/>
        <path id="Path_979622" data-name="Path 979622" d="M289.353,136a1.353,1.353,0,1,0,1.353,1.353A1.353,1.353,0,0,0,289.353,136Z" transform="translate(-241.342 -106.474)"/>
        <path id="Path_979623" data-name="Path 979623" d="M242.705,176.9a.9.9,0,0,1-.9-.9H240a2.705,2.705,0,1,0,5.41,0h-1.8A.9.9,0,0,1,242.705,176.9Z" transform="translate(-198.752 -141.966)"/>
        <path id="Path_979624" data-name="Path 979624" d="M69.783,48.676a.9.9,0,0,0-.731-.2L60.9,49.833a4.1,4.1,0,0,0-1.51.572l-.621-1.569a6.006,6.006,0,0,0-1.035-1.728l.235-2.132a15.621,15.621,0,0,0,.1-1.636,14.716,14.716,0,0,0-1.2-5.81,13.024,13.024,0,0,1-1.029-5.76l.153-3.121c.009-.2.019-.4.019-.6a12.053,12.053,0,1,0-24.092.6l.153,3.111c.009.232.017.452.017.669a12.854,12.854,0,0,1-1.045,5.1,14.734,14.734,0,0,0-1.1,7.452l.235,2.1a6.121,6.121,0,0,0-.714,1.033l-1.231-3.077a2.656,2.656,0,1,0-4.841,2.174l.173.345H21.786a4.531,4.531,0,0,1-2.016-.476l-.9-.449A1.984,1.984,0,0,0,16,48.409v2.545a2.69,2.69,0,0,0,1.5,2.42l1.468.734a6.344,6.344,0,0,0,2.823.666h.526v2.67l-.648,8.421A3.937,3.937,0,0,0,25.589,70.1q.1,0,.2-.005c.057,0,.115,0,.172,0a3.63,3.63,0,0,0,3.41-2.385l4.116-7.653a7.887,7.887,0,0,0,1.45,3.139v6.9h1.8V62.889a.9.9,0,0,0-.209-.577,6.148,6.148,0,0,1,.786-8.649l-1.155-1.385a7.948,7.948,0,0,0-1.12,1.144.928.928,0,0,0-.093.113h0l-.016.028-.011.02a7.9,7.9,0,0,0-1.172,2.191l-4.221,7.85V52.666l1.281-3.191a4.322,4.322,0,0,1,.949-1.455,4.564,4.564,0,0,1,3.234-1.362h3.017l5.154,9.449a.9.9,0,0,0,1.583,0L46.658,52.6V64.692a.9.9,0,0,0,.725.884l3.784.757V70.1h1.8V66.694l3.45.689c.023,0,.127.015.157.015h1.706l.173.323A3.653,3.653,0,0,0,61.879,70.1a3.4,3.4,0,0,0,.594-.049A3.654,3.654,0,0,0,65.3,67.7l2.4-.4a1.8,1.8,0,0,0,1.5-1.687l.18-.036a.9.9,0,0,0,.726-.884V49.363a.9.9,0,0,0-.319-.688Zm-29.824-2.2a2.166,2.166,0,0,0,1.288-1.978v-2.76a9.021,9.021,0,0,0,5.41,0v2.76a2.166,2.166,0,0,0,1.288,1.977l-1.085,1.99H41.045Zm3.993-6.125a7.222,7.222,0,0,1-7.214-7.214V29.1a13.173,13.173,0,0,0,3.9-4.468,23.357,23.357,0,0,0,10.525,4.765v3.74a7.222,7.222,0,0,1-7.214,7.214Zm12.186,7.69.017.017a4.179,4.179,0,0,1,.936,1.444l.387.978a4.1,4.1,0,0,0-1.618-.642l-7.052-1.175,1.09-2h3.008A4.467,4.467,0,0,1,56.139,48.036Zm.527,4.934-4.1-.82-4.1-.821v-.9l7.1,1.183A2.284,2.284,0,0,1,57.3,52.97ZM61.2,51.611l7.1-1.184v.9l-4.241.848-3.964.792h-.629A2.284,2.284,0,0,1,61.2,51.611Zm-41.428.883L18.3,51.76a.9.9,0,0,1-.5-.807V48.409a.18.18,0,0,1,.261-.161l.9.449a6.344,6.344,0,0,0,2.823.666h3.231a.9.9,0,0,0,.806-1.3L25,46.407a.852.852,0,1,1,1.554-.7l1.17,2.926V52.97H21.786a4.531,4.531,0,0,1-2.016-.476Zm7.953,2.279v1.8H24.115v-1.8ZM23.462,66l.586-7.622h3.674v7.786a2.134,2.134,0,0,1-1.979,2.125.921.921,0,0,0-.1.005l-.053,0A2.133,2.133,0,0,1,23.462,66ZM34.95,53.535a.9.9,0,0,1,.057-.07l-.055.071Zm-3.118-7.828-.1-.927a12.928,12.928,0,0,1,.969-6.54,14.647,14.647,0,0,0,1.191-5.811c0-.252-.009-.5-.019-.748l-.153-3.12a10.25,10.25,0,1,1,20.488-.514c0,.159-.008.332-.017.515l-.153,3.118a14.834,14.834,0,0,0,1.171,6.559,12.923,12.923,0,0,1,1.055,5.1,13.815,13.815,0,0,1-.085,1.443l-.1.929a6.306,6.306,0,0,0-3.167-.857H48.822a.366.366,0,0,1-.361-.361V40.936a9.02,9.02,0,0,0,4.509-7.8V28.624a.9.9,0,0,0-.774-.893,21.559,21.559,0,0,1-10.76-4.783l-.512-.427a.9.9,0,0,0-1.384.289l-.349.7a11.36,11.36,0,0,1-3.853,4.364.9.9,0,0,0-.4.75v4.509a9.02,9.02,0,0,0,4.509,7.8v3.558a.366.366,0,0,1-.361.361H34.99a6.352,6.352,0,0,0-3.158.852Zm12.121,8.085-1.924-3.527h3.848Zm4.509-.624,7.214,1.443V65.4l-7.214-1.443Zm9.017,1.605h1.8v10.82h-1.8Zm4.685,13.5a1.613,1.613,0,0,1-.285.023,1.847,1.847,0,0,1-1.589-.909l.051-.008.02,0h.008l1.854-.371a1.78,1.78,0,0,0,.908.791A1.88,1.88,0,0,1,62.164,68.276ZM67.4,65.52l-3.607.6V62.77a.271.271,0,0,1,.227-.268l3.063-.51a.3.3,0,0,1,.046,0,.272.272,0,0,1,.271.272V65.52Zm-.613-5.308-3.063.51a2.069,2.069,0,0,0-1.734,2.047v2.446l-.9.18V54.611L68.3,53.168v7.38a2.07,2.07,0,0,0-1.515-.336Z" transform="translate(0)"/>
      </g>
    </g>
  </g>
</svg>
